<svg width="79" height="73" viewBox="0 0 79 73" fill="none" xmlns="http://www.w3.org/2000/svg">
<path d="M55.764 52.7547L22.9165 44.924C21.1051 44.4386 20.1106 42.716 20.4045 41.0151C20.8899 39.2038 22.6124 38.2092 24.3133 38.5032C24.3133 38.5032 24.6152 38.5841 24.7257 38.7755L56.3599 51.1347C56.9637 51.2965 57.1038 51.9812 56.8315 52.3936C56.7506 52.6955 56.3678 52.9165 55.764 52.7547Z" fill="#00CD82"/>
<path d="M58.0677 3.70364L77.4135 38.9796C77.6345 39.3624 77.4728 39.9661 77.09 40.1871C76.7072 40.4081 76.1034 40.2464 75.8824 39.8636L52.4364 7.21011C51.361 5.78945 51.6253 3.59526 53.1565 2.71124C54.5772 1.63583 56.7713 1.90019 57.6553 3.43136C57.8467 3.32085 57.9572 3.51224 58.0677 3.70364Z" fill="#F78F4B"/>
<path d="M39.909 19.5466L46.5825 28.4533C46.693 28.6447 46.7226 29.138 46.5312 29.2485C46.3398 29.359 46.0379 29.2781 45.736 29.1972L36.825 22.6031C35.8897 21.8671 35.6095 20.4977 36.3455 19.5624C37.0814 18.6271 38.4508 18.3469 39.3861 19.0829C39.7985 19.3552 39.909 19.5466 39.909 19.5466Z" fill="#3E8AE5"/>
<path d="M21.4572 61.8438L32.3768 63.9608C32.6787 64.0417 32.8997 64.4245 32.8188 64.7264C32.7379 65.0283 32.5465 65.1388 32.3551 65.2493L21.3409 66.5045C20.1629 66.6742 19.1171 65.7468 18.9474 64.5688C18.7777 63.3909 19.705 62.345 20.883 62.1753C21.1553 61.7629 21.4572 61.8438 21.4572 61.8438Z" fill="#3E8AE5"/>
</svg>
