<svg width="210" height="154" viewBox="0 0 210 154" fill="none" xmlns="http://www.w3.org/2000/svg">
<rect width="210" height="154" rx="20" fill="#00CD82"/>
<path d="M108.6 25.6C100.3 24.7 91.8999 24.3 83.5999 24.6C79.3999 24.7 75.2999 25 71.1999 25.6C66.9999 26.2 62.8999 27 58.9999 28.3C55.0999 29.7 51.2999 31.5 48.5999 34.6C47.2999 36.1 46.2999 38 45.8999 39.9C45.4999 41.9 45.6999 43.9 46.0999 45.9C46.5999 47.9 47.2999 49.8 48.2999 51.6C49.1999 53.5 50.3999 55.1 51.4999 56.9C53.7999 60.4 55.6999 64.2 56.9999 68.3C58.1999 72.3 58.7999 76.6 58.5999 80.8C58.3999 85 57.5999 89.2 56.4999 93.2C55.3999 97.2 54.0999 101.2 53.1999 105.3C52.7999 107.3 52.4999 109.4 52.5999 111.5C52.6999 113.6 53.0999 115.6 53.8999 117.5C54.6999 119.4 55.8999 121.1 57.3999 122.5L57.8999 123.1L58.4999 123.6L59.6999 124.6L60.9999 125.5C61.3999 125.8 61.8999 126.1 62.2999 126.3C65.8999 128.3 69.8999 129.7 73.8999 130.7C81.9999 132.7 90.3999 133.4 98.6999 133.6C107 133.7 115.4 133.2 123.7 132C132 130.8 140.2 129 148 126.3C151.9 124.9 155.7 123.2 159.3 121.1C162.9 119 166.2 116.4 168.6 113.1C171 109.8 172.5 105.8 173.4 101.8C174.3 97.7 174.5 93.6 174.3 89.4C174.1 85.3 173.3 81.1 172.2 77.1C171.1 73.1 169.7 69.2 167.8 65.4C166 61.7 163.9 58.1 161.4 54.7C158.9 51.4 156.2 48.2 153.2 45.3C150.2 42.5 147 39.8 143.5 37.5C141.8 36.3 140 35.3 138.2 34.3C137.3 33.8 136.3 33.4 135.4 32.9C134.5 32.4 133.5 32 132.6 31.6C125 28.5 116.8 26.5 108.6 25.6ZM108.7 24.6C117.1 25.5 125.3 27.6 133 31C134 31.4 134.9 31.9 135.9 32.3C136.8 32.8 137.8 33.2 138.7 33.7C140.5 34.8 142.4 35.8 144.1 37C147.6 39.3 150.9 42 153.9 44.9C157 47.8 159.7 51 162.2 54.4C164.7 57.8 166.8 61.5 168.7 65.2C170.6 69 172 73 173.1 77C174.2 81.1 175 85.2 175.2 89.4C175.4 93.6 175.2 97.8 174.3 102C173.4 106.1 171.9 110.2 169.3 113.6C166.8 117 163.3 119.7 159.7 121.8C156.1 123.9 152.2 125.6 148.2 127C140.3 129.8 132 131.5 123.7 132.7C115.4 133.8 107 134.3 98.5999 134.2C90.1999 134 81.7999 133.3 73.6999 131.3C69.5999 130.3 65.5999 128.9 61.8999 126.9C61.3999 126.7 60.9999 126.4 60.4999 126.1L59.1999 125.2L57.9999 124.2L57.3999 123.7L56.8999 123.1C55.3999 121.6 54.1999 119.8 53.2999 117.9C52.3999 116 51.9999 113.8 51.8999 111.7C51.7999 109.6 52.0999 107.5 52.4999 105.4C53.2999 101.3 54.6999 97.3 55.7999 93.3C56.8999 89.3 57.6999 85.2 57.8999 81C58.0999 76.9 57.4999 72.7 56.2999 68.8C55.0999 64.8 53.1999 61.1 50.8999 57.6C48.5999 54.1 46.3999 50.4 45.2999 46.3C44.8999 44.2 44.6999 42 45.0999 39.9C45.5999 37.8 46.5999 35.8 47.9999 34.2C50.8999 30.9 54.7999 29 58.7999 27.6C62.7999 26.2 66.8999 25.4 71.0999 24.8C75.2999 24.2 79.4999 23.9 83.5999 23.7C91.8999 23.3 100.3 23.7 108.7 24.6Z" fill="#CCCEF0"/>
<path d="M175.2 119.3C123.3 118.1 67 117 44.5 118.2C45.1 95.4999 44.9 67.8999 44.5 39.1999C73.5 38.1999 124.7 38.6999 175.1 39.1999C175.4 57.9999 176 88.5999 175.2 119.3Z" fill="#00CD82"/>
<path d="M161 42.8L169.1 57.3L151.1 56.7001L161 42.8Z" fill="#00A270"/>
<path d="M168.1 65.6001V80.0001H150.2L150.5 65.6001H168.1Z" fill="#00A270"/>
<path d="M139.7 65.6001V80.0001H121.7L122.7 65.6001H139.7Z" fill="#00A270"/>
<path d="M132.6 41.8C142.8 41.8 144.7 57.7001 132.6 57.7001C120.5 57.7001 122.5 41.8 132.6 41.8Z" fill="#00A270"/>
<path d="M163.6 43.5C166.4 48.3 169.2 53.2 172 58.1C172.1 58.3 172 58.5 171.9 58.6C171.8 58.6 171.8 58.7 171.7 58.6C168.7 58.4 165.7 58.3 162.7 58.2C159.7 58.1 156.7 58 153.7 58C153.5 58 153.3 57.8 153.3 57.6C153.3 57.5 153.3 57.4 153.4 57.4C156.6 52.8 160.1 48.1 163.6 43.5ZM163.5 44.2C160.3 48.8 157.1 53.4 153.9 57.9L153.6 57.3C156.6 57.5 159.6 57.6 162.6 57.7C165.6 57.8 168.6 57.9 171.6 57.9L171.3 58.5C168.6 53.7 166.1 49 163.5 44.2Z" fill="white"/>
<path d="M170.9 66.4001C170.9 71.2001 171 76.1 171 81C171 81.2 170.9 81.3 170.7 81.3C167.7 81.4 164.7 81.4001 161.7 81.4001H157.2C155.7 81.4001 154.2 81.4 152.7 81.3C152.5 81.3 152.4 81.2 152.4 81L152.8 66.6C152.8 66.4 152.9 66.3 153.1 66.3L170.9 66.4001ZM170.5 66.8L153.1 66.9001L153.4 66.6L153 81L152.7 80.7001C154.2 80.7001 155.7 80.6 157.2 80.6H161.7C164.7 80.6 167.7 80.6 170.7 80.7001L170.4 81C170.4 76.3 170.4 71.6 170.5 66.8Z" fill="white"/>
<path d="M142.5 66.3999C142.6 71.2999 142.6 76.1999 142.6 81.0999C142.6 81.2999 142.4 81.4999 142.2 81.4999H124.2C124 81.4999 123.8 81.2999 123.8 81.0999L125 66.5999C125 66.4999 125.1 66.3999 125.2 66.3999C130.9 66.3999 136.7 66.2999 142.5 66.3999ZM141.9 66.8999C136.3 66.8999 130.8 66.8999 125.1 66.7999L125.3 66.5999L124.6 80.9999L124.2 80.5999H142.2L141.8 80.9999C141.8 76.2999 141.9 71.5999 141.9 66.8999Z" fill="white"/>
<path d="M135.1 42.5C137.3 42.5 139.6 43.3 141.2 44.9C142.8 46.5 143.8 48.7 143.9 50.9C144 53.1 143.2 55.5 141.4 57C139.7 58.5 137.3 59 135.2 59.1C133 59.1 130.7 58.6 129 57.1C127.3 55.6 126.5 53.3 126.6 51.1C126.7 48.9 127.6 46.7 129.2 45.1C130.6 43.4 132.9 42.5 135.1 42.5ZM135.1 43.1C133 43.1 130.9 43.9 129.5 45.4C128 46.9 127.1 48.9 127 51C126.9 53.1 127.7 55.2 129.3 56.5C130.9 57.9 133 58.3 135.1 58.3C137.2 58.3 139.3 57.8 140.9 56.4C142.4 55 143.2 52.9 143.1 50.9C143 48.8 142.2 46.8 140.7 45.3C139.2 43.9 137.2 43.1 135.1 43.1Z" fill="white"/>
<path d="M119 54.6001C118 53.5001 116.9 52.4001 115.4 52.0001C114 51.6001 112.5 52.2001 111.2 52.9001C109.9 53.6001 108.6 54.6001 107 54.9001C106.2 55.1001 105.3 55.1001 104.5 54.8001C103.7 54.5001 103 54.1001 102.4 53.5001C101.3 52.4001 100.1 51.6001 98.6001 51.4001C97.2001 51.2001 95.7001 51.7001 94.3001 52.4001C92.9001 53.0001 91.6001 53.8001 90.0001 54.3001C89.2001 54.5001 88.4001 54.7001 87.5001 54.7001C86.6001 54.6001 85.8001 54.3001 85.1001 53.9001L83.2001 52.6001C82.5001 52.3001 81.9001 51.9001 81.2001 51.7001C79.8001 51.3001 78.4001 51.4001 77.1001 51.9001C75.7001 52.4001 74.4001 53.3001 72.8001 53.7001C72.4001 53.9001 72.0001 54.0001 71.6001 54.0001C71.4001 54.0001 71.2001 54.0001 70.9001 54.0001L70.3001 53.9001C69.9001 53.8001 69.5001 53.6001 69.1001 53.5001C68.7001 53.3001 68.4001 53.1001 68.0001 52.8001C67.3001 52.3001 66.8001 51.8001 66.2001 51.4001C65.6001 51.0001 65.0001 50.6001 64.3001 50.4001C63.0001 50.0001 61.5001 50.3001 60.3001 51.1001C59.1001 51.9001 58.1001 53.1001 56.7001 54.0001C56.3001 54.2001 56.0001 54.4001 55.5001 54.5001C55.1001 54.6001 54.6001 54.6001 54.2001 54.4001C53.4001 54.1001 52.8001 53.5001 52.3001 52.9001C52.2001 52.8001 52.2001 52.7001 52.3001 52.6001C52.4001 52.5001 52.5001 52.5001 52.6001 52.6001C53.1001 53.1001 53.7001 53.6001 54.4001 53.8001C55.1001 54.0001 55.7001 53.7001 56.3001 53.3001C57.5001 52.4001 58.5001 51.2001 59.8001 50.2001C60.5001 49.7001 61.2001 49.3001 62.0001 49.1001C62.8001 48.9001 63.7001 48.9001 64.5001 49.2001C65.3001 49.4001 66.1001 49.8001 66.7001 50.2001C67.4001 50.6001 68.0001 51.2001 68.6001 51.6001C69.8001 52.5001 71.1001 52.8001 72.4001 52.4001C73.7001 52.0001 75.0001 51.1001 76.6001 50.6001C78.1001 50.0001 79.9001 49.8001 81.5001 50.4001C82.3001 50.6001 83.0001 51.1001 83.8001 51.4001L85.7001 52.8001C86.3001 53.2001 86.9001 53.4001 87.6001 53.5001C88.3001 53.6001 89.0001 53.4001 89.7001 53.2001C91.1001 52.8001 92.5001 52.1001 93.9001 51.4001C95.3001 50.8001 96.9001 50.3001 98.6001 50.5001C100.3 50.7001 101.7 51.7001 102.8 52.8001C103.3 53.3001 103.9 53.7001 104.6 54.0001C105.3 54.2001 106 54.3001 106.7 54.1001C108.1 53.8001 109.4 52.9001 110.8 52.2001C111.5 51.8001 112.2 51.5001 113 51.3001C113.8 51.1001 114.6 51.1001 115.4 51.3001C117 51.7001 118.2 52.9001 119.2 54.1001C119.3 54.2001 119.3 54.3001 119.2 54.4001C119.2 54.7001 119 54.7001 119 54.6001Z" fill="white"/>
<path d="M119 72.9C117.9 71.8 116.7 70.8 115.4 70.6C114.1 70.3 112.7 70.9 111.4 71.6C110.1 72.3 108.8 73.3 107.1 73.7C106.3 73.9 105.3 73.9 104.5 73.6C103.6 73.3 102.9 72.8 102.3 72.3L101.5 71.5C101.2 71.3 100.9 71.1 100.6 70.9C100 70.6 99.4003 70.3 98.7003 70.3C97.4003 70.1 96.0003 70.6 94.6003 71.2C93.2003 71.8 91.9003 72.6 90.3003 73.1C89.5003 73.3 88.6003 73.5 87.7003 73.5C86.8003 73.4 85.9003 73.1 85.1003 72.6L83.2003 71.3C82.6003 71 82.0003 70.6 81.3003 70.4C80.0003 70 78.7003 70.1 77.3003 70.6C75.9003 71.1 74.7003 72 73.0003 72.4C72.6003 72.5 72.1003 72.6 71.7003 72.6C71.5003 72.6 71.2003 72.6 71.0003 72.6L70.3003 72.5C69.8003 72.4 69.5003 72.2 69.1003 72C68.7003 71.8 68.3003 71.6 68.0003 71.3C67.3003 70.8 66.8003 70.3 66.2003 69.9C65.6003 69.5 65.0003 69.2 64.3003 69C63.0003 68.6 61.7003 68.9 60.5003 69.7C59.3003 70.5 58.3003 71.7 56.9003 72.6C56.5003 72.8 56.1003 73 55.7003 73.1C55.3003 73.2 54.8003 73.2 54.4003 73C53.5003 72.7 53.0003 72.1 52.5003 71.5C52.4003 71.4 52.4003 71.3 52.5003 71.2C52.6003 71.1 52.7003 71.1 52.8003 71.2C53.3003 71.7 53.9003 72.2 54.6003 72.4C55.2003 72.6 55.9003 72.3 56.5003 71.9C57.6003 71 58.6003 69.8 59.9003 68.8C60.6003 68.3 61.3003 67.9 62.2003 67.7C63.1003 67.5 64.0003 67.5 64.8003 67.7C65.6003 67.9 66.4003 68.3 67.1003 68.8C67.8003 69.2 68.4003 69.8 69.0003 70.2C70.2003 71 71.4003 71.4 72.7003 71C74.0003 70.7 75.3003 69.8 76.9003 69.2C78.4003 68.6 80.3003 68.4 82.0003 68.9C82.9003 69.1 83.6003 69.6 84.3003 69.9L86.2003 71.3C87.3003 72.1 88.5003 72.1 89.9003 71.7C91.3003 71.3 92.6003 70.5 94.1003 69.9C95.5003 69.3 97.2003 68.7 99.0003 69C100.8 69.2 102.3 70.4 103.4 71.4C104.4 72.4 105.7 72.9 107 72.6C108.3 72.3 109.6 71.5 111 70.7C111.7 70.3 112.4 70 113.3 69.8C114.1 69.6 115 69.6 115.9 69.8C117.6 70.3 118.7 71.6 119.6 72.8C119.7 72.9 119.6 73 119.5 73.1C119.2 73 119 73 119 72.9Z" fill="white"/>
<path d="M90.1001 116.4L89.6001 115.4C90.3001 114.9 90.9001 114.4 91.5001 113.7C88.6001 109.6 83.3001 92.0001 75.7001 89.6001C71.9001 88.4001 68.2001 87.3001 64.9001 86.8001C64.7001 86.7001 64.5001 86.6001 64.3001 86.6001C63.9001 85.6001 63.6001 84.4001 63.3001 83.1001C63.2001 82.8001 63.2001 82.5001 63.2001 82.2001C63.2001 82.2001 63.2001 82.2001 63.2001 82.1001C64.1001 81.1001 64.8001 79.5001 65.2001 77.4001C66.6001 77.5001 68.2001 76.4001 68.2001 74.6001C68.2001 73.1001 66.9001 72.5001 66.0001 73.5001C66.4001 72.0001 66.6001 68.9001 65.9001 68.0001C68.5001 64.2001 56.1001 61.9001 53.9001 67.8001C52.4001 67.2001 52.7001 71.6001 53.1001 73.5001C52.1001 72.5001 50.9001 73.1001 50.9001 74.6001C50.9001 76.4001 52.5001 77.6001 53.9001 77.4001C54.3001 79.6001 55.0001 81.1001 55.9001 82.1001C55.9001 82.1001 55.9001 82.1001 55.9001 82.2001C55.9001 82.5001 55.8001 82.8001 55.8001 83.1001C55.6001 84.4001 55.2001 85.6001 54.8001 86.6001C54.6001 86.7001 54.3001 86.7001 54.1001 86.8001C51.1001 87.1001 48.0001 88.0001 44.9001 89.0001C44.9001 99.4001 44.8001 109.2 44.6001 118.2C54.5001 117.7 71.1001 117.6 90.9001 117.8L90.1001 116.4Z" fill="#00674F"/>
<path d="M175.6 90.6001C175.1 89.9001 174.7 89.4001 174.2 89.3001C173.6 89.2001 168 87.8001 165.5 87.5001C165.5 87.5001 164.2 87.0001 163.4 86.7001C163.2 86.1001 162.9 85.3001 162.7 84.4001C162.7 84.3001 162.7 84.3001 162.6 84.2001C165.5 84.1001 168.7 83.7001 169.1 82.4001C170.8 76.9001 169.7 71.5001 167.8 68.7001C171.6 63.9001 160.5 59.9001 154.9 66.9001C151.6 65.2001 147.2 73.5001 150 82.4001C150.4 83.7001 153.6 84.1001 156.5 84.2001C156.5 84.3001 156.5 84.3001 156.4 84.4001C156.1 85.3001 155.9 86.1001 155.7 86.7001C154.9 87.0001 153.6 87.5001 153.6 87.5001C151.2 87.8001 144.5 89.2001 143.9 89.3001C140.7 90.1001 136.2 110.1 134.2 118.4C147.6 118.7 161.5 119 175 119.3C175.4 109.6 175.6 99.9001 175.6 90.6001Z" fill="#00674F"/>
<path d="M104.5 72.1999C100.3 69.6999 105.3 63.9999 101 62.2999C96.6001 60.5999 96.6001 53.1999 91.0001 57.2999C86.2001 52.4999 79.7001 57.9999 79.0001 61.7999C77.5001 69.9999 71.0001 69.5999 74.3001 74.4999C77.6001 79.3999 67.9001 81.5 72.1001 86.7999C76.3001 92.2 102.9 89.5999 107 88.0999C111.1 86.5999 110.6 85.5999 107.6 82.3999C104.7 79.2999 108.7 74.6999 104.5 72.1999Z" fill="#190032"/>
<path d="M72.6001 108.3L62.4001 105.3L56.1001 117.8C60.1001 117.7 64.5001 117.7 69.2001 117.7L71.5001 113.9L72.6001 108.3Z" fill="#F294B9"/>
<path d="M60 110.1C63.6 112.9 69.4 112.7 71.8 112.5L72.6 108.3L62.4 105.3L60 110.1Z" fill="#190032"/>
<path d="M106.7 108.3L107.8 113.9L110.3 118C114.6 118.1 119 118.1 123.4 118.2L117 105.4L106.7 108.3Z" fill="#F294B9"/>
<path d="M106.7 108.3L107.5 112.5C109.9 112.7 115.7 112.9 119.3 110.1L117 105.4L106.7 108.3Z" fill="#190032"/>
<path d="M58.6001 107.3C62.8001 112.5 72.8001 110.9 72.8001 110.9L73.9001 84C66.6001 86.2 61.4001 103.3 58.6001 107.3Z" fill="#8181F2"/>
<path d="M105.4 83.8999L106.5 110.8C106.5 110.8 116.5 112.4 120.7 107.2C117.9 103.3 112.7 86.1999 105.4 83.8999Z" fill="#8181F2"/>
<path d="M91.7001 80.8999C89.2001 81.9999 90.1001 81.9999 87.6001 80.8999C83.5001 80.8999 78.8001 82.2999 73.9001 83.8999C72.8001 89.3999 69.6001 113.9 69.1001 117.7C80.9001 117.7 95.0001 117.8 110.2 118C109.9 115.5 106.5 89.5999 105.4 83.8999C100.5 82.2999 95.8001 80.8999 91.7001 80.8999Z" fill="#8181F2"/>
<path d="M77.4001 82.7999C77.7001 83.1999 77.8001 83.6999 77.8001 84.1999C77.7001 85.7999 76.2001 87.0999 74.4001 86.9999C73.1001 86.8999 72.1001 85.9999 71.9001 84.9999C71.5001 85.2999 71.0001 85.6999 70.6001 86.0999C71.1001 87.4999 72.4001 88.5999 74.2001 88.6999C77.1001 88.9999 79.6001 86.8999 79.6001 84.2999C79.6001 83.5999 79.4001 82.9999 79.1001 82.3999C78.5001 82.4999 78.0001 82.5999 77.4001 82.7999Z" fill="#6459E5"/>
<path d="M87.5001 86.7C85.2001 86.6 83.5001 88.2 83.7001 90.3C83.8001 92.3 85.8001 94 87.9001 94.1C90.0001 94.2 91.7001 92.6 91.6001 90.6C91.6001 88.6 89.7001 86.8 87.5001 86.7ZM87.8001 92.6C86.5001 92.6 85.4001 91.6 85.3001 90.3C85.2001 89.1 86.2001 88.1 87.6001 88.2C88.9001 88.3 90.0001 89.3 90.1001 90.5C90.1001 91.8 89.1001 92.7 87.8001 92.6Z" fill="#6459E5"/>
<path d="M106 84.1C105.8 84 105.6 83.9 105.4 83.9C104.4 83.6 103.5 83.3 102.5 83C100.9 83.3 99.6001 84.7 99.6001 86.5C99.6001 88.8 101.6 90.9 103.9 90.9C106.1 90.9 107.7 89 107.4 86.8C107.3 85.8 106.8 84.8 106 84.1ZM103.8 89.2C102.4 89.2 101.2 88 101.2 86.6C101.2 85.3 102.2 84.3 103.5 84.3C104.8 84.4 105.9 85.4 106 86.7C106.1 88.1 105.2 89.2 103.8 89.2Z" fill="#6459E5"/>
<path d="M108.4 95.3999C106 95.6999 104.3 97.6999 104.4 99.7999C104.5 101.8 106.4 103.5 108.7 103.5C111.1 103.5 113.3 101.7 113.3 99.2999C113.2 96.8999 111 95.0999 108.4 95.3999ZM108.6 102.1C107.1 102.1 105.9 101.1 105.8 99.7999C105.7 98.3999 106.9 97.1999 108.4 97.0999C110 96.8999 111.4 97.9999 111.4 99.4999C111.4 100.8 110.2 102 108.6 102.1Z" fill="#6459E5"/>
<path d="M119.2 104.6C119 104.1 118.7 103.5 118.4 103C115.9 103.4 114.2 105.5 114.5 107.9C114.6 108.8 115 109.7 115.6 110.4C116.1 110.3 116.6 110.1 117.1 109.9C116.6 109.4 116.2 108.7 116.1 108C116 106.1 117.4 104.7 119.2 104.6Z" fill="#6459E5"/>
<path d="M98 90.8C95.8 90.8 93.9 92.4 93.7 94.5C93.5 96.8 95.4 99.1 98.1 99.2C100.9 99.4 102.9 97.2 102.7 94.7C102.4 92.5 100.3 90.8 98 90.8ZM98.1 97.4C96.5 97.3 95.3 96 95.4 94.6C95.5 93.2 96.6 92.2 98.1 92.2C99.6 92.2 100.8 93.3 101 94.7C101 96.2 99.7 97.5 98.1 97.4Z" fill="#6459E5"/>
<path d="M83.5 116.7C83.2 113.8 80.4 111.6 77.5 111.6C74.6 111.6 72.2 113.6 72 116.4C72 116.9 72 117.3 72.1 117.7C72.8 117.7 73.6 117.7 74.3 117.7C74.1 117.3 74.1 116.9 74.1 116.4C74.2 114.7 75.7 113.3 77.5 113.4C79.4 113.4 81 114.8 81.2 116.6C81.2 117 81.2 117.3 81.1 117.7C81.9 117.7 82.7 117.7 83.6 117.7C83.6 117.4 83.6 117 83.5 116.7Z" fill="#6459E5"/>
<path d="M97.5001 115C97.2001 112.4 94.7001 110.4 92.1001 110.4C89.5001 110.4 87.4001 112.2 87.2001 114.7C87.1001 115.8 87.4001 116.8 88.0001 117.7C89.0001 117.7 90.1001 117.7 91.1001 117.7C89.9001 117.2 89.0001 116 89.1001 114.7C89.2001 113.1 90.5001 112 92.2001 112C93.9001 112 95.4001 113.3 95.5001 114.9C95.6001 116.2 94.9001 117.2 93.7001 117.7C94.8001 117.7 95.9001 117.7 97.0001 117.7C97.4001 117 97.6001 116 97.5001 115Z" fill="#6459E5"/>
<path d="M106.5 106.2C103.8 106.2 101.5 108.1 101.3 110.7C101.1 113.5 103.4 116.2 106.6 116.4C107.8 116.5 109 116.2 109.9 115.6C109.8 114.8 109.7 113.8 109.5 112.7C108.9 113.6 107.9 114.2 106.6 114.2C104.7 114.1 103.2 112.5 103.3 110.8C103.4 109.2 104.8 107.9 106.5 107.9C108.3 107.9 109.8 109.2 109.9 110.9V111C110.6 111 111.3 111 112.1 110.9C111.8 108.3 109.3 106.2 106.5 106.2Z" fill="#6459E5"/>
<path d="M91.0001 98.8999C88.6001 98.8999 86.6001 100.8 86.6001 103.2C86.6001 105.7 88.7001 107.8 91.4001 107.8C94.1001 107.8 96.0001 105.7 95.8001 103.2C95.6001 100.8 93.4001 98.8999 91.0001 98.8999ZM91.3001 106.1C89.6001 106.1 88.2001 104.8 88.2001 103.2C88.2001 101.6 89.5001 100.4 91.1001 100.4C92.7001 100.4 94.1001 101.6 94.2001 103.2C94.2001 104.8 93.0001 106.1 91.3001 106.1Z" fill="#6459E5"/>
<path d="M78.7999 91.9999C76.7999 92.1999 75.3999 93.8999 75.3999 95.6999C75.3999 97.4999 76.7999 99.2999 78.7999 99.7999C81.1999 100.4 83.5999 98.8999 83.6999 96.1999C83.5999 93.5999 81.1999 91.6999 78.7999 91.9999ZM78.7999 98.2999C77.4999 98.0999 76.5999 96.8999 76.5999 95.6999C76.5999 94.4999 77.4999 93.4999 78.7999 93.3999C80.2999 93.2999 81.5999 94.4999 81.5999 95.9999C81.4999 97.5999 80.1999 98.4999 78.7999 98.2999Z" fill="#6459E5"/>
<path d="M72.6999 99.6001C69.8999 99.6001 67.5999 101.8 67.4999 104.5C67.3999 107.3 69.5999 109.6 72.4999 109.7C75.3999 109.8 77.7999 107.4 77.7999 104.6C77.7999 101.8 75.4999 99.6001 72.6999 99.6001ZM72.4999 108C70.4999 108 68.9999 106.4 68.9999 104.5C69.0999 102.6 70.6999 101.1 72.5999 101.1C74.4999 101.1 76.0999 102.6 76.0999 104.5C76.0999 106.5 74.4999 108 72.4999 108Z" fill="#6459E5"/>
<path d="M68.8 88.1001C68.5 88.4001 68.3 88.8001 68 89.2001C69 89.9001 69.6 91.1001 69.4 92.4001C69.2 94.4001 67.5 96.0001 65.6 96.0001C65.1 96.0001 64.7 95.9001 64.3 95.7001C64 96.3001 63.8 96.8001 63.5 97.4001C64.1 97.7001 64.7 97.8001 65.4 97.8001C68.2 97.8001 70.5 95.4001 70.8 92.6001C70.8 90.7001 70.1 89.0001 68.8 88.1001Z" fill="#6459E5"/>
<path d="M68.7002 118.2C69.3002 114 69.9002 109.8 70.4002 105.6C70.7002 103.5 71.0002 101.4 71.2002 99.2999C71.2002 98.7999 71.2002 98.1999 71.3002 97.6999L71.6002 96.0999C71.8002 95.0999 72.0002 93.9999 72.3002 92.9999C72.3002 92.8999 72.4002 92.8999 72.4002 92.8999C72.5002 92.8999 72.5002 92.9999 72.5002 92.9999C72.5002 94.0999 72.4002 95.0999 72.3002 96.1999L72.2002 97.7999C72.1002 98.2999 72.0002 98.7999 71.9002 99.3999C71.6002 101.5 71.3002 103.6 71.0002 105.7C70.4002 109.9 69.8002 114.1 69.3002 118.2C69.3002 118.4 69.1002 118.6 68.9002 118.5C68.8002 118.6 68.7002 118.4 68.7002 118.2Z" fill="#190032"/>
<path d="M107.2 92.8C107.7 97 108.3 101.2 108.9 105.5C109.2 107.6 109.5 109.7 109.8 111.8C109.9 112.3 110 112.8 110.1 113.4L110.2 115C110.3 116.1 110.3 117.1 110.4 118.2C110.4 118.3 110.3 118.3 110.3 118.3C110.2 118.3 110.2 118.3 110.2 118.2C109.9 117.2 109.7 116.1 109.5 115.1L109.2 113.5C109 113 109 112.5 109 111.9C108.8 109.8 108.4 107.7 108.2 105.6C107.6 101.4 107.1 97.2 106.5 93C106.5 92.8 106.6 92.6 106.8 92.6C107 92.5 107.2 92.6 107.2 92.8Z" fill="#190032"/>
<path d="M92.0999 80.5001C90.4999 80.3001 89.6999 80.7001 89.6999 80.7001C89.6999 80.7001 88.8999 80.3001 87.2999 80.5001C85.6999 80.7001 83.2999 81.1001 83.5999 82.1001C84.6999 85.4001 87.9999 86.3001 89.5999 86.3001C91.9999 86.3001 94.7999 84.8001 95.6999 82.1001C96.0999 81.2001 93.5999 80.7001 92.0999 80.5001Z" fill="white"/>
<path d="M89.7 76.3L86.2 75C86.2 77.9 85.3 80.5 84.5 82.1C86.5 84.4 88.6 85.1 89.6 85.1C90.7 85.1 92.7 84.4 94.7 82.1C93.9 80.5 93.1 77.9 93 75L89.7 76.3Z" fill="#F294B9"/>
<path d="M89.6999 76.3L86.1999 75C86.1999 75.9 86.0999 76.8 85.8999 77.7C86.8999 78.9 88.1999 79.5 89.5999 79.5C90.9999 79.5 92.2999 79 93.2999 77.7C93.0999 76.9 93.0999 76 92.9999 75L89.6999 76.3Z" fill="#190032"/>
<path d="M89.6999 62.3C86.4999 62.3 83.8999 64.9 83.8999 68.1C83.8999 75.4 86.4999 78.1 89.6999 78.1C92.8999 78.1 95.4999 75.3 95.4999 68.1C95.4999 64.9 92.8999 62.3 89.6999 62.3Z" fill="#F294B9"/>
<path d="M95.1001 73.5001C94.8001 74.8001 94.3001 76.0001 93.3001 77.1001C92.4001 78.1001 90.9001 78.7001 89.5001 78.7001C88.1001 78.7001 86.7001 77.9001 85.8001 76.9001C84.9001 75.8001 84.4001 74.5001 84.1001 73.3001C84.1001 73.1001 84.2001 73.0001 84.3001 72.9001C84.5001 72.9001 84.6001 73.0001 84.7001 73.1001C85.1001 74.3001 85.6001 75.5001 86.4001 76.3001C87.2001 77.2001 88.3001 77.6001 89.5001 77.6001C90.7001 77.7001 91.8001 77.3001 92.7001 76.5001C93.6001 75.7001 94.2001 74.6001 94.6001 73.4001C94.6001 73.3001 94.8001 73.2001 94.9001 73.2001C95.0001 73.3001 95.1001 73.4001 95.1001 73.5001Z" fill="#190032"/>
<path d="M90.0997 60.2001C90.0997 60.2001 86.9997 60.0001 84.5997 61.4001C82.1997 62.8001 82.7997 66.1001 83.9997 69.2001C85.6997 68.8001 89.9997 67.5001 91.1997 63.9001C91.5997 65.2001 92.9997 66.7001 95.9997 68.4001C95.9997 68.4001 97.0997 68.5001 97.0997 67.0001C97.0997 62.8001 90.0997 60.2001 90.0997 60.2001Z" fill="#190032"/>
<path d="M94.5999 69.4L94.3999 72.3C95.7999 72.4 97.3999 71.3 97.3999 69.5C97.3999 67.9 95.4999 67.3 94.5999 69.4Z" fill="#F294B9"/>
<path d="M84.6999 69.4L84.8999 72.3C83.4999 72.4 81.8999 71.3 81.8999 69.5C81.9999 67.9 83.7999 67.3 84.6999 69.4Z" fill="#F294B9"/>
<path d="M112.2 109.2L101.8 106.2L95.8999 117.8C100.2 117.8 104.6 117.9 109.1 118L111 114.8L112.2 109.2Z" fill="#FCB1D0"/>
<path d="M99.3999 110.8C102.9 113.7 108.7 113.6 111.3 113.4L112.2 109.1L101.8 106.1L99.3999 110.8Z" fill="#190032"/>
<path d="M98.2998 108.1C102.5 113.3 112.7 111.7 112.7 111.7L113.8 84.3999C106.3 86.7999 101.1 104.1 98.2998 108.1Z" fill="#F7C363"/>
<path d="M147.2 109.2L148.3 114.8L150.7 118.7C155.1 118.8 159.6 118.9 164 119L157.5 106.1L147.2 109.2Z" fill="#FCB1D0"/>
<path d="M147.2 109.2L148.1 113.5C150.7 113.7 156.4 113.8 160 110.9L157.6 106.2L147.2 109.2Z" fill="#190032"/>
<path d="M145.6 84.5L146.7 111.8C146.7 111.8 156.8 113.4 161.1 108.2C158.3 104.1 153 86.8 145.6 84.5Z" fill="#F7C363"/>
<path d="M131.7 81.3999C129.2 82.5999 130.1 82.4999 127.6 81.3999C123.5 81.3999 118.7 82.7999 113.7 84.3999C112.7 89.6999 109.7 112.4 109 117.9C122.2 118.1 136.2 118.4 150.4 118.7C149.9 115.2 146.7 89.9999 145.6 84.3999C140.6 82.7999 135.8 81.3999 131.7 81.3999Z" fill="#F7C363"/>
<path d="M145.6 99.5C148.1 95.4 133.9 103.2 136.5 99.8C139.1 96.4 122.1 104 125.4 99.7C128.6 95.4 112.4 104 115.4 100.3C117.2 98 114.8 98 111.6 98.9C111.3 101.3 110.9 103.8 110.6 106.2C114.3 105.1 117.4 104.7 115.4 107.3C112.5 111 128.7 102.4 125.4 106.7C122.2 111 139.2 103.4 136.5 106.8C133.8 110.2 148 102.4 145.6 106.5C144.5 108.3 146.5 107.8 148.9 106.9C148.6 104.7 148.3 102.5 148 100.2C146 100.9 144.6 101.1 145.6 99.5Z" fill="#F79459"/>
<path d="M127.6 81.3999C130.1 82.4999 129.2 82.5999 131.7 81.3999" stroke="#190032" stroke-width="0.75" stroke-miterlimit="10" stroke-linecap="round" stroke-linejoin="round"/>
<path d="M108.4 117.9L112.3 92.4999C112.3 92.3999 112.4 92.3999 112.5 92.3999C112.6 92.3999 112.6 92.4999 112.6 92.5999L109.6 118.1C109.6 118.4 109.3 118.7 108.9 118.6C108.6 118.5 108.4 118.2 108.4 117.9Z" fill="#190032"/>
<path d="M147.6 96.3999L150.8 118.7C150.8 118.9 150.7 119.2 150.4 119.2C150.2 119.2 149.9 119.1 149.9 118.8L147.1 96.3999C147.1 96.2999 147.2 96.1999 147.3 96.0999C147.5 96.0999 147.6 96.1999 147.6 96.3999Z" fill="#190032"/>
<path d="M132.1 81.1C130.5 80.9 129.7 81.4 129.7 81.4C129.7 81.4 128.9 81 127.3 81.1C125.7 81.3 123.3 81.8 123.6 82.7C124.7 86 128 86.9 129.7 86.9C132.1 86.9 134.9 85.4 135.8 82.7C136.1 81.7 133.7 81.2 132.1 81.1Z" fill="white"/>
<path d="M129.7 76.6999L126.2 75.3999C126.2 78.2999 125.3 80.8999 124.5 82.5999C126.6 84.8999 128.6 85.5999 129.7 85.5999C130.8 85.5999 132.8 84.8999 134.9 82.5999C134.1 80.8999 133.2 78.2999 133.2 75.3999L129.7 76.6999Z" fill="#FCB1D0"/>
<path d="M129.7 76.6999L126.2 75.3999C126.2 76.2999 126.1 77.1999 125.9 78.0999C126.9 79.2999 128.2 79.8999 129.7 79.8999C131.1 79.8999 132.4 79.3999 133.5 78.0999C133.3 77.1999 133.2 76.2999 133.2 75.3999L129.7 76.6999Z" fill="#190032"/>
<path d="M134.6 70.0999L134.4 72.9999C135.8 73.0999 137.4 71.9999 137.4 70.1999C137.4 68.4999 135.5 67.9999 134.6 70.0999Z" fill="#FCB1D0"/>
<path d="M124.7 70.0999L124.9 72.9999C123.5 73.0999 121.9 71.9999 121.9 70.1999C122 68.4999 123.8 67.9999 124.7 70.0999Z" fill="#FCB1D0"/>
<path d="M129.7 62.5999C126.5 62.5999 123.8 65.1999 123.8 68.4999C123.8 75.8999 126.4 78.6999 129.7 78.6999C132.9 78.6999 135.6 75.8999 135.6 68.4999C135.5 65.2999 132.9 62.5999 129.7 62.5999Z" fill="#FCB1D0"/>
<path d="M131.8 59.7999C131.4 59.8999 132.4 58.9999 131.6 58.8999C128.7 58.8999 125.3 60.1999 124.3 62.8999C122.6 62.2999 123.2 68.3999 123.8 69.1999C124.2 69.7999 124.4 65.7999 125.3 65.4999C126.1 65.2999 126.9 64.6999 127.1 63.7999C128.1 64.4999 131 64.8999 133.2 64.4999C133.3 64.8999 133.6 65.2999 134.1 65.5999C135.2 66.2999 135.2 69.7999 135.6 69.2999C136.1 68.6999 136.6 64.3999 135.8 63.1999C136.2 62.5999 137.9 60.2999 137.8 60.0999C137.2 59.2999 133.9 58.9999 131.8 59.7999Z" fill="#190032"/>
<path d="M135.3 73C135 74.4 134.6 75.7 133.7 76.9C132.8 78 131.5 78.8 130 78.9C128.5 79 127 78.5 126 77.4C125 76.4 124.4 75 124.1 73.6C124.1 73.5 124.1 73.3 124.3 73.3C124.5 73.3 124.6 73.3 124.6 73.5C125 74.8 125.5 76.1 126.4 77C127.3 78 128.6 78.4 130 78.4C131.3 78.4 132.6 77.7 133.4 76.6C134.2 75.6 134.7 74.2 135 72.9C135 72.8 135.1 72.7 135.2 72.8C135.3 72.9 135.3 72.9 135.3 73Z" fill="#190032"/>
<path d="M175 124.1L141.2 123.2L107.4 122.6C96.1001 122.5 84.9001 122.4 73.6001 122.5C62.3001 122.6 51.1001 122.8 39.9001 123.6C39.5001 123.6 39.1001 123.3 39.1001 122.9V122.8C40.0001 93.5 39.8001 64.2 39.5001 34.9C39.5001 34.7 39.7001 34.5 39.9001 34.5L44.3001 34.4H48.7001H57.4001L74.8001 34.2C80.6001 34.2 86.4001 34.1 92.2001 34L109.6 34.1L144.5 34.2H161.9H179.3C179.6 34.2 179.8 34.4 179.8 34.7C179.9 49.5 180.2 64.4 180.2 79.2C180.2 94 180.1 108.9 179.6 123.7C179.6 123.9 179.4 124.1 179.2 124.1H175ZM175.1 123.3L179.5 123.4L179.1 123.8C179.6 109 179.7 94.1 179.6 79.3C179.5 64.5 179.2 49.6 179.1 34.8L179.6 35.3L162.1 35L144.7 34.8L109.8 34.5L92.4001 34.4C86.6001 34.4 80.8001 34.5 75.0001 34.6C63.4001 34.8 51.8001 34.8 40.1001 35.3L40.5001 34.9C41.0001 64.2 41.5001 93.5 40.8001 122.9L40.0001 122.1C45.6001 121.9 51.3001 121.7 56.9001 121.7C62.5001 121.7 68.2001 121.7 73.8001 121.7C85.1001 121.8 96.3001 121.9 107.6 122.2L141.4 122.7L175.1 123.3Z" fill="#190032"/>
</svg>
