<svg width="210" height="154" viewBox="0 0 210 154" fill="none" xmlns="http://www.w3.org/2000/svg">
<rect width="210" height="154" rx="20" fill="#1667CD"/>
<path d="M142.922 42.5522C138.971 43.4641 135.02 43.9959 130.992 44.0719C126.965 44.1479 122.938 43.768 118.987 42.9322C111.084 41.3365 103.714 37.9172 96.4194 34.5739C92.7722 32.9022 89.1249 31.3065 85.2497 30.0908C81.4505 28.875 77.4993 28.0392 73.4721 28.0392C69.4449 27.9632 65.4937 28.799 61.6945 30.2427C60.7827 30.6227 59.7949 30.9266 58.9591 31.3825C58.0473 31.8384 57.1355 32.2943 56.2996 32.7502L53.7161 34.2699C52.8803 34.8018 52.0445 35.4097 51.2846 36.0176C48.0933 38.4491 45.4338 41.4885 43.2303 44.8318C41.0267 48.1751 39.507 51.8983 38.2913 55.6976C38.0633 56.6854 37.6834 57.5972 37.5314 58.585L36.9236 61.5484C36.7716 62.5362 36.6956 63.524 36.5436 64.5118C36.4677 65.0437 36.3917 65.4996 36.3917 66.0315L36.3157 67.5511C36.1637 69.5267 36.3157 71.5783 36.3157 73.5539C36.3917 74.5417 36.5436 75.5295 36.6196 76.5173C36.6956 77.0492 36.6956 77.5051 36.7716 78.037L37.0755 79.4807C38.4433 87.3831 41.6346 94.8296 46.1177 101.44L47.9413 103.872C48.2453 104.252 48.5492 104.708 48.8531 105.088L49.8409 106.227C50.5248 106.987 51.1327 107.747 51.8165 108.431L53.9441 110.482L55.0079 111.546L56.1477 112.458L58.4272 114.358C59.187 114.965 60.0229 115.497 60.8587 116.029C61.6945 116.561 62.4544 117.169 63.3662 117.701C70.2048 121.804 77.7273 124.616 85.4777 126.287C93.3041 127.959 101.282 128.491 109.261 128.339C117.239 128.111 125.142 126.743 132.588 124.008C140.035 121.348 146.949 117.169 152.8 111.85C155.763 109.191 158.423 106.227 160.778 103.036C163.134 99.8446 165.185 96.4253 166.857 92.854C167.693 91.0304 168.453 89.2067 169.137 87.3831C169.745 85.4835 170.352 83.5839 170.808 81.6843C171.264 79.7847 171.644 77.8091 171.872 75.8335C172.1 73.8579 172.252 71.8823 172.252 69.9067C172.252 67.9311 172.1 65.9555 171.872 63.9799C171.644 62.0043 171.188 60.1047 170.656 58.2051C170.048 56.3054 169.365 54.4818 168.377 52.7342C167.389 50.9865 166.249 49.3908 164.882 47.9471C162.146 45.0597 158.575 43.0841 154.7 42.2483C152.8 41.8684 150.748 41.7164 148.773 41.7924C146.797 41.7924 144.822 42.1723 142.922 42.5522ZM142.77 42.1723C144.746 41.7164 146.721 41.3365 148.773 41.2605C150.824 41.1845 152.8 41.2605 154.852 41.6404C158.879 42.4003 162.602 44.4519 165.413 47.4152C166.857 48.859 168.073 50.5306 169.061 52.2783C170.048 54.0259 170.884 55.9255 171.492 57.9011C172.1 59.8007 172.556 61.8523 172.86 63.8279C173.164 65.8035 173.316 67.8551 173.316 69.9067C173.316 71.9582 173.24 73.9338 173.012 75.9854C172.784 78.037 172.404 80.0126 172.024 81.9882C171.568 83.9638 171.036 85.9394 170.352 87.839C169.669 89.7386 168.985 91.6382 168.073 93.4619C166.401 97.1851 164.35 100.68 161.994 103.948C159.639 107.215 156.903 110.33 153.94 113.066C147.937 118.537 140.794 122.792 133.196 125.527C125.598 128.263 117.467 129.631 109.413 129.782C101.358 129.858 93.2281 129.251 85.4017 127.503C77.4993 125.755 69.9008 122.792 62.9863 118.537C62.0744 118.081 61.3146 117.397 60.4788 116.865C59.6429 116.257 58.8071 115.725 58.0473 115.117L55.6917 113.142L54.552 112.154L53.4882 111.09L51.3606 108.963C50.6768 108.203 50.0689 107.443 49.385 106.683L48.3972 105.543C48.0933 105.163 47.7894 104.708 47.4854 104.328L45.6618 101.896C41.1787 95.2095 38.0633 87.5351 36.7716 79.6327L36.5436 78.113C36.4677 77.5811 36.4677 77.1252 36.3917 76.5933C36.3157 75.6055 36.1637 74.6177 36.0877 73.5539C36.0118 71.5783 35.9358 69.5267 36.0877 67.5511L36.1637 66.0315C36.1637 65.4996 36.3157 65.0437 36.3157 64.5118C36.4677 63.524 36.5436 62.5362 36.6956 61.5484L37.3035 58.585C37.5314 57.5972 37.8354 56.6854 38.1393 55.6976C39.3551 51.8983 40.9507 48.1751 43.1543 44.8318C45.3579 41.4885 48.1693 38.5251 51.3606 36.0936C52.1965 35.4857 52.9563 34.8778 53.7921 34.3459L56.3756 32.8262C57.2874 32.3703 58.1992 31.9144 59.0351 31.4585C59.9469 31.0026 60.8587 30.6987 61.7705 30.3187C65.4937 28.875 69.5209 28.0392 73.5481 28.0392C77.5753 28.0392 81.5265 28.875 85.4017 30.0908C89.2009 31.3065 92.9242 32.9022 96.5714 34.5739C103.866 37.8412 111.236 41.1845 119.139 42.7802C123.09 43.616 127.041 43.92 131.068 43.844C134.944 43.616 138.895 43.0841 142.77 42.1723Z" fill="#EBECFF"/>
<path d="M157.283 58.2813C156.295 52.9623 151.736 43.7682 150.521 41.7926C138.971 39.4371 127.041 38.6772 127.041 38.6772C118.379 54.3301 110.933 90.1188 110.933 90.1188C126.585 101.364 146.417 101.592 146.417 101.592C150.824 76.2136 157.283 58.2813 157.283 58.2813Z" fill="white"/>
<path d="M156.979 58.2812L156.751 57.2934L156.447 56.2296C156.219 55.5457 155.991 54.7859 155.764 54.102C155.308 52.7343 154.776 51.2906 154.168 49.9229C153.636 48.5552 153.028 47.1874 152.344 45.8197C151.736 44.452 151.052 43.1603 150.293 41.8685L150.369 41.9445C146.493 41.1847 142.618 40.5768 138.667 40.1209C134.792 39.665 130.841 39.285 126.889 38.9811L127.193 38.8291C125.066 42.7803 123.394 46.9595 121.798 51.1386C120.279 55.3938 118.911 59.6489 117.619 63.98C116.328 68.3111 115.188 72.6423 114.124 77.0494C113.06 81.3805 111.996 85.7876 111.085 90.1947L111.009 89.8907C113.592 91.7144 116.252 93.2341 119.139 94.6018C121.95 95.9695 124.914 97.0333 127.877 97.9451C130.841 98.8569 133.956 99.5408 136.995 100.073C140.035 100.605 143.226 100.984 146.265 101.06L145.734 101.516C146.493 97.8691 147.253 94.2219 148.089 90.5746C148.925 86.9273 149.761 83.2801 150.673 79.7088C151.584 76.0616 152.572 72.4903 153.56 68.919C154.092 67.0954 154.624 65.3477 155.156 63.5241L155.991 60.8647L156.447 59.4969L156.675 58.8131C156.827 58.6611 156.979 58.3572 156.979 58.2812ZM157.587 58.3572L156.675 61.0926L155.764 63.7521C155.232 65.4997 154.624 67.3233 154.092 69.071C153.028 72.6423 152.116 76.2895 151.204 79.8608C150.369 83.508 149.533 87.1553 148.849 90.8025C148.469 92.6262 148.165 94.4498 147.861 96.2734C147.557 98.0971 147.253 99.9207 147.025 101.82C146.949 102.124 146.721 102.276 146.493 102.276C143.302 102.124 140.187 101.744 137.071 101.136C133.956 100.529 130.917 99.7687 127.877 98.8569C124.838 97.8691 121.874 96.7293 119.063 95.3616C116.176 93.9939 113.516 92.3222 110.933 90.4986C110.857 90.4226 110.781 90.3466 110.857 90.1947C111.768 85.7876 112.832 81.3805 113.896 77.0494C114.96 72.6423 116.176 68.3111 117.391 63.98C118.683 59.6489 119.975 55.3178 121.57 51.0627C123.09 46.8075 124.762 42.6284 126.965 38.6012C127.041 38.5252 127.117 38.4492 127.269 38.4492C131.221 38.7532 135.172 39.2091 139.047 39.741C142.922 40.2728 146.873 40.9567 150.749 41.7166C150.825 41.7166 150.825 41.7166 150.825 41.7925C151.584 43.0843 152.268 44.376 152.952 45.7437C153.636 47.1115 154.244 48.4032 154.852 49.7709C155.46 51.1386 155.991 52.5064 156.523 53.9501C156.751 54.6339 156.979 55.3938 157.207 56.0776L157.511 57.1414C157.435 57.5213 157.511 57.9013 157.587 58.3572Z" fill="#B1B4DE"/>
<path d="M134.032 46.1238L126.966 53.4183L136.692 56.2297L134.032 46.1238Z" fill="#00CD82"/>
<path d="M125.826 58.7373L123.015 67.5515L132.665 70.8188L135.248 61.8527L125.826 58.7373Z" fill="#F78F4B"/>
<path d="M141.175 63.7522L138.364 72.7944L148.318 76.1377L150.521 66.8676L141.175 63.7522Z" fill="#3E8AE5"/>
<path d="M149.533 50.3028C143.986 48.5552 139.959 57.9772 146.57 60.1048C153.257 62.3084 155.08 52.0504 149.533 50.3028Z" fill="#EA6595"/>
<path d="M132.436 46.7316C130.233 49.2391 128.029 51.5946 125.75 53.9501L125.598 53.2663C127.193 53.7981 128.789 54.33 130.385 54.7859C131.98 55.2419 133.652 55.6978 135.248 56.0777L134.716 56.6096C133.88 53.2662 133.196 50.0749 132.436 46.7316ZM132.664 45.8958C133.652 49.3151 134.716 52.8103 135.552 56.3056C135.628 56.5336 135.476 56.7615 135.248 56.7615C135.172 56.7615 135.096 56.7615 135.02 56.7615C133.424 56.1537 131.828 55.6978 130.233 55.2418C128.637 54.7859 126.965 54.33 125.37 53.9501C125.142 53.8741 124.99 53.6462 125.066 53.4942C125.066 53.4182 125.142 53.3422 125.142 53.3422C127.573 50.8347 130.157 48.3273 132.664 45.8958Z" fill="#190032"/>
<path d="M124.458 59.1931C123.546 62.0805 122.71 64.9679 121.722 67.8553L121.494 67.4754C123.09 67.9313 124.762 68.4632 126.357 68.9951C127.953 69.527 129.549 70.0589 131.144 70.7427L130.765 70.9707L133.424 61.9285L133.652 62.3084C130.537 61.3206 127.497 60.2569 124.458 59.1931ZM124.154 58.5852C127.345 59.573 130.613 60.6368 133.804 61.7006C133.956 61.7766 134.032 61.9285 134.032 62.0805L131.372 71.1227C131.296 71.2746 131.144 71.3506 130.992 71.3506C129.321 70.8947 127.725 70.3628 126.129 69.8309C124.534 69.299 122.938 68.6911 121.342 68.0833C121.19 68.0073 121.114 67.8553 121.19 67.7033C122.102 64.588 123.166 61.5486 124.154 58.5852Z" fill="#190032"/>
<path d="M139.807 64.284C138.971 67.2474 138.135 70.1348 137.223 73.0222L136.995 72.4903L146.949 75.8336L146.418 76.1375L148.849 66.8674L149.001 67.0954C145.734 66.2596 142.77 65.3477 139.807 64.284ZM139.427 63.6001C142.694 64.6639 145.886 65.8036 149.001 66.8674C149.077 66.8674 149.153 67.0194 149.153 67.0954L147.177 76.4415C147.101 76.6694 146.949 76.8214 146.721 76.7454H146.645L136.692 73.4021C136.464 73.3261 136.388 73.0982 136.464 72.8702C137.375 69.7548 138.363 66.6395 139.427 63.6001Z" fill="#190032"/>
<path d="M147.861 50.8351C146.721 50.4551 145.43 50.6831 144.442 51.367C143.454 52.0508 142.694 53.1146 142.314 54.2544C141.934 55.3941 141.934 56.6859 142.466 57.7496C142.998 58.8134 144.062 59.5733 145.202 59.9532C146.342 60.3331 147.633 60.3331 148.697 59.8012C149.761 59.1934 150.445 58.1296 150.749 56.9138C151.053 55.6981 150.977 54.4063 150.521 53.2666C149.989 52.0508 149.077 51.215 147.861 50.8351ZM148.089 50.2272C149.457 50.6831 150.521 51.7469 151.053 53.0386C151.584 54.3303 151.66 55.7741 151.357 57.0658C151.053 58.3575 150.217 59.6493 149.001 60.4091C147.785 61.169 146.19 61.093 144.898 60.713C143.606 60.3331 142.314 59.4213 141.707 58.1296C141.023 56.8378 141.099 55.3181 141.555 54.0264C142.01 52.7347 142.846 51.5189 144.062 50.7591C145.202 49.9232 146.797 49.7713 148.089 50.2272Z" fill="#190032"/>
<path d="M150.521 41.8687C148.165 46.1998 144.366 51.6707 144.214 53.9502C144.062 56.2297 152.648 57.1415 157.283 58.3573C156.599 51.5947 150.521 41.8687 150.521 41.8687Z" fill="#EBECFF"/>
<path d="M120.203 73.9341C120.583 74.0101 120.887 74.314 121.115 74.6179C121.343 74.9219 121.419 75.3018 121.571 75.6817C121.798 76.3656 121.95 77.0494 122.406 77.5054C122.634 77.6573 122.938 77.8093 123.242 77.8093C123.546 77.8093 123.85 77.6573 124.078 77.5054C124.61 77.1254 125.066 76.5935 125.826 76.2136C126.585 75.8337 127.573 75.9857 128.105 76.6695C128.637 77.3534 128.637 78.1132 128.865 78.7211C129.093 79.405 129.473 79.7849 130.005 79.8609C130.537 79.9369 131.069 79.4809 131.6 79.025C131.904 78.7971 132.132 78.5691 132.512 78.3412C132.816 78.1132 133.272 78.0372 133.728 78.0372C134.184 78.1132 134.564 78.2652 134.868 78.5691C135.172 78.8731 135.324 79.253 135.4 79.6329C135.628 80.3168 135.704 81.0766 136.084 81.5325C136.463 81.9884 137.147 82.1404 137.679 81.8365C138.211 81.5325 138.743 81.0006 139.351 80.5447C139.655 80.3168 140.035 80.1648 140.491 80.1648C140.947 80.1648 141.326 80.3168 141.63 80.6207C142.238 81.2286 142.314 81.9884 142.542 82.6723C142.694 83.3562 142.998 83.964 143.606 84.192C143.682 84.192 143.758 84.344 143.758 84.4199C143.758 84.4959 143.606 84.5719 143.53 84.5719C143.15 84.4199 142.77 84.192 142.618 83.8881C142.39 83.5841 142.314 83.2042 142.162 82.8243C141.934 82.1404 141.782 81.4566 141.326 81.0766C141.099 80.9247 140.795 80.7727 140.491 80.7727C140.187 80.7727 139.883 80.9247 139.655 81.0766C139.123 81.4566 138.667 81.9884 137.907 82.3684C137.223 82.7483 136.16 82.5963 135.628 81.9125C135.096 81.2286 135.096 80.4688 134.868 79.8609C134.64 79.177 134.26 78.7211 133.652 78.6451C133.12 78.5691 132.588 79.025 132.056 79.481C131.752 79.7089 131.524 79.9369 131.145 80.1648C130.841 80.3928 130.385 80.5447 129.929 80.4687C129.473 80.3928 129.093 80.2408 128.789 79.9369C128.485 79.6329 128.333 79.253 128.181 78.8731C127.953 78.1892 127.877 77.4294 127.497 76.9735C127.117 76.5176 126.509 76.3656 125.978 76.6695C125.446 76.9735 124.914 77.5054 124.306 77.8853C124.002 78.1132 123.622 78.2652 123.166 78.2652C122.786 78.2652 122.33 78.1132 122.026 77.8093C121.419 77.2014 121.343 76.4416 121.115 75.7577C120.963 75.0739 120.659 74.466 120.051 74.238C119.975 74.238 119.899 74.086 119.975 74.0101C120.051 74.0101 120.127 73.9341 120.203 73.9341Z" fill="#CCCEF0"/>
<path d="M117.848 82.9764C118.228 83.0524 118.531 83.2803 118.759 83.5842C118.987 83.8882 119.139 84.2681 119.215 84.572C119.443 85.2559 119.595 85.9398 120.051 86.3197C120.279 86.4717 120.583 86.5476 120.811 86.5476C121.115 86.5476 121.343 86.3957 121.571 86.2437C122.103 85.8638 122.559 85.3319 123.318 84.876C124.078 84.4201 125.218 84.648 125.75 85.3319C126.282 86.0917 126.358 86.8516 126.586 87.4595C126.814 88.0673 127.118 88.4473 127.65 88.5232C128.105 88.5992 128.561 88.2193 129.093 87.6874C129.397 87.4595 129.625 87.2315 130.005 87.0036C130.385 86.7756 130.841 86.6236 131.297 86.6996C131.753 86.7756 132.209 87.0036 132.513 87.3075C132.817 87.6874 132.969 88.0673 133.12 88.4473C133.348 89.2071 133.424 89.891 133.804 90.2709C133.956 90.4988 134.184 90.5748 134.412 90.6508C134.64 90.7268 134.868 90.6508 135.096 90.5748C135.628 90.3469 136.084 89.815 136.768 89.3591C137.072 89.1311 137.528 88.9792 137.983 88.9792C138.439 88.9792 138.895 89.1311 139.199 89.4351C139.503 89.739 139.731 90.1189 139.807 90.4988C139.959 90.8788 140.035 91.1827 140.111 91.5626C140.263 92.2465 140.491 92.8544 141.099 93.0823C141.175 93.1583 141.251 93.2343 141.251 93.3103C141.251 93.3863 141.099 93.4622 141.023 93.4622C140.643 93.3862 140.263 93.0823 140.035 92.7784C139.807 92.4744 139.655 92.0945 139.579 91.7146C139.351 91.0307 139.199 90.3469 138.743 90.0429C138.515 89.891 138.287 89.815 138.059 89.815C137.832 89.815 137.604 89.891 137.3 90.1189C136.768 90.4988 136.312 91.0307 135.552 91.4866C135.172 91.7146 134.64 91.7906 134.184 91.7146C133.728 91.6386 133.272 91.3347 132.969 91.0307C132.437 90.2709 132.361 89.511 132.133 88.9032C131.905 88.2953 131.601 87.9154 131.145 87.8394C130.689 87.7634 130.233 88.1433 129.701 88.5992C129.397 88.8272 129.169 89.0551 128.789 89.2831C128.409 89.511 127.954 89.663 127.498 89.587C127.042 89.511 126.586 89.2831 126.282 88.9792C125.978 88.5992 125.826 88.2193 125.674 87.8394C125.446 87.0795 125.37 86.3957 125.066 85.9398C124.762 85.5598 124.154 85.4079 123.698 85.6358C123.166 85.8638 122.711 86.4717 122.027 86.8516C121.723 87.0795 121.267 87.2315 120.811 87.2315C120.355 87.2315 119.975 87.0795 119.595 86.7756C118.987 86.1677 118.911 85.3319 118.759 84.648C118.607 83.9642 118.379 83.2803 117.696 83.0524C117.62 83.0524 117.62 82.9764 117.62 82.9004C117.772 82.9764 117.848 82.9764 117.848 82.9764Z" fill="#CCCEF0"/>
<path d="M97.5594 114.282C90.1889 117.017 58.9593 114.586 56.9077 112.154C82.8184 109.267 94.4441 110.635 97.5594 114.282Z" fill="#190032"/>
<path d="M66.0254 111.318L67.2411 120.437C75.2955 124.616 85.0215 127.503 96.4952 128.567C96.2672 123.172 95.8873 114.51 95.4314 111.242H66.0254V111.318Z" fill="#F7C663"/>
<path d="M42.5459 96.2734C49.3845 109.191 61.846 120.361 80.6141 125.755C80.1582 120.209 79.4744 113.978 78.4866 107.747L42.5459 96.2734Z" fill="#F7C663"/>
<path d="M77.4224 125.147C77.3465 123.628 77.4224 122.108 77.4224 120.664C77.4984 119.144 77.4984 117.625 77.6504 116.181C77.6504 116.029 77.8024 115.953 77.8783 115.953C77.9543 115.953 78.1063 116.029 78.1063 116.181C78.1823 117.701 78.1823 119.22 78.1823 120.664C78.1823 122.184 78.1063 123.704 78.0303 125.147C78.0303 125.299 77.8784 125.375 77.7264 125.375C77.4984 125.375 77.4224 125.299 77.4224 125.147Z" fill="#190032"/>
<path d="M78.2583 68.8429C80.7658 68.9949 83.9571 65.1197 86.2367 66.2595C94.1391 70.2107 96.4186 83.356 99.8379 87.8391C100.066 97.793 91.3276 95.7414 91.3276 95.7414L78.2583 68.8429Z" fill="#8181F2"/>
<path d="M98.1667 93.8417C96.723 87.0031 94.6714 79.2527 92.3919 72.49C90.9481 70.2105 89.2765 68.1589 87.1489 66.8672C90.5682 74.6176 93.6076 86.1673 95.5832 95.5893C96.571 95.2094 97.4828 94.6775 98.1667 93.8417Z" fill="#6459E5"/>
<path d="M97.5584 114.282C93.6072 91.0306 88.4403 67.3994 86.2367 66.2597C83.9572 65.0439 79.0942 63.6762 76.0548 63.0683C70.432 62.0045 66.0249 61.3967 63.2134 61.2447C60.63 61.0927 49.6122 82.4444 46.8008 103.264C49.1563 106.455 51.8917 109.419 55.0071 112.154C64.4292 113.522 89.0482 109.571 97.5584 114.282Z" fill="#8181F2"/>
<path d="M84.8693 65.6514C84.1854 65.3475 83.4256 65.1195 82.5897 64.8156C82.2858 64.7396 82.0578 64.6636 81.7539 64.5876C84.3374 78.4168 85.4771 97.6409 85.8571 112.002C86.7689 112.002 87.7567 112.154 88.6685 112.154C88.2886 98.1728 87.2248 79.4806 84.8693 65.6514Z" fill="#6459E5"/>
<path d="M74.9915 62.8402C74.5356 62.7642 74.0037 62.6882 73.5478 62.6122C73.0919 62.5362 72.636 62.4603 72.1801 62.3843C71.4202 67.2473 70.3564 75.7575 68.9887 87.0033C68.0769 94.3738 67.0131 102.96 65.7974 112.382C66.7092 112.382 67.697 112.306 68.6848 112.306C69.9005 103.036 70.9643 94.6777 71.8761 87.3832C73.0919 76.4414 74.2316 67.7032 74.9915 62.8402Z" fill="#6459E5"/>
<path d="M55.9194 91.1066L53.184 90.1948C51.9682 95.1338 50.8285 99.9208 49.9167 104.252C49.7647 105.012 49.6127 105.696 49.3848 106.456C50.1446 107.291 50.9045 108.203 51.7403 108.963C52.0442 107.671 52.3482 106.304 52.6521 104.86C53.6399 100.681 54.7037 95.9696 55.9194 91.1066Z" fill="#6459E5"/>
<path d="M60.9341 78.1892C60.7061 87.0034 59.1104 95.4377 60.2502 97.4133C55.0833 97.7172 51.8159 95.6656 51.8159 95.6656L60.9341 78.1892Z" fill="#190032"/>
<path d="M75.8264 103.644C77.726 103.948 84.4886 103.568 87.8319 102.428C89.3516 101.897 90.6434 100.909 90.9473 100.301C85.0965 100.301 75.0665 100.301 75.0665 100.301L74.6866 97.9454C65.3405 99.4651 56.0704 97.1095 56.0704 97.1095C56.6023 93.8422 57.5901 91.3347 57.5901 91.3347L49.4598 90.3469C48.32 94.5261 47.4082 98.8572 46.8003 103.188C47.9401 104.708 49.0798 106.152 50.3716 107.519C59.8696 108.431 72.787 104.556 75.8264 103.644Z" fill="#190032"/>
<path d="M95.1263 100.301C94.9743 99.3889 94.7464 98.4011 94.5944 97.4893C94.5184 97.4893 94.4424 97.4893 94.3665 97.4893C92.0869 97.4893 82.2849 97.4893 79.0176 97.4893V100.149C79.0176 100.149 89.7314 100.301 93.3787 100.225C93.3787 100.301 93.9865 100.301 95.1263 100.301Z" fill="#190032"/>
<path d="M96.1907 108.051L92.5435 90.1187C91.9356 87.1553 91.3277 84.116 90.6439 81.1526C89.96 78.1892 89.3521 75.2258 88.5923 72.2624C88.5923 72.1864 88.5923 72.0344 88.7443 72.0344C88.8202 72.0344 88.9722 72.0344 88.9722 72.1864C89.884 75.0738 90.7199 78.0372 91.4037 81.0006C92.0876 83.964 92.7714 86.9274 93.3793 89.9668C93.9872 92.9302 94.5951 95.9695 95.127 98.9329C95.6588 101.972 96.1907 104.936 96.6466 107.975C96.6466 108.051 96.5707 108.203 96.4947 108.203C96.2667 108.203 96.1907 108.127 96.1907 108.051Z" fill="#190032"/>
<path d="M71.6481 63.752C67.3169 64.9678 68.3807 69.2989 75.5992 72.0343C82.5138 74.6178 86.0851 70.8946 84.7174 67.7032C83.8056 65.6516 76.4351 62.3083 71.6481 63.752Z" fill="white"/>
<path d="M81.0701 50.3025C79.4745 54.6336 78.6386 56.6092 76.663 59.1927C74.6874 61.7762 73.9276 63.5238 72.3319 64.0557C68.4567 65.1955 70.6603 68.6907 75.4473 70.5144C82.5898 73.2498 85.8572 69.5266 83.5776 66.4872C84.1095 61.6242 86.617 57.9009 86.617 57.9009L81.0701 50.3025Z" fill="#FCB1D0"/>
<path d="M81.6019 51.0623C81.146 51.8981 81.3739 53.1138 81.146 54.4056L81.222 59.8765C81.8299 61.1682 83.2736 61.928 84.4893 62.232C85.4011 59.5725 86.5409 57.8249 86.5409 57.8249L81.6019 51.0623Z" fill="#190032"/>
<path d="M84.9456 47.1873C82.5141 47.1873 80.9184 48.9349 80.3105 52.6581L80.9944 58.281C81.9062 60.0286 84.1858 60.8645 85.5535 60.8645C87.2251 60.8645 89.9606 54.1778 89.9606 51.6703C89.9606 49.0869 87.5291 47.1873 84.9456 47.1873Z" fill="#FCB1D0"/>
<path d="M81.0702 58.2049C81.7541 59.2687 82.8938 59.9526 84.1096 60.3325C84.4135 60.4085 84.7175 60.4845 85.0214 60.5605C85.1734 60.5605 85.3253 60.5605 85.4773 60.5605C85.5533 60.5605 85.6293 60.5605 85.6293 60.5605C85.7053 60.5605 85.7053 60.5605 85.7812 60.4845C86.2372 60.2565 86.6171 59.6486 86.997 59.1927C87.6809 58.129 88.2128 56.9132 88.6687 55.7734C89.1246 54.5577 89.5045 53.3419 89.6565 52.0502C89.8084 50.8344 89.2765 49.6187 88.3647 48.7829C87.4529 47.947 86.2372 47.4911 85.0214 47.4911C83.8056 47.4911 82.5899 48.099 81.906 49.1628C81.2222 50.2266 80.8423 51.4423 80.6143 52.7341C80.6143 52.81 80.4623 52.886 80.3863 52.886C80.3104 52.886 80.2344 52.7341 80.2344 52.6581C80.4623 51.3663 80.7663 50.0746 81.5261 48.9348C81.906 48.4029 82.3619 47.871 82.9698 47.4911C83.5777 47.1112 84.2616 46.9592 84.9454 46.9592C86.3131 46.9592 87.6809 47.4151 88.7446 48.3269C89.8084 49.2388 90.4163 50.6065 90.2643 52.0502C90.1124 53.4179 89.7324 54.6337 89.2765 55.9254C88.8206 57.1412 88.2887 58.3569 87.5289 59.4967C87.149 60.0286 86.769 60.6364 86.0852 61.0164C86.0092 61.0923 85.8572 61.0923 85.7812 61.0923C85.7053 61.0923 85.5533 61.0923 85.4773 61.0923C85.3253 61.0923 85.0974 61.0923 84.9454 61.0164C84.6415 60.9404 84.2616 60.8644 83.9576 60.7884C82.6659 60.3325 81.4501 59.4967 80.9182 58.2809C80.9182 58.2049 80.9182 58.2049 80.9942 58.129C80.9942 58.129 81.0702 58.129 81.0702 58.2049Z" fill="#190032"/>
<path d="M80.0063 53.1141C80.8421 52.6582 81.45 51.9743 81.602 51.5184C81.7539 51.0625 81.374 50.0747 82.3618 49.6948C83.3496 49.3909 82.8177 51.5944 82.8177 52.0503C82.8177 52.5062 83.1976 52.2783 83.5016 51.2905C83.8055 50.3027 84.7933 48.935 85.0213 49.3909C85.1732 49.8468 87.4528 50.1507 88.5925 50.1507C89.7323 50.1507 90.6441 52.4303 92.2398 50.9106C93.9114 49.3909 90.6441 46.1235 88.9724 46.3515C87.2248 46.5794 83.0457 44.8318 82.5138 46.5035C81.526 46.8834 80.9181 47.0354 80.5382 48.555C80.2342 49.6948 79.8543 52.5822 80.0063 53.1141Z" fill="#190032"/>
<path d="M112.832 66.5633C112.528 67.855 111.92 68.9948 111.464 69.6787C110.628 69.2987 109.413 63.8278 109.337 61.9282C109.109 61.7763 108.957 61.6243 108.881 61.4723C108.577 60.7885 110.704 59.3448 111.236 59.1928C112.148 58.8129 112.376 59.7247 112.072 59.9526C113.06 59.4207 113.364 60.2566 112.908 60.7125C113.744 60.5605 113.668 61.4723 113.516 61.7003C113.972 61.3204 114.579 61.9282 114.352 62.2322C113.972 62.8401 113.592 63.5239 113.364 63.9038C113.06 64.3597 113.06 65.8035 112.832 66.5633Z" fill="#FCB1D0"/>
<path d="M106.069 61.3962C105.233 61.6242 104.625 61.7762 104.549 61.8521C104.397 62.0041 104.777 63.8277 105.005 63.8277C105.081 63.8277 105.689 63.6758 106.601 63.3718C106.449 62.688 106.221 61.9281 106.069 61.3962Z" fill="#CCCEF0"/>
<path d="M114.959 58.9648C114.883 58.9648 108.576 60.7125 106.069 61.3963C106.297 61.9282 106.449 62.7641 106.601 63.3719C109.26 62.5361 115.643 60.5605 115.643 60.4845C115.643 60.3326 115.035 58.9648 114.959 58.9648Z" fill="#A77CFF"/>
<path d="M114.959 58.9647C115.415 58.8127 116.555 58.9647 116.631 59.0407C116.707 59.1167 115.795 60.3324 115.643 60.4084C115.491 60.4844 115.035 60.1804 115.035 60.1804C115.035 60.1804 115.263 59.6485 115.263 59.5726C115.263 59.4966 114.807 59.4966 114.807 59.4206C114.731 59.4206 114.959 58.9647 114.959 58.9647Z" fill="#CCCEF0"/>
<path d="M114.807 59.1166C114.047 59.2686 113.363 59.4966 112.603 59.7245L110.4 60.3324L106.069 61.5481L106.221 61.3202C106.449 62.004 106.601 62.6119 106.753 63.2958L106.525 63.1438L111.008 61.7761C112.527 61.3202 114.047 60.8643 115.491 60.3324C115.567 60.3324 115.643 60.3324 115.643 60.4084C115.643 60.4843 115.643 60.5603 115.567 60.5603C114.047 61.0922 112.603 61.5481 111.084 62.08L106.601 63.5237C106.525 63.5237 106.373 63.5237 106.373 63.3718C106.221 62.6879 106.069 62.08 105.841 61.3962C105.841 61.3202 105.841 61.1682 105.993 61.1682L110.4 60.0284L112.603 59.4966C113.363 59.2686 114.047 59.1166 114.807 58.8887C114.883 58.8887 114.883 58.8887 114.883 58.9647C114.883 59.0406 114.883 59.1166 114.807 59.1166C114.883 59.1166 114.883 59.1166 114.807 59.1166Z" fill="#190032"/>
<path d="M97.7871 88.9788C104.322 77.3532 106.373 70.4386 106.601 68.7669C106.829 67.0952 108.045 62.4602 108.653 61.0925C109.109 59.9527 110.021 60.7125 109.869 62.0043C109.793 62.6881 109.565 63.296 109.717 63.8279C110.932 64.7397 110.856 66.4114 111.312 66.7153C112.072 67.2472 112.072 67.1712 111.692 69.2228C110.704 72.6421 107.741 87.915 107.741 87.915L97.7871 88.9788Z" fill="#FCB1D0"/>
<path d="M100.371 83.9636C101.282 81.7601 102.27 79.5565 103.258 77.353C104.246 75.1494 105.158 72.9459 105.841 70.6664C105.993 70.1345 106.221 69.5266 106.297 68.9187C106.373 68.3108 106.525 67.703 106.677 67.1711C106.981 65.9553 107.285 64.8156 107.589 63.6758C107.741 63.0679 107.969 62.536 108.121 61.9281C108.197 61.6242 108.349 61.3203 108.425 61.0923C108.577 60.7884 108.729 60.4084 109.185 60.4084C109.413 60.4084 109.565 60.5604 109.717 60.6364C109.869 60.7884 109.869 60.9403 109.945 61.0923C110.021 61.3962 110.021 61.7762 110.021 62.0801C110.021 62.384 109.945 62.688 109.869 62.9919C109.869 63.2959 109.869 63.5238 109.869 63.8278L109.793 63.6758C110.401 64.2837 110.705 65.0435 110.932 65.7274C110.932 65.8033 110.932 65.8793 110.856 65.9553C110.78 65.9553 110.705 65.9553 110.629 65.8793C110.553 65.4994 110.401 65.1955 110.249 64.8915C110.097 64.5876 109.793 64.2837 109.489 64.1317L109.413 64.0557V63.9797C109.261 63.6758 109.337 63.2959 109.413 62.9919C109.489 62.688 109.565 62.384 109.641 62.0801C109.717 61.7762 109.717 61.5482 109.641 61.2443C109.565 61.0163 109.413 60.7124 109.261 60.7124C109.033 60.7124 108.881 60.9403 108.805 61.2443C108.729 61.5482 108.577 61.7762 108.501 62.0801C108.349 62.688 108.121 63.2199 107.969 63.8278C107.665 64.9675 107.361 66.1833 107.133 67.323C106.981 67.9309 106.905 68.4628 106.829 69.0707C106.753 69.6786 106.601 70.2864 106.373 70.8943C105.69 73.2498 104.854 75.5294 103.866 77.7329C102.878 79.9365 101.814 82.14 100.523 84.1916C100.447 84.2676 100.371 84.2676 100.371 84.2676C100.371 84.1156 100.371 84.0396 100.371 83.9636Z" fill="#190032"/>
<path d="M40.5698 89.0546C42.7734 93.4617 57.3624 94.3735 59.186 91.714C57.2864 87.7628 42.9253 86.2432 40.5698 89.0546Z" fill="#190032"/>
<path d="M75.0668 98.0969L74.6869 95.7414C65.3408 97.261 56.0707 94.9055 56.0707 94.9055C56.6026 91.6382 57.5904 89.1307 57.5904 89.1307L42.7734 87.3831C41.4817 92.1701 41.6336 103.036 45.8888 104.48C55.0829 107.671 72.3314 102.58 75.9027 101.516C77.8023 101.82 84.5649 101.44 87.9082 100.3C89.4279 99.7685 90.7196 98.7807 91.0236 98.1729C85.0968 98.0969 75.0668 98.0969 75.0668 98.0969Z" fill="#FCB1D0"/>
<path d="M56.4506 93.0057C56.9825 90.7262 57.5904 89.0545 57.5904 89.0545L42.7734 87.3069C42.4695 88.3707 42.2415 89.7384 42.1655 91.1821C46.8766 90.5742 53.4112 92.6258 56.4506 93.0057Z" fill="#190032"/>
<path d="M91.4033 95.5135C93.3029 93.9178 106.372 78.417 106.904 78.341C108.044 78.265 125.9 78.037 126.508 78.417C126.736 78.5689 110.779 95.7414 110.779 95.7414L91.4033 95.5135Z" fill="white"/>
<path d="M93.835 95.5135C95.7346 93.9178 108.804 78.417 109.336 78.341C110.476 78.265 128.332 78.037 128.94 78.417C129.168 78.5689 113.211 95.7414 113.211 95.7414L93.835 95.5135Z" fill="#EA6595"/>
<path d="M94.3669 95.2856C95.5826 95.1336 113.743 95.2856 114.199 95.2856C114.655 95.2856 115.111 97.5651 113.743 97.869C112.299 98.173 93.4551 98.097 93.4551 98.097L94.3669 95.2856Z" fill="#190032"/>
<path d="M79.0181 95.2854C82.5893 95.2854 93.835 95.2854 94.8228 95.2854C95.8106 95.2854 95.3547 97.7169 94.5949 97.9449C93.835 98.1728 79.0181 97.9449 79.0181 97.9449V95.2854Z" fill="#EA6595"/>
<path d="M79.0181 95.2854C82.5893 95.2854 93.835 95.2854 94.8228 95.2854C95.8106 95.2854 95.3547 97.7169 94.5949 97.9449C93.835 98.1728 79.0181 97.9449 79.0181 97.9449V95.2854Z" stroke="#190032" stroke-width="0.379923" stroke-miterlimit="10" stroke-linecap="round" stroke-linejoin="round"/>
<path d="M112.527 85.4835C110.932 85.3316 107.056 87.6111 109.792 89.1308C112.451 90.6505 116.554 85.9394 112.527 85.4835Z" fill="white"/>
<path d="M71.6475 100.148L74.6868 95.7411C76.8904 95.3612 78.1061 94.7533 79.2459 94.5254C80.9176 94.2214 82.6652 94.3734 86.3125 93.1577C87.7562 92.7018 87.6802 94.6014 86.6164 95.1333C85.5526 95.6651 83.501 95.6651 82.6652 96.9569C82.2093 97.7167 83.2731 98.2486 83.2731 98.2486L74.2309 100.224L71.6475 100.148Z" fill="#FCB1D0"/>
<path d="M76.0553 95.2855C76.8151 95.0575 77.575 94.7536 78.3348 94.4497C79.1707 94.1457 80.0065 94.0697 80.7663 93.9938C82.362 93.8418 83.9577 93.5378 85.5534 93.0819L86.1612 92.93C86.3892 92.854 86.6171 92.778 86.9211 92.854C87.225 92.93 87.453 93.1579 87.529 93.3859C87.6049 93.6138 87.6049 93.9178 87.529 94.1457C87.453 94.6016 87.149 95.0575 86.6931 95.2855C86.3132 95.5134 85.8573 95.5894 85.4774 95.6654C84.7175 95.8934 83.8817 96.0453 83.2738 96.5012C82.9699 96.7292 82.6659 97.0331 82.59 97.3371C82.514 97.641 82.8939 97.9449 83.1978 98.1729C83.2738 98.1729 83.2738 98.2489 83.2738 98.3249C83.2738 98.4009 83.1978 98.4009 83.1218 98.4009C82.8939 98.3249 82.7419 98.1729 82.59 98.0209C82.438 97.869 82.286 97.641 82.362 97.3371C82.362 97.1091 82.514 96.8812 82.6659 96.7292C82.8179 96.5772 82.9699 96.4253 83.1218 96.2733C83.8057 95.7414 84.6415 95.5134 85.4774 95.3615C85.8573 95.2855 86.2372 95.1335 86.5412 94.9815C86.8451 94.8296 87.073 94.5256 87.073 94.1457C87.149 93.7658 86.9971 93.4619 86.7691 93.4619C86.6171 93.4619 86.4652 93.4619 86.3132 93.5378L85.7053 93.6898C84.1096 94.1457 82.514 94.5256 80.8423 94.6776C80.0065 94.7536 79.2466 94.8296 78.4868 95.0575C77.7269 95.2855 76.8911 95.5134 76.1313 95.6654C76.0553 95.6654 75.9793 95.5894 75.9033 95.5134C75.9033 95.3615 75.9793 95.2855 76.0553 95.2855Z" fill="#190032"/>
<path d="M49.7638 67.1712C47.3323 70.7424 41.1775 85.6354 40.4937 89.0547C45.5846 86.1673 56.5264 92.0181 58.9579 91.7142C61.3894 81.7602 61.0095 77.1251 61.0095 77.1251L63.137 61.2444C54.3988 60.9404 52.1953 63.5999 49.7638 67.1712Z" fill="#8181F2"/>
<path d="M51.8911 64.4356C48.5478 71.1982 45.3564 79.1006 42.7729 88.2947C43.6848 88.1428 44.6726 88.1428 45.7363 88.2947C48.6997 77.8089 52.575 68.9947 56.4502 61.7761C54.3986 62.384 53.0309 63.2958 51.8911 64.4356Z" fill="#6459E5"/>
<path d="M63.2128 61.1682C62.9088 61.1682 62.6809 61.1682 62.3769 61.1682C58.6537 69.8304 55.6903 80.3163 53.2588 90.1943L55.9942 91.1061C58.5017 80.9242 61.6171 70.1344 65.4163 61.3962C64.5805 61.3202 63.8206 61.2442 63.2128 61.1682Z" fill="#6459E5"/>
<path d="M56.2984 62.0801C55.0066 62.46 53.7909 63.0679 52.8031 63.9037C51.8153 64.7396 50.9794 65.8034 50.2196 66.9431C48.6999 69.1467 47.6361 71.6542 46.4964 74.0857C45.3566 76.5172 44.3688 79.0247 43.381 81.5322C42.9251 82.7479 42.3932 84.0396 41.9373 85.3314C41.4814 86.6231 41.0255 87.8389 40.7215 89.1306L40.4176 88.9027C41.8613 88.0668 43.6089 87.9908 45.2046 88.0668C46.8003 88.1428 48.396 88.5227 49.9157 88.9027C51.4353 89.2826 52.955 89.8145 54.4747 90.2704C55.2346 90.4983 55.9944 90.7263 56.7543 90.9542C57.1342 91.0302 57.5141 91.1822 57.894 91.2582C58.274 91.3342 58.6539 91.4101 58.9578 91.3342L58.5779 91.6381C59.1858 89.2826 59.7177 86.8511 60.0976 84.4196C60.4775 81.9881 60.7055 79.5566 60.8574 77.125C60.8574 77.0491 60.9334 76.9731 61.0854 76.9731C61.1614 76.9731 61.2374 77.0491 61.2374 77.201C61.2374 79.7085 61.0094 82.14 60.7055 84.5715C60.4015 87.003 59.9456 89.5105 59.4137 91.866C59.3377 92.018 59.2618 92.17 59.0338 92.17C58.5019 92.246 58.122 92.094 57.7421 92.018C57.3621 91.942 56.9822 91.7901 56.5263 91.7141C55.7665 91.4861 55.0066 91.1822 54.2468 90.9542C52.7271 90.4223 51.2074 89.8905 49.6877 89.5105C48.168 89.0546 46.6483 88.7507 45.0526 88.5987C43.533 88.4467 41.8613 88.5227 40.4936 89.2826C40.4176 89.3586 40.2656 89.2826 40.2656 89.2066C40.2656 89.1306 40.2656 89.1306 40.2656 89.0546C40.5696 87.6869 41.0255 86.4711 41.4814 85.1794C41.9373 83.8877 42.3932 82.6719 42.9251 81.3802C43.9129 78.8727 44.9767 76.3652 46.0404 73.9337C47.1802 71.5022 48.244 68.9947 49.7637 66.7152C50.5235 65.5754 51.3594 64.5116 52.4231 63.5998C53.4869 62.688 54.7787 62.0801 56.0704 61.7002C56.1464 61.7002 56.2984 61.7002 56.2984 61.8522C56.2984 62.0041 56.3743 62.0041 56.2984 62.0801Z" fill="#190032"/>
<path d="M129.245 25.6079L128.789 33.4343C128.789 33.5863 128.637 33.7382 128.485 33.7382C128.333 33.7382 128.181 33.5863 128.181 33.4343L128.105 25.6079C128.105 25.3039 128.333 25 128.637 25C128.941 25 129.245 25.3039 129.245 25.6079Z" fill="#190032"/>
<path d="M120.962 27.0516L124.458 34.65C124.533 34.802 124.458 34.954 124.306 35.03C124.154 35.106 124.002 35.03 124.002 34.954L119.974 27.6595C119.822 27.3555 119.898 27.0516 120.202 26.8996C120.506 26.7477 120.81 26.7477 120.962 27.0516Z" fill="#190032"/>
<path d="M115.643 34.194L121.646 36.7775C121.722 36.7775 121.722 36.9295 121.722 37.0055C121.722 37.0815 121.646 37.0815 121.57 37.0815L115.263 35.3338C114.959 35.2578 114.807 34.9539 114.883 34.65C114.959 34.27 115.339 34.1181 115.643 34.194Z" fill="#190032"/>
<path d="M99.5345 39.5889C99.6105 41.0326 99.3825 42.5523 99.5345 44.072" stroke="#CCCEF0" stroke-width="0.569884" stroke-miterlimit="10" stroke-linecap="round" stroke-linejoin="round"/>
<path d="M101.738 42.0203C100.978 42.1723 100.218 42.1723 99.4585 42.0963L97.255 41.9443C97.179 41.9443 97.103 41.8683 97.103 41.7924C97.103 41.7164 97.179 41.6404 97.255 41.6404C98.0148 41.4884 98.7747 41.5644 99.5345 41.5644L101.738 41.7164C101.814 41.7164 101.89 41.7924 101.89 41.8683C101.89 41.9443 101.814 42.0203 101.738 42.0203Z" fill="#CCCEF0"/>
<path d="M53.944 48.7072C53.2601 48.7072 52.5763 48.7832 52.0444 49.1631C51.5125 49.543 51.2085 50.1509 51.2085 50.8348C51.2085 51.5186 51.4365 52.2025 51.8924 52.7344C52.3483 53.2663 52.9562 53.5702 53.64 53.6462C54.3239 53.7222 55.0078 53.5702 55.5397 53.1143C55.9956 52.6584 56.2995 51.9745 56.2995 51.2907C56.2995 50.6068 56.0715 49.9229 55.6916 49.467C55.2357 48.9351 54.6278 48.7072 53.944 48.7072ZM53.944 48.1753C54.7038 48.1753 55.5397 48.5552 55.9956 49.1631C56.4515 49.771 56.6794 50.6068 56.6034 51.3666C56.5275 52.1265 56.2235 52.8863 55.6916 53.4182C55.0837 53.9501 54.3239 54.1021 53.5641 54.0261C52.0444 53.8741 50.8286 52.5064 50.8286 50.9107C50.8286 50.1509 51.1326 49.3151 51.8164 48.8592C52.4243 48.3273 53.2601 48.1753 53.944 48.1753Z" fill="#CCCEF0"/>
<path d="M120.659 112.534C120.203 112.534 119.747 112.686 119.367 112.914C118.987 113.218 118.835 113.598 118.835 114.054C118.835 114.89 119.595 115.725 120.431 115.801C120.887 115.877 121.267 115.801 121.57 115.497C121.874 115.27 122.102 114.814 122.102 114.358C122.102 113.902 122.026 113.446 121.798 113.066C121.57 112.762 121.115 112.534 120.659 112.534ZM120.659 112.306C121.191 112.306 121.722 112.534 122.102 112.914C122.482 113.37 122.634 113.902 122.634 114.434C122.634 114.966 122.406 115.573 122.026 115.953C121.57 116.333 120.963 116.485 120.431 116.409C119.899 116.333 119.367 116.029 118.987 115.649C118.607 115.194 118.455 114.662 118.455 114.13C118.455 113.598 118.759 112.99 119.215 112.686C119.595 112.306 120.127 112.306 120.659 112.306Z" fill="#CCCEF0"/>
</svg>
