<svg width="102" height="138" viewBox="0 0 102 138" fill="none" xmlns="http://www.w3.org/2000/svg">
<path d="M5.11892 4.33692L110.881 0.00284099C113.31 -0.0838406 115.393 1.82315 115.393 4.33692L116 133.666C116 136.093 114.091 138 111.662 138H4.33807C1.90875 138 0 136.006 0 133.666L1.04114 8.671C0.954374 6.3306 2.86313 4.4236 5.11892 4.33692Z" fill="#3E8AE5"/>
<path d="M28.024 17.8592C28.4578 26.354 28.7181 34.9355 28.9784 43.4303C29.2386 51.9251 29.4122 60.5066 29.4989 69.0014C29.6725 77.4962 29.6725 86.0777 29.6725 94.5725C29.6725 98.8199 29.5857 103.067 29.3254 107.401C29.1519 111.649 28.8048 115.896 28.2843 120.23C28.1975 120.837 27.6769 121.27 27.0696 121.184C26.549 121.097 26.202 120.75 26.1152 120.23C25.5947 115.983 25.2476 111.735 25.0741 107.401C24.9006 103.154 24.8138 98.9066 24.7271 94.5725C24.8138 86.0777 24.8138 77.4962 24.9006 69.0014C24.9873 60.5066 25.1609 51.9251 25.4211 43.4303C25.6814 34.9355 25.9417 26.354 26.3755 17.8592C26.3755 17.4258 26.7226 17.0791 27.1564 17.1658C27.6769 17.1658 28.024 17.4258 28.024 17.8592Z" fill="#F7C363"/>
<path d="M12.2333 94.3991C19.8683 92.5788 27.5033 93.3589 35.1383 93.2722C42.7733 93.3589 50.4083 93.4456 58.0433 93.619C65.6783 93.7923 73.3134 93.9657 80.9484 94.139C84.7659 94.2257 88.5834 94.3991 92.4009 94.4858C96.2184 94.5724 100.036 94.7458 103.853 94.9192C104.2 94.9192 104.461 95.1792 104.374 95.526C104.374 95.786 104.114 96.046 103.853 96.046C100.036 96.2194 96.2184 96.3928 92.4009 96.4794C88.5834 96.5661 84.7659 96.7395 80.9484 96.8262C73.3134 97.0862 65.6783 97.1729 58.0433 97.3463C50.4083 97.4329 42.7733 97.6063 35.1383 97.693C27.5033 97.6063 19.8683 98.3864 12.2333 96.5661C11.626 96.3928 11.1922 95.786 11.3657 95.0925C11.4525 94.8325 11.7995 94.4858 12.2333 94.3991Z" fill="#F7C363"/>
<path d="M36.7866 84.1707L48.6729 52.0118C49.1067 50.8849 50.3214 50.3648 51.4493 50.7115C51.8831 50.8849 52.1434 51.1449 52.4037 51.405L52.4904 51.4917L67.0664 70.5616L64.0297 70.8217L92.4007 22.9734C92.4874 22.8001 92.7477 22.7134 93.008 22.8001C93.1815 22.8867 93.2683 23.1468 93.1815 23.4068L67.2399 72.5553C66.8061 73.4221 65.6782 73.7689 64.8106 73.3355C64.637 73.2488 64.3767 73.0754 64.29 72.902L64.2032 72.8154L49.02 54.1788L52.7507 53.6587L37.6542 84.5174C37.5675 84.6907 37.3072 84.8641 37.0469 84.6908C36.8734 84.6041 36.7866 84.344 36.7866 84.1707Z" fill="#F7C363"/>
</svg>
