<svg width="128" height="24" viewBox="0 0 128 24" fill="none" xmlns="http://www.w3.org/2000/svg">
<path d="M14.7501 1.80438V15.9182C14.7501 18.3158 14.1172 20.1493 12.8515 21.4186C11.6053 22.688 9.88203 23.3226 7.68172 23.3226C5.34507 23.3226 3.47576 22.6476 2.07377 21.2977C0.691258 19.9478 0 18.0035 0 15.4649H5.66636C5.68584 17.1371 6.27973 17.9733 7.44805 17.9733C8.49954 17.9733 9.02529 17.2882 9.02529 15.9182V1.80438H14.7501Z" fill="#365BBD"/>
<path d="M17.8164 14.6187C17.8164 12.8658 18.1182 11.3345 18.7219 10.0249C19.3449 8.71525 20.1823 7.70785 21.2337 7.00265C22.3047 6.29747 23.4925 5.94489 24.7971 5.94489C25.9265 5.94489 26.9001 6.17658 27.7179 6.64C28.5358 7.1034 29.1685 7.728 29.6165 8.51377V6.15643H35.3412V23.1111H29.6165V20.7538C29.1685 21.5396 28.526 22.1641 27.6887 22.6276C26.8709 23.091 25.907 23.3227 24.7971 23.3227C23.4925 23.3227 22.3047 22.9701 21.2337 22.2649C20.1823 21.5597 19.3449 20.5523 18.7219 19.2427C18.1182 17.9129 17.8164 16.3716 17.8164 14.6187ZM29.6165 14.6187C29.6165 13.5307 29.3244 12.6743 28.7402 12.0498C28.1755 11.4252 27.4745 11.1129 26.6372 11.1129C25.7804 11.1129 25.0697 11.4252 24.5051 12.0498C23.9403 12.6542 23.658 13.5105 23.658 14.6187C23.658 15.7067 23.9403 16.573 24.5051 17.2178C25.0697 17.8423 25.7804 18.1547 26.6372 18.1547C27.4745 18.1547 28.1755 17.8423 28.7402 17.2178C29.3244 16.5932 29.6165 15.7268 29.6165 14.6187Z" fill="#365BBD"/>
<path d="M38.2529 14.6187C38.2529 12.8658 38.6034 11.3345 39.3044 10.0249C40.0054 8.71525 40.9791 7.70785 42.2252 7.00265C43.491 6.29747 44.9319 5.94489 46.548 5.94489C48.6316 5.94489 50.3841 6.53925 51.8055 7.728C53.227 8.89656 54.1421 10.5387 54.551 12.6542H48.4757C48.1253 11.5461 47.4438 10.992 46.4312 10.992C45.7108 10.992 45.1363 11.3043 44.7079 11.9289C44.299 12.5334 44.0945 13.4299 44.0945 14.6187C44.0945 15.8074 44.299 16.7141 44.7079 17.3387C45.1363 17.9632 45.7108 18.2756 46.4312 18.2756C47.4633 18.2756 48.1448 17.7214 48.4757 16.6134H54.551C54.1421 18.7087 53.227 20.3508 51.8055 21.5396C50.3841 22.7283 48.6316 23.3227 46.548 23.3227C44.9319 23.3227 43.491 22.9701 42.2252 22.2649C40.9791 21.5597 40.0054 20.5523 39.3044 19.2427C38.6034 17.933 38.2529 16.3917 38.2529 14.6187Z" fill="#365BBD"/>
<path d="M67.7652 23.1111L63.238 16.1599V23.1111H57.5132V0.746582H63.238V12.8053L67.7652 6.15635H74.6291L68.1741 14.6791L74.7459 23.1111H67.7652Z" fill="#365BBD"/>
<path d="M92.6645 14.4373C92.6645 14.9007 92.6353 15.3641 92.5769 15.8275H81.7406C81.799 16.7543 82.0424 17.4494 82.4708 17.9129C82.9186 18.3561 83.4833 18.5777 84.1649 18.5777C85.1189 18.5777 85.8005 18.1344 86.2095 17.248H92.314C92.0606 18.4165 91.564 19.4642 90.8244 20.3911C90.1036 21.2977 89.1887 22.0129 88.0788 22.5369C86.9689 23.0607 85.7421 23.3226 84.3985 23.3226C82.7823 23.3226 81.3414 22.97 80.0757 22.2649C78.8295 21.5596 77.8461 20.5522 77.1257 19.2426C76.4247 17.9329 76.0742 16.3916 76.0742 14.6186C76.0742 12.8456 76.4247 11.3143 77.1257 10.0249C77.8267 8.71519 78.8003 7.70778 80.0465 7.00259C81.3122 6.29741 82.7629 5.94482 84.3985 5.94482C86.0145 5.94482 87.4457 6.28734 88.6922 6.97238C89.9387 7.65741 90.912 8.64467 91.613 9.93418C92.314 11.2035 92.6645 12.7045 92.6645 14.4373ZM86.8229 12.9564C86.8229 12.2311 86.5892 11.6669 86.1219 11.264C85.6545 10.8409 85.0703 10.6293 84.3693 10.6293C83.6683 10.6293 83.0939 10.8307 82.646 11.2337C82.1981 11.6165 81.906 12.1907 81.7698 12.9564H86.8229Z" fill="#365BBD"/>
<path d="M105.259 18.0639V23.1111H102.776C98.5898 23.1111 96.4963 20.9653 96.4963 16.6737V11.0826H94.481V6.15636H96.4963V2.04614H102.25V6.15636H105.23V11.0826H102.25V16.7644C102.25 17.2278 102.347 17.5602 102.542 17.7617C102.756 17.9631 103.107 18.0639 103.594 18.0639H105.259Z" fill="#365BBD"/>
<path d="M118.137 18.064V23.1111H115.654C111.467 23.1111 109.375 20.9653 109.375 16.6738V11.0827H107.359V6.15642H109.375V2.0462H115.129V6.15642H118.108V11.0827H115.129V16.7645C115.129 17.2278 115.226 17.5603 115.421 17.7618C115.635 17.9632 115.985 18.064 116.472 18.064H118.137Z" fill="#365BBD"/>
<path d="M124.121 23.3529C123.108 23.3529 122.29 23.0707 121.668 22.5067C121.064 21.9223 120.762 21.1869 120.762 20.3004C120.762 19.4139 121.064 18.6785 121.668 18.0942C122.29 17.5099 123.108 17.2178 124.121 17.2178C125.114 17.2178 125.912 17.5099 126.516 18.0942C127.139 18.6785 127.451 19.4139 127.451 20.3004C127.451 21.1667 127.139 21.8921 126.516 22.4764C125.912 23.0607 125.114 23.3529 124.121 23.3529Z" fill="#365BBD"/>
</svg>
