<svg width="40" height="40" viewBox="0 0 40 40" fill="none" xmlns="http://www.w3.org/2000/svg">
<g filter="url(#filter0_i_148_1524)">
<rect width="40" height="40" rx="12" fill="#5F5FE4"/>
</g>
<path d="M29.8101 11.9401C28.5001 15.2101 25.5101 19.4801 22.6601 22.2701C22.2501 19.6901 20.1901 17.6701 17.5901 17.3101C20.3901 14.4501 24.6901 11.4201 27.9701 10.1001C28.5501 9.88009 29.1301 10.0501 29.4901 10.4101C29.8701 10.7901 30.0501 11.3601 29.8101 11.9401Z" fill="white"/>
<path d="M21.7801 23.09C21.5801 23.26 21.3801 23.43 21.1801 23.59L19.3901 25.02C19.3901 24.99 19.3801 24.95 19.3801 24.91C19.2401 23.84 18.7401 22.85 17.9301 22.04C17.1101 21.22 16.0901 20.72 14.9701 20.58C14.9401 20.58 14.9001 20.57 14.8701 20.57L16.3201 18.74C16.4601 18.56 16.6101 18.39 16.7701 18.21L17.4501 18.3C19.6001 18.6 21.3301 20.29 21.6701 22.43L21.7801 23.09Z" fill="white"/>
<path d="M18.43 25.6201C18.43 26.7201 18.01 27.7701 17.21 28.5601C16.6 29.1801 15.78 29.6001 14.78 29.7201L12.33 29.9901C10.99 30.1401 9.84001 28.9901 9.99001 27.6401L10.26 25.1801C10.5 22.9901 12.33 21.5901 14.27 21.5501C14.46 21.5401 14.67 21.5501 14.87 21.5701C15.72 21.6801 16.54 22.0701 17.23 22.7501C17.9 23.4201 18.28 24.2101 18.39 25.0401C18.41 25.2401 18.43 25.4301 18.43 25.6201Z" fill="white"/>
<defs>
<filter id="filter0_i_148_1524" x="0" y="-2" width="40" height="42" filterUnits="userSpaceOnUse" color-interpolation-filters="sRGB">
<feFlood flood-opacity="0" result="BackgroundImageFix"/>
<feBlend mode="normal" in="SourceGraphic" in2="BackgroundImageFix" result="shape"/>
<feColorMatrix in="SourceAlpha" type="matrix" values="0 0 0 0 0 0 0 0 0 0 0 0 0 0 0 0 0 0 127 0" result="hardAlpha"/>
<feOffset dy="-2"/>
<feGaussianBlur stdDeviation="2"/>
<feComposite in2="hardAlpha" operator="arithmetic" k2="-1" k3="1"/>
<feColorMatrix type="matrix" values="0 0 0 0 0.0784314 0 0 0 0 0.0980392 0 0 0 0 0.133333 0 0 0 0.25 0"/>
<feBlend mode="normal" in2="shape" result="effect1_innerShadow_148_1524"/>
</filter>
</defs>
</svg>
