<svg width="20" height="20" viewBox="0 0 20 20" fill="none" xmlns="http://www.w3.org/2000/svg">
<path d="M9.99933 6.14746C8.97736 6.14746 7.99725 6.55344 7.27461 7.27608C6.55197 7.99872 6.146 8.97883 6.146 10.0008C6.146 11.0228 6.55197 12.0029 7.27461 12.7255C7.99725 13.4482 8.97736 13.8541 9.99933 13.8541C11.0213 13.8541 12.0014 13.4482 12.724 12.7255C13.4467 12.0029 13.8527 11.0228 13.8527 10.0008C13.8527 8.97883 13.4467 7.99872 12.724 7.27608C12.0014 6.55344 11.0213 6.14746 9.99933 6.14746ZM9.99933 12.5033C9.3354 12.5033 8.69867 12.2396 8.22921 11.7701C7.75974 11.3006 7.496 10.6639 7.496 9.99996C7.496 9.33604 7.75974 8.6993 8.22921 8.22984C8.69867 7.76037 9.3354 7.49663 9.99933 7.49663C10.6633 7.49663 11.3 7.76037 11.7695 8.22984C12.2389 8.6993 12.5027 9.33604 12.5027 9.99996C12.5027 10.6639 12.2389 11.3006 11.7695 11.7701C11.3 12.2396 10.6633 12.5033 9.99933 12.5033Z" fill="#141922"/>
<path d="M14.0048 6.90409C14.5009 6.90409 14.9031 6.50189 14.9031 6.00575C14.9031 5.50962 14.5009 5.10742 14.0048 5.10742C13.5086 5.10742 13.1064 5.50962 13.1064 6.00575C13.1064 6.50189 13.5086 6.90409 14.0048 6.90409Z" fill="#141922"/>
<path d="M17.1106 5.09224C16.9177 4.59406 16.6229 4.14164 16.2451 3.76396C15.8672 3.38627 15.4147 3.09163 14.9165 2.89891C14.3334 2.68004 13.7174 2.56169 13.0948 2.54891C12.2923 2.51391 12.0381 2.50391 10.0031 2.50391C7.96813 2.50391 7.7073 2.50391 6.91146 2.54891C6.28929 2.56104 5.67376 2.67941 5.09146 2.89891C4.59308 3.09141 4.14044 3.38596 3.76258 3.76368C3.38472 4.14139 3.08999 4.59393 2.8973 5.09224C2.67839 5.67525 2.56031 6.29127 2.54813 6.91391C2.5123 7.71557 2.50146 7.96974 2.50146 10.0056C2.50146 12.0406 2.50146 12.2997 2.54813 13.0972C2.56063 13.7206 2.67813 14.3356 2.8973 14.9197C3.09053 15.4179 3.38554 15.8702 3.76349 16.2479C4.14144 16.6255 4.59402 16.9202 5.0923 17.1131C5.67349 17.3407 6.28927 17.4676 6.91313 17.4881C7.71563 17.5231 7.9698 17.5339 10.0048 17.5339C12.0398 17.5339 12.3006 17.5339 13.0965 17.4881C13.719 17.4754 14.335 17.3574 14.9181 17.1389C15.4163 16.9457 15.8687 16.6508 16.2464 16.273C16.6242 15.8953 16.9191 15.4429 17.1123 14.9447C17.3315 14.3614 17.449 13.7464 17.4615 13.1231C17.4973 12.3214 17.5081 12.0672 17.5081 10.0314C17.5081 7.99557 17.5081 7.73724 17.4615 6.93974C17.4518 6.3083 17.3331 5.68328 17.1106 5.09224ZM16.0956 13.0356C16.0903 13.5158 16.0026 13.9916 15.8365 14.4422C15.7113 14.7663 15.5197 15.0606 15.274 15.3061C15.0283 15.5517 14.7339 15.7431 14.4098 15.8681C13.9642 16.0334 13.4934 16.1211 13.0181 16.1272C12.2265 16.1639 12.0031 16.1731 9.97313 16.1731C7.94147 16.1731 7.73396 16.1731 6.9273 16.1272C6.45224 16.1214 5.98174 16.0338 5.53646 15.8681C5.2112 15.7439 4.91563 15.5528 4.66887 15.3072C4.42211 15.0616 4.22966 14.7669 4.10396 14.4422C3.94017 13.9964 3.85256 13.5263 3.8448 13.0514C3.80896 12.2597 3.80063 12.0364 3.80063 10.0064C3.80063 7.97557 3.80063 7.76807 3.8448 6.96057C3.85018 6.48059 3.93784 6.00509 4.10396 5.55474C4.35813 4.89724 4.87896 4.37974 5.53646 4.12807C5.98196 3.96319 6.45232 3.87554 6.9273 3.86891C7.7198 3.83307 7.9423 3.82307 9.97313 3.82307C12.004 3.82307 12.2123 3.82307 13.0181 3.86891C13.4935 3.87462 13.9643 3.9623 14.4098 4.12807C14.7339 4.2533 15.0282 4.44491 15.2739 4.6906C15.5196 4.93629 15.7112 5.23063 15.8365 5.55474C16.0003 6.00053 16.0879 6.47071 16.0956 6.94557C16.1315 7.73807 16.1406 7.96057 16.1406 9.99141C16.1406 12.0214 16.1406 12.2397 16.1048 13.0364H16.0956V13.0356Z" fill="#141922"/>
</svg>
