<svg width="200" height="28" viewBox="0 0 200 28" fill="none" xmlns="http://www.w3.org/2000/svg">
<path d="M3.44829 3.93053C6.0345 3.93053 9.48277 4.39887 12.069 6.74061C14.2242 9.5507 15.0862 12.8291 15.9483 15.1709C16.8103 17.5126 17.6724 19.386 18.9655 19.8544C20.2586 20.3227 22.4138 20.7911 24.569 20.3227C28.8793 19.8544 32.7586 17.0443 36.6379 14.2342C40.5172 11.4241 44.3965 7.6773 49.569 4.86721C54.7414 2.05712 60.3448 -0.284617 67.6724 2.52547C69.3965 3.46217 71.1207 4.86722 72.4138 6.27227C73.7069 8.14566 74.569 9.5507 75 10.9557C75.8621 13.7658 76.7241 16.1076 77.5862 17.0443C78.0172 17.981 78.8793 17.981 80.6034 18.4493C82.3276 18.4493 84.4828 18.4493 86.2069 17.5126C90.0862 16.1076 93.5345 13.2975 97.4138 10.0191C101.293 6.74063 106.034 2.99384 112.069 1.12045C115.086 0.183753 118.103 -0.284617 121.552 0.183731C123.276 0.652079 125 1.12043 127.155 2.05713C128.879 2.99383 130.603 4.86722 131.466 6.74061C133.621 10.019 134.052 12.8292 134.914 14.7025C135.776 16.5759 136.207 17.0443 137.069 17.5126C138.362 17.981 140.086 17.981 142.241 17.981C143.966 17.5126 146.121 17.0443 147.845 16.1076C151.724 14.2342 155.603 10.4874 159.914 7.67733C162.069 6.27228 164.655 4.39888 167.241 3.46219C169.828 2.52549 172.845 1.58879 175.862 1.58879C178.879 1.58879 182.328 2.52547 184.914 4.86721C187.5 7.20895 188.793 10.4874 189.655 12.8291C190.517 15.1709 191.379 17.5126 192.672 18.4493C193.965 19.8543 195.69 20.3227 197.845 20.3227C199.138 20.3227 200 21.7277 200 23.1328C200 24.5378 198.707 25.4745 197.845 25.4745C195.259 25.4745 191.81 25.0062 189.224 23.1328C186.638 20.791 184.914 17.981 184.052 15.6392C181.897 10.4874 179.741 9.08235 175.431 9.08235C173.276 9.08235 171.552 10.0191 169.397 10.4874C167.672 11.4241 165.517 12.8291 163.793 14.2342C159.914 17.5126 156.034 21.2594 151.293 24.0695C148.707 25.4745 146.121 26.8796 142.672 27.3479C139.655 27.8163 136.638 28.2846 132.759 26.8796C131.897 26.4112 131.034 25.9429 130.172 25.4745C129.31 25.0062 128.448 24.0695 127.586 23.6011C126.293 22.1961 125 20.3227 124.569 18.9176C123.276 16.1076 122.414 13.2975 121.552 12.3608C120.69 11.4241 120.259 11.4241 118.966 10.9557C117.241 10.9557 115.517 10.9557 113.793 11.4241C110.345 12.3608 106.465 15.1709 102.155 18.4493C97.8448 21.7277 93.5345 25.0062 87.5 26.8796C84.4828 27.8163 81.4655 28.2846 78.0172 27.8163C76.2931 27.8163 74.569 27.3479 72.8448 26.4112C71.1207 25.4745 69.3966 24.0695 68.1035 22.1961C65.9483 18.4493 65.5172 15.6392 64.6552 13.2975C63.7931 10.9557 63.3621 10.4874 62.5 10.0191C61.6379 9.55072 59.4828 9.55069 57.3276 9.55069C55.1724 10.019 53.4483 10.4874 51.2931 11.4241C47.4138 13.2975 43.1034 16.5759 38.7931 19.386C34.4828 22.1961 29.3104 25.0062 23.2759 25.4745C20.2586 25.4745 17.2414 25.4745 14.2242 23.6011C12.5 22.6644 11.6379 21.2594 10.7759 19.8544C9.91379 18.4493 9.48275 16.5759 9.05172 15.1709C8.62068 12.3608 8.18965 10.0191 6.89654 8.61401C6.03448 7.20896 3.87932 6.27227 1.72414 6.27227C0.862076 6.27227 0 5.33557 0 4.39887C1.72414 4.86722 2.58622 3.93053 3.44829 3.93053Z" fill="#365BBD"/>
</svg>
