<svg width="106" height="55" viewBox="0 0 106 55" fill="none" xmlns="http://www.w3.org/2000/svg">
<path d="M102.061 54.7081L3.26555 52.047C1.76237 51.9958 0.518337 50.7675 0.518337 49.2834L0 2.81473C0 1.27942 1.24401 0 2.85086 0H103.149C104.756 0 106 1.27941 106 2.8659L105.067 51.9958C104.911 53.5311 103.616 54.7593 102.061 54.7081Z" fill="#F7C363"/>
<path d="M73.0339 40.5323C82.5094 40.5323 90.1909 32.9481 90.1909 23.5927C90.1909 14.2372 82.5094 6.65311 73.0339 6.65311C63.5584 6.65311 55.877 14.2372 55.877 23.5927C55.877 32.9481 63.5584 40.5323 73.0339 40.5323Z" fill="#3E8AE5"/>
<path d="M95.9962 22.2108C96.048 24.6161 95.6334 27.0726 94.7522 29.3244C93.8711 31.6274 92.5233 33.7256 90.761 35.4657C89.0505 37.2568 86.9253 38.6386 84.5928 39.611C82.2603 40.5833 79.7722 41.0439 77.2842 40.9928C74.7962 40.9416 72.3082 40.4298 70.0275 39.4574C67.7468 38.4851 65.7253 37.0009 64.0148 35.2609C60.6456 31.7297 58.8833 26.8679 59.0388 22.1596C59.1943 17.4514 61.3195 12.9478 64.6887 9.77482C68.0579 6.60185 72.6192 4.81067 77.2324 4.86185C81.7938 4.86185 86.407 6.4995 89.9317 9.6213C91.694 11.1566 93.1972 13.0502 94.2339 15.1996C94.4412 15.7625 94.7004 16.2743 94.9077 16.8372C95.0632 17.4002 95.2705 17.9631 95.426 18.5773C95.5297 19.1402 95.6852 19.7543 95.737 20.3685L95.9962 22.2108ZM92.9381 22.2108C93.0936 18.1678 91.694 14.0225 88.895 10.7984C87.4955 9.21187 85.7331 7.88127 83.7116 6.96009C81.7419 6.09008 79.5131 5.5783 77.336 5.5783C75.159 5.62948 72.9302 6.03892 70.9087 6.90892C68.8872 7.77893 67.073 9.05836 65.5698 10.5937C64.0666 12.129 62.9263 14.0225 62.2006 15.9673C61.4749 17.9632 61.1121 20.0614 61.2158 22.1596C61.3194 24.2579 61.8378 26.305 62.6671 28.1474C63.5483 29.9897 64.7923 31.6786 66.2955 33.0603C69.3019 35.8239 73.293 37.308 77.2842 37.2568C81.2754 37.2057 85.163 35.6192 88.0657 32.8556C91.0202 30.1944 92.8344 26.305 92.9381 22.2108Z" fill="white"/>
<path d="M28.5603 40.5323C38.0358 40.5323 45.7172 32.9481 45.7172 23.5927C45.7172 14.2372 38.0358 6.65311 28.5603 6.65311C19.0847 6.65311 11.4033 14.2372 11.4033 23.5927C11.4033 32.9481 19.0847 40.5323 28.5603 40.5323Z" fill="#00CD82"/>
<path d="M51.5226 22.2108C51.5745 24.6161 51.1598 27.0726 50.2786 29.3244C49.3974 31.6274 48.0498 33.7256 46.2874 35.4657C44.5769 37.2568 42.4517 38.6386 40.1192 39.611C37.7867 40.5833 35.2987 41.0439 32.8107 40.9928C30.3226 40.9416 27.8346 40.4298 25.5539 39.4574C23.2732 38.4851 21.2517 37.0009 19.5412 35.2609C16.172 31.7297 14.4096 26.8679 14.5651 22.1596C14.7206 17.4514 16.8458 12.9478 20.215 9.77482C23.5842 6.60185 28.1456 4.81067 32.7588 4.86185C37.3201 4.86185 41.9333 6.4995 45.458 9.6213C47.2204 11.1566 48.7236 13.0502 49.7603 15.1996C49.9676 15.7625 50.2268 16.2743 50.4341 16.8372C50.5896 17.4002 50.797 17.9631 50.9525 18.5773C51.0561 19.1402 51.2116 19.7543 51.2635 20.3685L51.5226 22.2108ZM48.4644 22.2108C48.6199 18.1678 47.2204 14.0225 44.4214 10.7984C43.0219 9.21187 41.2595 7.88127 39.238 6.96009C37.2683 6.09008 35.0395 5.5783 32.8625 5.5783C30.6855 5.62948 28.4566 6.03892 26.4351 6.90892C24.4136 7.77893 22.5994 9.05836 21.0962 10.5937C19.593 12.129 18.4527 14.0225 17.727 15.9673C17.0013 17.9632 16.6385 20.0614 16.7422 22.1596C16.8459 24.2579 17.3642 26.305 18.1935 28.1474C19.0747 29.9897 20.3187 31.6786 21.8219 33.0603C24.8282 35.8239 28.8195 37.308 32.8107 37.2568C36.8019 37.2057 40.6893 35.6192 43.592 32.8556C46.5466 30.1944 48.3607 26.305 48.4644 22.2108Z" fill="white"/>
</svg>
