<svg width="38" height="50" viewBox="0 0 38 50" fill="none" xmlns="http://www.w3.org/2000/svg">
<path d="M14.1454 7.63361C14.995 5.32199 17.7523 4.28378 19.93 5.45552L20.6379 5.83642C22.8156 7.00816 23.3702 9.82842 21.8015 11.7531L9.69021 26.6127C9.31478 27.0734 8.65788 27.2054 8.13669 26.925C7.61551 26.6445 7.38264 26.0338 7.58597 25.4805L14.1454 7.63361Z" fill="#60A0FF"/>
<path d="M25.2323 21.3172C26.7444 19.4838 29.5867 19.4375 31.1716 21.2205C32.7566 23.0034 32.3144 25.7496 30.2477 26.9591L16.883 34.7799C16.4244 35.0483 15.8341 34.9556 15.4824 34.5599C15.1307 34.1643 15.1189 33.5797 15.4544 33.1729L25.2323 21.3172Z" fill="#60A0FF"/>
<path d="M29.2986 36.3657C31.028 35.2272 33.3834 35.9817 34.1354 37.915C34.8873 39.8482 33.6484 41.9647 31.5915 42.261L21.676 43.6894C21.2073 43.7569 20.7522 43.4917 20.5809 43.0512C20.4096 42.6107 20.568 42.113 20.962 41.8537L29.2986 36.3657Z" fill="#60A0FF"/>
</svg>
