<svg width="67" height="186" viewBox="0 0 67 186" fill="none" xmlns="http://www.w3.org/2000/svg">
<path d="M39.9293 63.3873L191.624 60.3085C193.63 60.3085 195.18 58.6785 195.18 56.7769L196 3.71269C196 1.72051 194.359 0 192.354 0H38.4708C36.4652 0 34.7331 1.72051 34.8242 3.71269L36.2828 59.8557C36.2828 61.8479 37.9238 63.4778 39.9293 63.3873Z" fill="#CCCEF0"/>
<path d="M117.418 181.469L4.467 185.996C2.37025 186.087 0.638206 184.457 0.638206 182.374L0 45.3671C0 43.375 1.64093 41.745 3.64651 41.745H118.329C120.335 41.745 121.976 43.375 121.976 45.3671L120.882 177.756C120.973 179.748 119.423 181.378 117.418 181.469Z" fill="#8181F2"/>
<path d="M73.9333 77.6042C73.1128 78.872 72.0189 80.3208 70.3779 81.1358C68.6458 81.9508 66.7314 82.0413 64.9082 81.4075C64.4523 81.2263 63.9965 81.0452 63.6319 80.7736C63.2672 80.5019 62.8114 80.2303 62.538 79.8681L62.0821 79.4153L61.7175 78.872C61.444 78.5098 61.2616 78.2381 60.9881 77.8759C60.0765 76.5176 59.3472 75.2498 58.5268 74.3443C58.1621 73.8915 57.7063 73.6199 57.2505 73.3482C56.977 73.3482 56.7946 73.1671 56.5211 73.1671C56.2476 73.1671 55.9742 73.0766 55.7007 73.1671C54.6068 73.2577 53.604 73.801 52.6012 74.616C51.5984 75.5215 50.6867 76.6987 49.6839 77.7853C48.6811 78.9625 47.496 80.2303 45.8551 81.1358C45.3993 81.3169 45.0346 81.5886 44.5788 81.7697C44.123 81.8602 43.6672 82.0413 43.1202 82.1319C42.6644 82.2224 42.1175 82.2224 41.6616 82.2224C41.1147 82.1319 40.6589 82.1319 40.2031 82.0413L39.4737 81.7697L39.109 81.6791L38.7444 81.498C38.4709 81.3169 38.2886 81.2264 38.0151 81.0452C37.8328 80.8641 37.6504 80.683 37.3769 80.5019C36.9211 80.1397 36.7388 79.7775 36.3742 79.3247C36.1007 78.9625 35.9184 78.5098 35.7361 78.1475C35.0068 76.6081 34.551 75.1593 33.9128 74.2537C33.6393 73.7104 33.2747 73.5293 32.91 73.3482C32.5454 73.1671 31.9983 73.0766 31.4514 73.1671C30.3574 73.1671 29.1723 73.7104 28.0784 74.5254C26.9844 75.3404 25.7993 76.3365 24.7054 77.3326C23.5203 78.3286 22.3351 79.4153 20.8765 80.2303L19.7826 80.7736C19.4179 80.9547 18.9621 81.0452 18.5974 81.2264C18.1416 81.3169 17.7769 81.4075 17.3211 81.498H16.0449C15.498 81.498 15.1333 81.1358 15.1333 80.5925C15.1333 80.1397 15.4979 79.6869 15.9537 79.6869H16.0449C17.4124 79.5964 18.5975 79.0531 19.6914 78.2381C20.7854 77.4231 21.8793 76.427 22.8821 75.3404C23.9761 74.2537 25.07 73.1671 26.3463 72.0805C27.6225 71.0844 29.3547 70.0883 31.2691 69.9977C32.2719 69.9072 33.2747 69.9977 34.2775 70.4505C35.2803 70.9033 36.1919 71.7183 36.6477 72.5332C36.9212 72.8954 37.1034 73.3482 37.3769 73.7104C37.5593 74.0726 37.7417 74.4349 37.924 74.7971C38.2886 75.5215 38.471 76.2459 38.8356 76.7892C39.018 77.0609 39.1091 77.3326 39.2914 77.6042C39.4738 77.7853 39.5649 78.057 39.7473 78.1475L40.0207 78.4192C40.1118 78.5098 40.203 78.5098 40.2942 78.6003L40.3853 78.6909H40.5676C40.6588 78.6909 40.75 78.7814 40.9323 78.7814C41.2058 78.872 41.4793 78.7814 41.7528 78.872C42.0263 78.872 42.2998 78.7814 42.5733 78.7814C42.8468 78.6909 43.1203 78.6003 43.3938 78.6003L44.2141 78.2381C45.2169 77.6948 46.2198 76.6987 47.2226 75.612C48.2253 74.5254 49.2281 73.2577 50.5044 72.171C50.869 71.8994 51.1426 71.6277 51.5984 71.356L52.1454 70.9938L52.7835 70.7222C53.2393 70.4505 53.6951 70.36 54.1509 70.2694C54.6067 70.0883 55.1537 70.0883 55.6095 70.0883C56.0653 69.9977 56.6124 70.1789 57.0682 70.1789C57.524 70.2694 58.071 70.4505 58.5268 70.6316C59.4384 71.0844 60.2589 71.7183 60.8058 72.4427C61.991 73.801 62.6291 75.2498 63.4496 76.5176C64.1789 77.7853 64.9993 78.6909 66.0021 79.2342C67.0049 79.6869 68.3723 79.7775 69.4663 79.3247C70.5603 78.872 71.563 77.8759 72.4746 76.6987C72.7481 76.3365 73.3863 76.2459 73.7509 76.5176C74.0244 76.6987 74.1156 77.242 73.9333 77.6042Z" fill="white"/>
<path d="M106.205 102.325C104.017 102.506 102.011 103.683 100.097 105.132C98.1823 106.581 96.359 108.211 94.3535 109.841C93.3507 110.656 92.1656 111.381 90.8893 112.014C89.6131 112.648 88.0633 113.01 86.4223 113.01C85.6019 113.01 84.5991 112.739 83.7786 112.195C82.867 111.652 82.2289 110.747 81.8642 110.022C81.1349 108.483 81.0438 107.124 80.7703 106.038C80.588 104.951 80.1321 104.046 79.8587 103.955C79.6763 103.865 79.5851 103.774 79.2205 103.683C79.0381 103.683 78.8558 103.683 78.6735 103.683C78.4912 103.683 78.2177 103.774 78.0354 103.774C76.3945 103.955 74.6623 105.223 72.9302 106.853L70.1953 109.388C69.1925 110.294 68.1898 111.109 66.9135 111.924C65.6372 112.648 64.0875 113.373 62.2642 113.373C61.4437 113.373 60.4409 113.282 59.5293 112.92C58.5265 112.558 57.7061 111.833 57.1591 111.109C56.0651 109.66 55.7005 108.211 55.2447 107.125C54.8801 105.947 54.5154 105.042 54.0595 104.589C53.8772 104.317 53.6949 104.227 53.4215 104.136C53.2391 104.046 52.8745 103.955 52.5098 103.955C51.6894 103.955 50.9601 104.227 50.2308 104.68C49.4103 105.132 48.6809 105.857 47.8604 106.762C47.04 107.577 46.2196 108.573 45.3079 109.479C44.3963 110.475 43.3023 111.471 41.8437 112.195C40.3851 112.92 38.5618 113.192 36.8298 112.829C36.3739 112.648 35.9181 112.558 35.5535 112.286C35.1888 112.014 34.733 111.833 34.4595 111.562C33.8214 111.018 33.2745 110.384 32.9098 109.751C32.0894 108.483 31.6335 107.306 31.0866 106.31C30.5396 105.313 29.9926 104.408 29.4456 103.955C29.2633 103.865 29.1721 103.774 28.9898 103.683C28.8075 103.593 28.6251 103.502 28.4428 103.502C28.2605 103.502 27.9869 103.412 27.8046 103.412H27.1665C26.3461 103.502 25.5256 103.955 24.7963 104.68C24.067 105.404 23.3377 106.31 22.6084 107.306C21.8791 108.302 21.0586 109.388 19.9646 110.294C19.6911 110.475 19.4177 110.747 19.053 110.928C18.6884 111.109 18.4149 111.29 18.0502 111.381C17.6856 111.471 17.321 111.562 16.9563 111.652L15.8623 111.743C15.3153 111.743 14.9507 111.381 14.9507 110.928C14.9507 110.384 15.3154 110.022 15.7712 110.022H15.8623C17.9591 109.932 19.1442 108.03 20.4205 105.947C21.0586 104.861 21.7879 103.774 22.6995 102.778C23.6111 101.691 25.0698 100.786 26.6196 100.424C26.9842 100.333 27.44 100.333 27.8046 100.242C28.1693 100.242 28.6251 100.333 28.9898 100.333C29.3544 100.424 29.8103 100.514 30.1749 100.695C30.5396 100.876 30.9042 101.057 31.36 101.329C32.8186 102.325 33.6391 103.593 34.2773 104.68C34.9154 105.857 35.4623 106.943 36.0093 107.758C36.6474 108.573 37.1032 109.026 37.7414 109.117C38.3795 109.207 39.2 109.117 39.9293 108.664C40.6586 108.302 41.3879 107.577 42.2084 106.762C42.9377 105.947 43.7581 104.951 44.5786 103.955C45.3991 102.959 46.4018 101.963 47.7693 101.148C49.0456 100.333 50.7776 99.6991 52.4186 99.6086C53.239 99.6086 54.1507 99.6991 55.0623 100.061C55.9739 100.424 56.8855 101.057 57.4325 101.782C58.6176 103.231 59.0735 104.68 59.4382 105.766C59.8028 106.943 60.2586 107.939 60.6232 108.483C60.8055 108.754 60.988 108.845 61.1703 108.936C61.3526 109.026 61.626 109.117 61.9907 109.026C62.72 109.026 63.5405 108.754 64.361 108.211C65.1814 107.758 66.093 107.034 66.9135 106.219L69.6484 103.774C70.56 102.868 71.7451 102.054 72.9302 101.329C74.1153 100.605 75.6651 99.9708 77.3061 99.7897C78.1265 99.6991 78.9469 99.6991 79.7674 99.8802C80.679 100.061 81.6818 100.424 82.4111 101.148C83.2316 101.872 83.6875 102.778 83.961 103.502C84.2345 104.317 84.4168 104.951 84.5079 105.676C84.6903 106.943 84.8726 108.121 85.146 108.845C85.3284 109.207 85.4195 109.388 85.6019 109.479C85.7842 109.569 86.0577 109.66 86.4223 109.751C88.0633 109.932 90.2512 108.936 92.1656 107.668C94.1712 106.4 96.0856 104.861 98.2735 103.502C99.3675 102.778 100.553 102.235 101.829 101.691C103.105 101.239 104.473 100.967 105.84 100.967C106.387 100.967 106.752 101.42 106.752 101.872C107.116 101.963 106.752 102.325 106.205 102.325Z" fill="white"/>
<path d="M106.204 138.909C104.108 138.999 102.284 140.267 100.552 141.806L97.9086 144.161C96.9969 144.976 95.9942 145.791 94.9003 146.425C93.7151 147.059 92.3477 147.602 90.8891 147.692C90.5244 147.692 90.1597 147.602 89.7039 147.602C89.3393 147.511 88.8835 147.421 88.5189 147.24C88.1542 147.058 87.7895 146.787 87.4248 146.515C87.1514 146.244 86.7867 145.972 86.6044 145.61C85.6927 144.342 85.4193 143.074 85.0546 141.988C84.69 140.901 84.2342 140.086 83.6872 139.814C83.1402 139.452 82.2286 139.361 81.317 139.543C80.4053 139.724 79.5849 140.086 78.6732 140.72C76.9411 141.897 75.4826 143.708 73.5681 145.429C72.5653 146.244 71.4714 147.059 70.1039 147.602C68.7365 148.145 67.1867 148.326 65.6369 148.055C65.2723 147.964 64.8165 147.873 64.4519 147.692C64.0872 147.511 63.6313 147.33 63.3578 147.059C62.7197 146.515 62.1728 145.972 61.8081 145.338C60.9877 144.161 60.5318 142.984 60.076 142.078C59.6202 141.173 59.0733 140.448 58.4351 140.176C58.2528 140.086 58.1617 139.995 57.9793 139.995C57.797 139.995 57.6146 139.814 57.4323 139.905L56.7942 139.814L56.1561 139.905C55.2444 139.995 54.5151 140.358 53.6946 140.901C52.8741 141.444 52.1449 142.259 51.3244 143.074C50.5039 143.889 49.6834 144.795 48.7718 145.7C47.769 146.606 46.6751 147.511 45.2165 148.055C43.7579 148.598 42.2993 148.688 40.7495 148.417C39.1998 148.145 37.7411 147.149 36.8295 146.062C35.9179 144.976 35.2797 143.889 34.6416 142.893C34.0034 141.897 33.4565 141.082 32.7272 140.539C32.089 139.995 31.2686 139.633 30.357 139.543H29.9923C29.9011 139.543 29.7188 139.543 29.6276 139.543C29.3541 139.543 29.1719 139.543 28.8984 139.543L28.2602 139.724C27.9867 139.724 27.8044 139.905 27.6221 139.995C25.89 140.72 24.5226 142.621 22.8816 144.432C22.0612 145.338 21.1495 146.334 19.9644 146.968C18.7793 147.692 17.3207 147.964 16.0444 147.964C15.4975 147.964 15.1328 147.511 15.1328 147.059C15.1328 146.606 15.4974 146.244 15.9532 146.153H16.0444C17.0472 146.062 18.05 145.7 18.8705 145.157C19.6909 144.614 20.4202 143.799 21.1495 142.893C21.8788 141.988 22.517 140.991 23.3375 139.995C24.1579 138.999 25.1606 138.094 26.4369 137.369C26.8016 137.188 27.0751 137.007 27.4398 136.917L28.5337 136.645C28.8983 136.554 29.263 136.554 29.6276 136.554C29.8099 136.554 29.9923 136.554 30.1747 136.464H30.7216C31.0863 136.464 31.4509 136.464 31.8155 136.554L32.9096 136.826C33.2742 137.007 33.6388 137.098 33.9123 137.279C34.277 137.46 34.5505 137.732 34.824 137.913C37.103 139.814 38.1058 142.259 39.3821 143.617C40.0202 144.342 40.6583 144.704 41.4788 144.885C42.2992 144.976 43.2109 144.885 44.0314 144.614C45.6723 143.98 47.1309 142.259 48.7718 140.448C49.5923 139.543 50.504 138.637 51.6891 137.822C52.8742 137.007 54.2416 136.373 55.7914 136.192L56.8853 136.102C57.25 136.102 57.6147 136.192 58.0705 136.192C58.4351 136.192 58.8909 136.373 59.2555 136.464C59.6202 136.554 59.9849 136.735 60.3495 137.007C61.8081 137.822 62.7197 139.18 63.3578 140.358C63.996 141.535 64.3607 142.621 64.9077 143.346C65.4547 144.161 65.9105 144.523 66.6398 144.704C67.3691 144.885 68.2807 144.795 69.1923 144.432C70.0127 144.161 70.9244 143.527 71.7449 142.802C73.477 141.444 75.0267 139.543 77.3058 138.003C78.3997 137.279 79.7672 136.645 81.2258 136.464L82.3197 136.373C82.6844 136.373 83.049 136.464 83.4137 136.464C83.7783 136.464 84.2342 136.645 84.5988 136.735C84.9635 136.826 85.3281 137.098 85.6927 137.279C86.0574 137.46 86.3309 137.822 86.6044 138.094C86.8778 138.365 87.0602 138.728 87.2426 139.09C87.6072 139.724 87.7896 140.358 88.063 140.991C88.4277 142.169 88.7923 143.255 89.2481 143.98C89.8862 145.247 92.1654 145.157 93.9886 144.161C94.9003 143.708 95.8119 142.984 96.7235 142.259C97.6351 141.535 98.5468 140.72 99.4584 139.995C100.461 139.271 101.464 138.456 102.649 137.913C103.834 137.369 105.202 136.917 106.569 137.007C107.116 137.007 107.481 137.46 107.481 137.913C107.116 138.456 106.751 138.818 106.204 138.909Z" fill="white"/>
</svg>
