<svg width="180" height="48" viewBox="0 0 180 48" fill="none" xmlns="http://www.w3.org/2000/svg">
<rect opacity="0.2" width="180" height="48" rx="24" fill="white"/>
<path d="M64.6355 12.6892C64.6355 13.6838 64.3881 14.554 63.7696 15.1756C63.0274 15.9216 62.1614 16.2945 61.0481 16.2945C59.9348 16.2945 59.0689 15.9216 58.3266 15.1756C57.5844 14.4297 57.2133 13.5595 57.2133 12.4406C57.2133 11.3217 57.5844 10.4515 58.3266 9.70555C59.0689 8.95963 59.9348 8.58667 61.0481 8.58667C61.5429 8.58667 62.0377 8.71099 62.5326 8.95963C63.0274 9.20827 63.3985 9.45691 63.6459 9.82987L63.0274 10.4515C62.5326 9.82987 61.914 9.58123 61.0481 9.58123C60.3059 9.58123 59.5637 9.82987 59.0689 10.4515C58.4503 10.9488 58.2029 11.6947 58.2029 12.5649C58.2029 13.4352 58.4503 14.1811 59.0689 14.6784C59.6874 15.1756 60.3059 15.5486 61.0481 15.5486C61.914 15.5486 62.5326 15.3 63.1511 14.6784C63.5222 14.3054 63.7696 13.8081 63.7696 13.1865H61.0481V12.192H64.6355V12.6892ZM70.3259 9.58123H66.9859V11.9433H70.0785V12.8136H66.9859V15.1756H70.3259V16.1702H65.9963V8.71099H70.3259V9.58123ZM74.4081 16.1702H73.4185V9.58123H71.3155V8.71099H76.5111V9.58123H74.4081V16.1702ZM80.0985 16.1702V8.71099H81.0881V16.1702H80.0985ZM85.294 16.1702H84.3044V9.58123H82.2015V8.71099H87.2733V9.58123H85.1703V16.1702H85.294ZM97.0459 15.1756C96.3037 15.9216 95.4378 16.2945 94.3244 16.2945C93.2111 16.2945 92.3452 15.9216 91.6029 15.1756C90.8607 14.4297 90.4896 13.5595 90.4896 12.4406C90.4896 11.3217 90.8607 10.4515 91.6029 9.70555C92.3452 8.95963 93.2111 8.58667 94.3244 8.58667C95.4378 8.58667 96.3037 8.95963 97.0459 9.70555C97.7881 10.4515 98.1592 11.3217 98.1592 12.4406C98.1592 13.5595 97.7881 14.4297 97.0459 15.1756ZM92.3452 14.554C92.84 15.0513 93.5822 15.4243 94.3244 15.4243C95.0666 15.4243 95.8089 15.1756 96.3037 14.554C96.7985 14.0568 97.1696 13.3108 97.1696 12.4406C97.1696 11.5704 96.9222 10.8244 96.3037 10.3272C95.8089 9.82987 95.0666 9.45691 94.3244 9.45691C93.5822 9.45691 92.84 9.70555 92.3452 10.3272C91.8503 10.8244 91.4792 11.5704 91.4792 12.4406C91.4792 13.3108 91.7266 14.0568 92.3452 14.554ZM99.52 16.1702V8.71099H100.633L104.221 14.554V8.71099H105.21V16.1702H104.221L100.386 10.0785V16.1702H99.52Z" fill="white"/>
<path d="M90.2421 27.1106C87.2732 27.1106 84.9229 29.3484 84.9229 32.4564C84.9229 35.4401 87.2732 37.8022 90.2421 37.8022C93.211 37.8022 95.5614 35.5644 95.5614 32.4564C95.5614 29.2241 93.211 27.1106 90.2421 27.1106ZM90.2421 35.5644C88.634 35.5644 87.2732 34.1969 87.2732 32.3321C87.2732 30.4673 88.634 29.0997 90.2421 29.0997C91.8503 29.0997 93.211 30.3429 93.211 32.3321C93.211 34.1969 91.8503 35.5644 90.2421 35.5644ZM78.7377 27.1106C75.7688 27.1106 73.4184 29.3484 73.4184 32.4564C73.4184 35.4401 75.7688 37.8022 78.7377 37.8022C81.7066 37.8022 84.0569 35.5644 84.0569 32.4564C84.0569 29.2241 81.7066 27.1106 78.7377 27.1106ZM78.7377 35.5644C77.1295 35.5644 75.7688 34.1969 75.7688 32.3321C75.7688 30.4673 77.1295 29.0997 78.7377 29.0997C80.3458 29.0997 81.7066 30.3429 81.7066 32.3321C81.7066 34.1969 80.3458 35.5644 78.7377 35.5644ZM65.0066 28.7268V30.9645H70.3258C70.2021 32.2077 69.7073 33.2023 69.0888 33.8239C68.3466 34.5698 67.1095 35.4401 65.0066 35.4401C61.6666 35.4401 59.1925 32.8293 59.1925 29.4727C59.1925 26.1161 61.7903 23.5053 65.0066 23.5053C66.7384 23.5053 68.0992 24.2513 69.0888 25.1215L70.6969 23.5053C69.3362 22.2621 67.6044 21.2676 65.1303 21.2676C60.6769 21.2676 56.8421 24.9972 56.8421 29.4727C56.8421 33.9482 60.6769 37.6778 65.1303 37.6778C67.6044 37.6778 69.3362 36.9319 70.8207 35.3157C72.3051 33.8239 72.7999 31.7105 72.7999 30.0943C72.7999 29.597 72.7999 29.0997 72.6762 28.7268H65.0066ZM121.168 30.4673C120.673 29.2241 119.436 27.1106 116.715 27.1106C113.993 27.1106 111.767 29.2241 111.767 32.4564C111.767 35.4401 113.993 37.8022 116.962 37.8022C119.313 37.8022 120.797 36.3103 121.292 35.4401L119.56 34.1969C118.941 35.0671 118.199 35.6887 116.962 35.6887C115.725 35.6887 114.983 35.1914 114.364 34.0725L121.415 31.0889L121.168 30.4673ZM113.993 32.2077C113.993 30.2186 115.601 29.0997 116.715 29.0997C117.581 29.0997 118.447 29.597 118.694 30.2186L113.993 32.2077ZM108.179 37.3049H110.53V21.7649H108.179V37.3049ZM104.468 28.2295C103.85 27.6079 102.86 26.9863 101.623 26.9863C99.0251 26.9863 96.551 29.3484 96.551 32.3321C96.551 35.3157 98.9014 37.5535 101.623 37.5535C102.86 37.5535 103.85 36.9319 104.344 36.3103H104.468V37.0562C104.468 39.0454 103.355 40.1642 101.623 40.1642C100.262 40.1642 99.2725 39.1697 99.0251 38.2994L97.0458 39.1697C97.6644 40.5372 99.1488 42.2777 101.747 42.2777C104.468 42.2777 106.695 40.6615 106.695 36.8076V27.3593H104.468V28.2295ZM101.747 35.5644C100.138 35.5644 98.7777 34.1969 98.7777 32.3321C98.7777 30.4673 100.138 29.0997 101.747 29.0997C103.355 29.0997 104.592 30.4673 104.592 32.3321C104.592 34.1969 103.355 35.5644 101.747 35.5644ZM131.93 21.7649H126.364V37.3049H128.714V31.4618H131.93C134.528 31.4618 137.002 29.597 137.002 26.6133C137.002 23.6297 134.528 21.7649 131.93 21.7649ZM132.054 29.2241H128.714V23.8783H132.054C133.786 23.8783 134.775 25.3701 134.775 26.489C134.652 27.8565 133.662 29.2241 132.054 29.2241ZM146.28 26.9863C144.548 26.9863 142.816 27.7322 142.198 29.3484L144.301 30.2186C144.795 29.3484 145.538 29.0997 146.404 29.0997C147.641 29.0997 148.754 29.8457 148.878 31.0889V31.2132C148.507 30.9645 147.517 30.5916 146.527 30.5916C144.301 30.5916 142.074 31.8348 142.074 34.0725C142.074 36.186 143.93 37.5535 145.909 37.5535C147.517 37.5535 148.259 36.8076 148.878 36.0617H149.001V37.3049H151.228V31.3375C150.981 28.6025 148.878 26.9863 146.28 26.9863ZM146.033 35.5644C145.29 35.5644 144.177 35.1914 144.177 34.1969C144.177 32.9537 145.538 32.5807 146.651 32.5807C147.641 32.5807 148.135 32.8293 148.754 33.078C148.507 34.5698 147.27 35.5644 146.033 35.5644ZM159.021 27.3593L156.424 34.0725H156.3L153.578 27.3593H151.104L155.187 36.8076L152.836 42.029H155.187L161.495 27.3593H159.021ZM138.239 37.3049H140.59V21.7649H138.239V37.3049Z" fill="white"/>
<path d="M18.8651 9.33276C18.494 9.70572 18.3703 10.3273 18.3703 11.0732V38.548C18.3703 39.2939 18.6177 39.9155 18.9888 40.2885L19.1125 40.4128L34.4518 24.9971V24.7485L18.8651 9.33276Z" fill="url(#paint0_linear_48_762)"/>
<path d="M39.4 30.2186L34.3282 25.1215V24.7485L39.4 19.6514L39.5238 19.7757L45.5852 23.2567C47.3171 24.2512 47.3171 25.8674 45.5852 26.8619L39.4 30.2186Z" fill="url(#paint1_linear_48_762)"/>
<path d="M39.5239 30.0943L34.3283 24.8728L18.8654 40.4128C19.4839 41.0344 20.3498 41.0344 21.4632 40.5371L39.5239 30.0943Z" fill="url(#paint2_linear_48_762)"/>
<path d="M39.5239 19.6516L21.4632 9.33299C20.3498 8.71139 19.4839 8.83571 18.8654 9.45731L34.3283 24.873L39.5239 19.6516Z" fill="url(#paint3_linear_48_762)"/>
<path opacity="0.2" d="M39.4002 29.97L21.4632 40.1642C20.4735 40.7858 19.6076 40.6615 18.9891 40.1642L18.8654 40.2885L18.9891 40.4129C19.6076 40.9101 20.4735 41.0345 21.4632 40.4129L39.4002 29.97Z" fill="#14222B"/>
<path opacity="0.2" d="M18.8651 40.1642C18.494 39.7912 18.3703 39.1696 18.3703 38.4237V38.548C18.3703 39.2939 18.6177 39.9155 18.9888 40.2885V40.1642H18.8651ZM45.5851 26.489L39.3999 29.9699L39.5236 30.0942L45.5851 26.6133C46.451 26.116 46.8221 25.4944 46.8221 24.8728C46.8221 25.4944 46.3273 25.9917 45.5851 26.489Z" fill="#14222B"/>
<path opacity="0.2" d="M21.4631 9.45722L45.5853 23.2568C46.3275 23.754 46.8224 24.2513 46.8224 24.8729C46.8224 24.2513 46.4513 23.6297 45.5853 23.1324L21.4631 9.3329C19.7313 8.33834 18.3705 9.08426 18.3705 11.0734V11.1977C18.3705 9.3329 19.7313 8.46266 21.4631 9.45722Z" fill="white"/>
<defs>
<linearGradient id="paint0_linear_48_762" x1="32.9673" y1="10.837" x2="12.103" y2="31.5967" gradientUnits="userSpaceOnUse">
<stop stop-color="#00A0FF"/>
<stop offset="0.007" stop-color="#00A1FF"/>
<stop offset="0.26" stop-color="#00BEFF"/>
<stop offset="0.512" stop-color="#00D2FF"/>
<stop offset="0.76" stop-color="#00DFFF"/>
<stop offset="1" stop-color="#00E3FF"/>
</linearGradient>
<linearGradient id="paint1_linear_48_762" x1="47.854" y1="24.8741" x2="17.9214" y2="24.8741" gradientUnits="userSpaceOnUse">
<stop stop-color="#FFE000"/>
<stop offset="0.409" stop-color="#FFBD00"/>
<stop offset="0.775" stop-color="#FFA500"/>
<stop offset="1" stop-color="#FF9C00"/>
</linearGradient>
<linearGradient id="paint2_linear_48_762" x1="36.7121" y1="27.7272" x2="8.41967" y2="55.8793" gradientUnits="userSpaceOnUse">
<stop stop-color="#FF3A44"/>
<stop offset="1" stop-color="#C31162"/>
</linearGradient>
<linearGradient id="paint3_linear_48_762" x1="15.0268" y1="0.227781" x2="27.6613" y2="12.7996" gradientUnits="userSpaceOnUse">
<stop stop-color="#32A071"/>
<stop offset="0.069" stop-color="#2DA771"/>
<stop offset="0.476" stop-color="#15CF74"/>
<stop offset="0.801" stop-color="#06E775"/>
<stop offset="1" stop-color="#00F076"/>
</linearGradient>
</defs>
</svg>
