<svg width="62" height="36" viewBox="0 0 62 36" fill="none" xmlns="http://www.w3.org/2000/svg">
<path d="M2.73599 1.12216L59.3104 0.00140874C60.6088 -0.0434214 61.6754 0.987672 61.6754 2.24292L62 33.7585C62 35.0137 60.9798 36 59.6814 36H2.31862C1.02019 36 0 34.9689 0 33.7137L0.510142 3.31884C0.510142 2.15325 1.48393 1.16699 2.73599 1.12216Z" fill="#00CD82"/>
<path d="M28.519 5.56038C27.5916 7.80189 26.4787 9.95374 25.3657 12.1056C24.2528 14.2574 23.0007 16.3196 21.795 18.4266C20.5429 20.4888 19.2909 22.551 17.9925 24.6132C16.6941 26.6754 15.3492 28.6927 13.9117 30.6653C13.7726 30.8446 13.5407 30.8894 13.4016 30.7549C13.2625 30.6652 13.2161 30.4859 13.2625 30.3066C14.2827 28.1099 15.3956 25.9581 16.5086 23.8062C17.6679 21.6544 18.8272 19.5474 20.0329 17.4852C21.2386 15.3782 22.4442 13.316 23.789 11.2538C25.0875 9.23646 26.4323 7.17428 27.9626 5.24658C28.0553 5.11209 28.2872 5.06726 28.4263 5.20175C28.519 5.29141 28.5654 5.42589 28.519 5.56038Z" fill="white"/>
<path d="M43.7758 5.15694C42.8483 7.53293 41.7354 9.77443 40.5761 12.0159C39.4167 14.2574 38.1647 16.4541 36.8663 18.606C36.217 19.6819 35.5679 20.7578 34.8723 21.8338L33.8521 23.4476L32.8319 25.0167C31.4407 27.1237 30.0032 29.1859 28.3801 31.2032C28.2874 31.3377 28.0555 31.3826 27.9164 31.2481C27.7773 31.1584 27.7309 30.9791 27.8236 30.8446C28.7975 28.5134 29.9104 26.2271 31.0233 23.9856L31.9044 22.3269L32.7855 20.6682C33.3884 19.5474 33.9912 18.4715 34.6404 17.3507C35.8925 15.1541 37.1909 13.0022 38.5821 10.8952C39.9732 8.78817 41.4108 6.68116 43.0338 4.70863C43.1729 4.52931 43.4976 4.48448 43.683 4.61897C43.7758 4.79829 43.8221 5.02244 43.7758 5.15694Z" fill="white"/>
<path d="M14.8858 11.8814C17.9464 11.6572 21.0069 11.5227 24.0675 11.4331C27.1281 11.3434 30.1887 11.2986 33.2493 11.2986C36.3099 11.2986 39.3704 11.2986 42.431 11.3882C45.4916 11.4779 48.5522 11.5676 51.6127 11.7917C51.9837 11.8365 52.262 12.1503 52.262 12.509C52.2156 12.8228 51.9374 13.0918 51.6127 13.1366C48.5522 13.3608 45.4916 13.4504 42.431 13.5401C39.3704 13.6298 36.3099 13.6297 33.2493 13.6297C30.1887 13.6297 27.1281 13.5849 24.0675 13.4953C21.0069 13.4056 17.9464 13.2711 14.8858 13.047C14.5612 13.0021 14.2829 12.7331 14.3293 12.4193C14.3293 12.1504 14.5612 11.9262 14.8858 11.8814Z" fill="white"/>
<path d="M9.73811 21.8337C12.7987 21.5647 15.8593 21.4302 18.9199 21.3406C20.4502 21.2957 21.9805 21.2509 23.5108 21.2061L28.1016 21.1613C31.1622 21.1613 34.2228 21.2061 37.2834 21.2957C40.3439 21.3854 43.4045 21.5199 46.4651 21.744C46.7897 21.7889 46.9752 22.013 46.9752 22.3268C46.9752 22.5958 46.7434 22.7751 46.4651 22.82C43.4045 23.0441 40.3439 23.1786 37.2834 23.2683C34.2228 23.3579 31.1622 23.3579 28.1016 23.4028L23.5108 23.3579C21.9805 23.3131 20.4502 23.3131 18.9199 23.2234C15.8593 23.1338 12.7987 22.9993 9.73811 22.7303C9.50625 22.7303 9.3208 22.5061 9.3208 22.2372C9.36717 22.013 9.55262 21.8337 9.73811 21.8337Z" fill="white"/>
</svg>
