<svg width="40" height="40" viewBox="0 0 40 40" fill="none" xmlns="http://www.w3.org/2000/svg">
<g filter="url(#filter0_i_148_1536)">
<rect width="40" height="40" rx="12" fill="#5F5FE4"/>
</g>
<path d="M25.29 12.14L25.22 15.93C25.21 16.45 25.54 17.14 25.96 17.45L28.44 19.33C30.03 20.53 29.77 22 27.87 22.6L24.64 23.61C24.1 23.78 23.53 24.37 23.39 24.92L22.62 27.86C22.01 30.18 20.49 30.41 19.23 28.37L17.47 25.52C17.15 25 16.39 24.61 15.79 24.64L12.45 24.81C10.06 24.93 9.38003 23.55 10.94 21.73L12.92 19.43C13.29 19 13.46 18.2 13.29 17.66L12.27 14.42C11.68 12.52 12.74 11.47 14.63 12.09L17.58 13.06C18.08 13.22 18.83 13.11 19.25 12.8L22.33 10.58C24 9.39004 25.33 10.09 25.29 12.14Z" fill="white"/>
<path d="M29.4401 28.4699L26.4101 25.4399C26.1201 25.1499 25.6401 25.1499 25.3501 25.4399C25.0601 25.7299 25.0601 26.2099 25.3501 26.4999L28.3801 29.5299C28.5301 29.6799 28.7201 29.7499 28.9101 29.7499C29.1001 29.7499 29.2901 29.6799 29.4401 29.5299C29.7301 29.2399 29.7301 28.7599 29.4401 28.4699Z" fill="white"/>
<defs>
<filter id="filter0_i_148_1536" x="0" y="-2" width="40" height="42" filterUnits="userSpaceOnUse" color-interpolation-filters="sRGB">
<feFlood flood-opacity="0" result="BackgroundImageFix"/>
<feBlend mode="normal" in="SourceGraphic" in2="BackgroundImageFix" result="shape"/>
<feColorMatrix in="SourceAlpha" type="matrix" values="0 0 0 0 0 0 0 0 0 0 0 0 0 0 0 0 0 0 127 0" result="hardAlpha"/>
<feOffset dy="-2"/>
<feGaussianBlur stdDeviation="2"/>
<feComposite in2="hardAlpha" operator="arithmetic" k2="-1" k3="1"/>
<feColorMatrix type="matrix" values="0 0 0 0 0.0784314 0 0 0 0 0.0980392 0 0 0 0 0.133333 0 0 0 0.25 0"/>
<feBlend mode="normal" in2="shape" result="effect1_innerShadow_148_1536"/>
</filter>
</defs>
</svg>
