<svg width="40" height="40" viewBox="0 0 40 40" fill="none" xmlns="http://www.w3.org/2000/svg">
<g filter="url(#filter0_i_148_1518)">
<rect width="40" height="40" rx="12" fill="#5F5FE4"/>
</g>
<path d="M30 11.25H10C9.59 11.25 9.25 10.91 9.25 10.5C9.25 10.09 9.59 9.75 10 9.75H30C30.41 9.75 30.75 10.09 30.75 10.5C30.75 10.91 30.41 11.25 30 11.25Z" fill="white"/>
<path d="M11.6699 10.5V22.47C11.6699 23.45 12.1299 24.38 12.9199 24.97L18.1299 28.87C19.2399 29.7 20.7699 29.7 21.8799 28.87L27.0899 24.97C27.8799 24.38 28.3399 23.45 28.3399 22.47V10.5H11.6699ZM23.9999 21.75H15.9999C15.5899 21.75 15.2499 21.41 15.2499 21C15.2499 20.59 15.5899 20.25 15.9999 20.25H23.9999C24.4099 20.25 24.7499 20.59 24.7499 21C24.7499 21.41 24.4099 21.75 23.9999 21.75ZM23.9999 16.75H15.9999C15.5899 16.75 15.2499 16.41 15.2499 16C15.2499 15.59 15.5899 15.25 15.9999 15.25H23.9999C24.4099 15.25 24.7499 15.59 24.7499 16C24.7499 16.41 24.4099 16.75 23.9999 16.75Z" fill="white"/>
<defs>
<filter id="filter0_i_148_1518" x="0" y="-2" width="40" height="42" filterUnits="userSpaceOnUse" color-interpolation-filters="sRGB">
<feFlood flood-opacity="0" result="BackgroundImageFix"/>
<feBlend mode="normal" in="SourceGraphic" in2="BackgroundImageFix" result="shape"/>
<feColorMatrix in="SourceAlpha" type="matrix" values="0 0 0 0 0 0 0 0 0 0 0 0 0 0 0 0 0 0 127 0" result="hardAlpha"/>
<feOffset dy="-2"/>
<feGaussianBlur stdDeviation="2"/>
<feComposite in2="hardAlpha" operator="arithmetic" k2="-1" k3="1"/>
<feColorMatrix type="matrix" values="0 0 0 0 0.0784314 0 0 0 0 0.0980392 0 0 0 0 0.133333 0 0 0 0.25 0"/>
<feBlend mode="normal" in2="shape" result="effect1_innerShadow_148_1518"/>
</filter>
</defs>
</svg>
