<svg width="40" height="40" viewBox="0 0 40 40" fill="none" xmlns="http://www.w3.org/2000/svg">
<g filter="url(#filter0_i_148_1512)">
<rect width="40" height="40" rx="12" fill="#5F5FE4"/>
</g>
<path d="M23.2599 29.9999C23.1999 29.9999 23.1299 29.9899 23.0699 29.9699C21.0599 29.3999 18.9499 29.3999 16.9399 29.9699C16.5699 30.0699 16.1799 29.8599 16.0799 29.4899C15.9699 29.1199 16.1899 28.7299 16.5599 28.6299C18.8199 27.9899 21.1999 27.9899 23.4599 28.6299C23.8299 28.7399 24.0499 29.1199 23.9399 29.4899C23.8399 29.7999 23.5599 29.9999 23.2599 29.9999Z" fill="white"/>
<path d="M27.21 14.36C26.17 12.26 24.16 10.71 21.83 10.2C19.39 9.66001 16.89 10.24 14.98 11.78C13.06 13.31 11.97 15.6 11.97 18.05C11.97 20.64 13.52 23.35 15.86 24.92V25.75C15.85 26.03 15.84 26.46 16.18 26.81C16.53 27.17 17.05 27.21 17.46 27.21H22.59C23.13 27.21 23.54 27.06 23.82 26.78C24.2 26.39 24.19 25.89 24.18 25.62V24.92C27.28 22.83 29.23 18.42 27.21 14.36ZM21.72 19.62L20.65 21.48C20.51 21.72 20.26 21.86 20 21.86C19.87 21.86 19.74 21.83 19.63 21.76C19.27 21.55 19.15 21.09 19.35 20.74L20.2 19.26H19.36C18.86 19.26 18.45 19.04 18.23 18.67C18.01 18.29 18.03 17.83 18.28 17.39L19.35 15.53C19.56 15.17 20.02 15.05 20.37 15.25C20.73 15.46 20.85 15.92 20.65 16.27L19.8 17.75H20.64C21.14 17.75 21.55 17.97 21.77 18.34C21.99 18.72 21.97 19.19 21.72 19.62Z" fill="white"/>
<defs>
<filter id="filter0_i_148_1512" x="0" y="-2" width="40" height="42" filterUnits="userSpaceOnUse" color-interpolation-filters="sRGB">
<feFlood flood-opacity="0" result="BackgroundImageFix"/>
<feBlend mode="normal" in="SourceGraphic" in2="BackgroundImageFix" result="shape"/>
<feColorMatrix in="SourceAlpha" type="matrix" values="0 0 0 0 0 0 0 0 0 0 0 0 0 0 0 0 0 0 127 0" result="hardAlpha"/>
<feOffset dy="-2"/>
<feGaussianBlur stdDeviation="2"/>
<feComposite in2="hardAlpha" operator="arithmetic" k2="-1" k3="1"/>
<feColorMatrix type="matrix" values="0 0 0 0 0.0784314 0 0 0 0 0.0980392 0 0 0 0 0.133333 0 0 0 0.25 0"/>
<feBlend mode="normal" in2="shape" result="effect1_innerShadow_148_1512"/>
</filter>
</defs>
</svg>
