<svg width="148" height="23" viewBox="0 0 148 23" fill="none" xmlns="http://www.w3.org/2000/svg">
<path d="M10.1407 3.20288V12.6121C10.1407 14.2105 9.70557 15.4328 8.83544 16.2791C7.97865 17.1253 6.7939 17.5484 5.28118 17.5484C3.67474 17.5484 2.38958 17.0984 1.42572 16.1985C0.47524 15.2985 0 14.0023 0 12.3099H3.89562C3.90901 13.4247 4.31732 13.9822 5.12054 13.9822C5.84344 13.9822 6.20489 13.5255 6.20489 12.6121V3.20288H10.1407Z" fill="white"/>
<path d="M12.249 11.7457C12.249 10.5771 12.4565 9.55622 12.8715 8.68315C13.2999 7.81004 13.8755 7.13844 14.5984 6.66831C15.3347 6.19819 16.1513 5.96313 17.0483 5.96313C17.8247 5.96313 18.4941 6.1176 19.0563 6.42654C19.6186 6.73548 20.0536 7.15188 20.3616 7.67573V6.10417H24.2973V17.4073H20.3616V15.8357C20.0536 16.3596 19.6118 16.776 19.0362 17.0849C18.474 17.3938 17.8113 17.5483 17.0483 17.5483C16.1513 17.5483 15.3347 17.3133 14.5984 16.8432C13.8755 16.373 13.2999 15.7014 12.8715 14.8283C12.4565 13.9418 12.249 12.9143 12.249 11.7457ZM20.3616 11.7457C20.3616 11.0203 20.1608 10.4494 19.7591 10.0331C19.3709 9.61666 18.8889 9.40849 18.3133 9.40849C17.7243 9.40849 17.2357 9.61666 16.8475 10.0331C16.4592 10.436 16.2651 11.0069 16.2651 11.7457C16.2651 12.471 16.4592 13.0485 16.8475 13.4784C17.2357 13.8948 17.7243 14.103 18.3133 14.103C18.8889 14.103 19.3709 13.8948 19.7591 13.4784C20.1608 13.062 20.3616 12.4844 20.3616 11.7457Z" fill="white"/>
<path d="M26.2988 11.7457C26.2988 10.5771 26.5398 9.55622 27.0217 8.68315C27.5037 7.81004 28.1731 7.13844 29.0298 6.66831C29.9 6.19819 30.8906 5.96313 32.0017 5.96313C33.4342 5.96313 34.639 6.35938 35.6162 7.15188C36.5935 7.93092 37.2226 9.02567 37.5038 10.436H33.327C33.0861 9.69726 32.6175 9.32789 31.9214 9.32789C31.4261 9.32789 31.0312 9.53607 30.7366 9.95249C30.4555 10.3554 30.3149 10.9531 30.3149 11.7457C30.3149 12.5381 30.4555 13.1426 30.7366 13.559C31.0312 13.9754 31.4261 14.1836 31.9214 14.1836C32.6309 14.1836 33.0995 13.8142 33.327 13.0754H37.5038C37.2226 14.4724 36.5935 15.5671 35.6162 16.3596C34.639 17.1521 33.4342 17.5483 32.0017 17.5483C30.8906 17.5483 29.9 17.3133 29.0298 16.8432C28.1731 16.373 27.5037 15.7014 27.0217 14.8283C26.5398 13.9552 26.2988 12.9277 26.2988 11.7457Z" fill="white"/>
<path d="M46.5888 17.4075L43.4763 12.7734V17.4075H39.5405V2.4978H43.4763V10.5369L46.5888 6.10432H51.3077L46.8699 11.7861L51.388 17.4075H46.5888Z" fill="white"/>
<path d="M63.7066 11.6248C63.7066 11.9337 63.6865 12.2426 63.6463 12.5516H56.1964C56.2366 13.1694 56.4039 13.6328 56.6984 13.9418C57.0063 14.2373 57.3945 14.3851 57.8631 14.3851C58.519 14.3851 58.9876 14.0896 59.2688 13.4986H63.4656C63.2914 14.2776 62.95 14.9761 62.4415 15.594C61.946 16.1984 61.317 16.6752 60.5539 17.0245C59.7909 17.3737 58.9474 17.5483 58.0237 17.5483C56.9126 17.5483 55.922 17.3133 55.0518 16.8432C54.195 16.373 53.519 15.7014 53.0237 14.8283C52.5417 13.9552 52.3008 12.9277 52.3008 11.7457C52.3008 10.5636 52.5417 9.54277 53.0237 8.68315C53.5056 7.81004 54.1749 7.13844 55.0317 6.66831C55.9019 6.19819 56.8992 5.96313 58.0237 5.96313C59.1347 5.96313 60.1187 6.19148 60.9756 6.64817C61.8326 7.10486 62.5018 7.76303 62.9837 8.62271C63.4656 9.46893 63.7066 10.4696 63.7066 11.6248ZM59.6905 10.6375C59.6905 10.154 59.5298 9.77785 59.2085 9.50923C58.8872 9.22715 58.4856 9.08612 58.0037 9.08612C57.5217 9.08612 57.1268 9.2204 56.8189 9.48908C56.511 9.74425 56.3102 10.1271 56.2165 10.6375H59.6905Z" fill="white"/>
<path d="M72.3658 14.0425V17.4073H70.6589C67.7809 17.4073 66.3416 15.9768 66.3416 13.1157V9.38833H64.9561V6.10416H66.3416V3.36401H70.2975V6.10416H72.3457V9.38833H70.2975V13.1762C70.2975 13.4851 70.3642 13.7067 70.4983 13.8411C70.6453 13.9753 70.8863 14.0425 71.2212 14.0425H72.3658Z" fill="white"/>
<path d="M81.2193 14.0425V17.4073H79.5124C76.6338 17.4073 75.1951 15.9768 75.1951 13.1157V9.38833H73.8096V6.10416H75.1951V3.36401H79.151V6.10416H81.1992V9.38833H79.151V13.1762C79.151 13.4851 79.2177 13.7067 79.3518 13.8411C79.4989 13.9753 79.7398 14.0425 80.0747 14.0425H81.2193Z" fill="white"/>
<path d="M85.3332 17.5686C84.6369 17.5686 84.0746 17.3805 83.6464 17.0044C83.2312 16.6149 83.0239 16.1246 83.0239 15.5336C83.0239 14.9426 83.2312 14.4523 83.6464 14.0628C84.0746 13.6732 84.6369 13.4785 85.3332 13.4785C86.0159 13.4785 86.5646 13.6732 86.9798 14.0628C87.408 14.4523 87.6224 14.9426 87.6224 15.5336C87.6224 16.1112 87.408 16.5947 86.9798 16.9843C86.5646 17.3738 86.0159 17.5686 85.3332 17.5686Z" fill="white"/>
<path opacity="0.6" d="M102.08 17.14C101.147 17.14 100.307 16.98 99.56 16.66C98.8133 16.3267 98.2267 15.86 97.8 15.26C97.3733 14.66 97.16 13.96 97.16 13.16H99.6C99.6533 13.76 99.8867 14.2533 100.3 14.64C100.727 15.0267 101.32 15.22 102.08 15.22C102.867 15.22 103.48 15.0333 103.92 14.66C104.36 14.2733 104.58 13.78 104.58 13.18C104.58 12.7133 104.44 12.3333 104.16 12.04C103.893 11.7467 103.553 11.52 103.14 11.36C102.74 11.2 102.18 11.0267 101.46 10.84C100.553 10.6 99.8133 10.36 99.24 10.12C98.68 9.86667 98.2 9.48 97.8 8.96C97.4 8.44 97.2 7.74667 97.2 6.88C97.2 6.08 97.4 5.38 97.8 4.78C98.2 4.18 98.76 3.72 99.48 3.4C100.2 3.08 101.033 2.92 101.98 2.92C103.327 2.92 104.427 3.26 105.28 3.94C106.147 4.60667 106.627 5.52667 106.72 6.7H104.2C104.16 6.19333 103.92 5.76 103.48 5.4C103.04 5.04 102.46 4.86 101.74 4.86C101.087 4.86 100.553 5.02667 100.14 5.36C99.7267 5.69333 99.52 6.17333 99.52 6.8C99.52 7.22667 99.6467 7.58 99.9 7.86C100.167 8.12667 100.5 8.34 100.9 8.5C101.3 8.66 101.847 8.83333 102.54 9.02C103.46 9.27333 104.207 9.52667 104.78 9.78C105.367 10.0333 105.86 10.4267 106.26 10.96C106.673 11.48 106.88 12.18 106.88 13.06C106.88 13.7667 106.687 14.4333 106.3 15.06C105.927 15.6867 105.373 16.1933 104.64 16.58C103.92 16.9533 103.067 17.14 102.08 17.14ZM112.23 7.84V13.94C112.23 14.3533 112.324 14.6533 112.51 14.84C112.71 15.0133 113.044 15.1 113.51 15.1H114.91V17H113.11C112.084 17 111.297 16.76 110.75 16.28C110.204 15.8 109.93 15.02 109.93 13.94V7.84H108.63V5.98H109.93V3.24H112.23V5.98H114.91V7.84H112.23ZM121.792 17.18C120.752 17.18 119.812 16.9467 118.972 16.48C118.132 16 117.472 15.3333 116.992 14.48C116.512 13.6133 116.272 12.6133 116.272 11.48C116.272 10.36 116.518 9.36667 117.012 8.5C117.505 7.63333 118.178 6.96667 119.032 6.5C119.885 6.03333 120.838 5.8 121.892 5.8C122.945 5.8 123.898 6.03333 124.752 6.5C125.605 6.96667 126.278 7.63333 126.772 8.5C127.265 9.36667 127.512 10.36 127.512 11.48C127.512 12.6 127.258 13.5933 126.752 14.46C126.245 15.3267 125.552 16 124.672 16.48C123.805 16.9467 122.845 17.18 121.792 17.18ZM121.792 15.2C122.378 15.2 122.925 15.06 123.432 14.78C123.952 14.5 124.372 14.08 124.692 13.52C125.012 12.96 125.172 12.28 125.172 11.48C125.172 10.68 125.018 10.0067 124.712 9.46C124.405 8.9 123.998 8.48 123.492 8.2C122.985 7.92 122.438 7.78 121.852 7.78C121.265 7.78 120.718 7.92 120.212 8.2C119.718 8.48 119.325 8.9 119.032 9.46C118.738 10.0067 118.592 10.68 118.592 11.48C118.592 12.6667 118.892 13.5867 119.492 14.24C120.105 14.88 120.872 15.2 121.792 15.2ZM132.046 7.58C132.379 7.02 132.819 6.58667 133.366 6.28C133.926 5.96 134.586 5.8 135.346 5.8V8.16H134.766C133.872 8.16 133.192 8.38667 132.726 8.84C132.272 9.29333 132.046 10.08 132.046 11.2V17H129.766V5.98H132.046V7.58ZM147.361 5.98L140.601 22.18H138.241L140.481 16.82L136.141 5.98H138.681L141.781 14.38L145.001 5.98H147.361Z" fill="white"/>
</svg>
