<svg width="108" height="94" viewBox="0 0 108 94" fill="none" xmlns="http://www.w3.org/2000/svg">
<path d="M-54.5276 0L51.3064 2.83799C53.6505 2.92399 55.4737 4.81597 55.5605 7.05196L56.0815 55.7277C56.0815 58.1357 54.1714 60.1136 51.7404 60.1136H-55.6563C-58.0872 60.1136 -60.0841 58.1357 -59.9973 55.7277L-59.0422 4.21397C-58.9554 1.89198 -56.9586 0 -54.5276 0Z" fill="#8181F2"/>
<path d="M-11.5516 93.9973L102.791 90.9013C105.309 90.8153 107.305 88.8373 107.392 86.3434L108 33.7117C108 31.1317 105.916 28.9817 103.312 28.9817H-12.6803C-15.2849 28.9817 -17.4554 31.1317 -17.3686 33.7117L-16.3267 89.3533C-16.2399 92.0193 -14.1562 94.0833 -11.5516 93.9973Z" fill="#00CD82"/>
<path d="M85.6003 81.6136C84.8189 81.6996 83.9507 81.6136 83.0825 81.0976C82.3011 80.5816 81.867 79.6356 81.6934 78.8616C81.2593 77.2276 81.4329 75.7656 81.4329 74.3037C81.4329 72.8417 81.5198 71.4657 81.2593 70.3477C81.0856 69.8317 80.912 69.4877 80.6516 69.3157C80.3911 69.1437 80.0438 69.0577 79.5229 69.0577C78.481 69.0577 77.2656 69.4877 76.2237 70.0897C75.095 70.6917 73.9664 71.4657 72.9245 72.3257C70.754 74.1317 68.6703 76.1097 66.4998 78.0876C65.3712 79.0336 64.2425 80.0656 62.9402 80.9256C61.6379 81.7856 60.2488 82.6456 58.5124 83.1616C57.6442 83.4196 56.6891 83.5916 55.7341 83.5056C54.7791 83.5056 53.5636 83.2476 52.6086 82.4736C51.6536 81.6996 51.0458 80.6676 50.7854 79.7216C50.5249 78.7756 50.3513 78.0016 50.3513 77.1416C50.1776 75.5936 50.2644 74.1317 50.1776 72.7557C50.0908 71.4657 49.8303 70.2617 49.3962 69.8317C49.2226 69.5737 48.9621 69.4877 48.528 69.4017C48.0939 69.3157 47.573 69.3157 46.9653 69.4017C45.8366 69.5737 44.7079 70.0897 43.6661 70.7777C41.4088 72.1537 39.4119 74.1317 37.3282 76.1957C35.2445 78.1736 33.074 80.3236 30.2958 81.9576C28.9066 82.7316 27.2571 83.4196 25.4338 83.5056C24.5656 83.5916 23.6106 83.5056 22.6556 83.0756C21.7006 82.7316 20.8324 81.9576 20.3114 81.1836C19.2696 79.5496 19.0091 77.9156 18.7487 76.4536C18.4882 74.9917 18.4014 73.5297 18.1409 72.2397C17.8805 70.9497 17.3595 69.8317 16.5782 69.2297C16.2309 68.9717 15.71 68.7137 15.189 68.6277C14.5813 68.5417 13.9736 68.5417 13.3658 68.6277C10.848 68.9717 8.5907 70.7777 6.50701 72.6697C4.42332 74.6477 2.51328 76.7977 0.255947 78.7756C-0.872716 79.7216 -2.00138 80.6676 -3.39051 81.4416C-4.69281 82.1296 -6.25557 82.6456 -7.81834 82.6456C-8.0788 82.6456 -8.25244 82.4736 -8.25244 82.2156C-8.25244 81.9576 -8.0788 81.7856 -7.81834 81.7856C-6.42922 81.6996 -5.12691 81.1836 -3.99825 80.4956C-2.78276 79.7216 -1.74092 78.7756 -0.785897 77.8296C1.21097 75.8517 3.03419 73.5297 5.11788 71.3797C6.15973 70.3477 7.28839 69.3157 8.50388 68.3697C9.71936 67.5097 11.1953 66.6497 12.8449 66.3057C13.6263 66.1337 14.4945 66.1337 15.3627 66.1337C16.2309 66.2197 17.1859 66.5637 17.9673 67.0797C18.7487 67.5957 19.3564 68.3697 19.7905 69.1437C20.2246 69.9177 20.4851 70.6917 20.6587 71.4657C21.0928 73.0137 21.2665 74.4757 21.5269 75.8516C21.7874 77.2276 22.1347 78.5176 22.7424 79.2916C23.0029 79.7216 23.3501 79.8936 23.7842 80.0656C24.2183 80.2376 24.7393 80.2376 25.2602 80.2376C26.3889 80.1516 27.5175 79.6356 28.6462 79.0336C30.9035 77.6576 32.9004 75.5937 34.8972 73.6157C36.9809 71.5517 39.0646 69.4017 41.7561 67.6817C43.1452 66.8217 44.6211 66.0477 46.4443 65.7037C47.3125 65.5317 48.2676 65.5317 49.3094 65.7037C50.3513 65.8757 51.4799 66.3917 52.2613 67.2517C53.0427 68.1117 53.39 69.0577 53.6504 69.9177C53.9109 70.7777 53.9977 71.6377 53.9977 72.4117C54.0845 73.9597 54.0845 75.4217 54.2582 76.7116C54.345 77.3136 54.4318 78.0016 54.6054 78.4316C54.7791 78.9476 54.9527 79.2056 55.1264 79.2916C55.3868 79.5496 56.6023 79.6356 57.6442 79.2916C58.686 78.9476 59.9015 78.3456 60.9433 77.5716C62.072 76.7976 63.1138 75.9376 64.2425 74.9917C66.413 73.1857 68.4967 71.1217 71.0145 69.3157C72.23 68.3697 73.5323 67.5097 75.0082 66.8217C75.7896 66.4777 76.571 66.2197 77.4392 65.9617C78.3074 65.7897 79.1756 65.7037 80.1306 65.7897C81.0856 65.8757 82.2143 66.1337 83.0825 66.9937C83.9507 67.7677 84.298 68.8857 84.3848 69.7457C84.6453 71.4657 84.3848 73.0137 84.1244 74.3897C83.8639 75.8517 83.6903 77.2276 83.7771 78.4316C83.8639 79.0336 84.0375 79.5496 84.3848 79.9796C84.7321 80.3236 85.3398 80.5816 86.0344 80.6676C86.2949 80.6676 86.4685 80.9256 86.3817 81.1836C86.0344 81.4416 85.8608 81.6136 85.6003 81.6136Z" fill="white"/>
<path d="M85.6003 54.8675C84.8189 54.9535 83.9507 54.8675 83.0825 54.3515C82.3011 53.8355 81.867 52.8895 81.6934 52.1155C81.2593 50.4815 81.4329 49.0196 81.4329 47.5576C81.4329 46.0956 81.5198 44.7196 81.2593 43.6016C81.0856 43.0856 80.912 42.7416 80.6516 42.5696C80.3911 42.3976 80.0438 42.3116 79.5229 42.3116C78.481 42.3116 77.2656 42.7416 76.2237 43.3436C75.095 43.9456 73.9664 44.7196 72.9245 45.5796C70.754 47.3856 68.6703 49.3635 66.4998 51.3415C65.3712 52.2875 64.2425 53.3195 62.9402 54.1795C61.6379 55.0395 60.2488 55.8995 58.5124 56.4155C57.6442 56.6735 56.6891 56.8455 55.7341 56.7595C54.7791 56.7595 53.5636 56.5015 52.6086 55.7275C51.6536 54.9535 51.0458 53.9215 50.7854 52.9755C50.5249 52.0295 50.3513 51.2555 50.3513 50.3955C50.1776 48.8476 50.2644 47.3856 50.1776 46.0096C50.0908 44.7196 49.8303 43.5156 49.3962 43.0856C49.2226 42.8276 48.9621 42.7416 48.528 42.6556C48.0939 42.5696 47.573 42.5696 46.9653 42.6556C45.8366 42.8276 44.7079 43.3436 43.6661 44.0316C41.4088 45.4076 39.4119 47.3856 37.3282 49.4495C35.2445 51.4275 33.074 53.5775 30.2958 55.2115C28.9066 55.9855 27.2571 56.6735 25.4338 56.7595C24.5656 56.8455 23.6106 56.7595 22.6556 56.3295C21.7006 55.9855 20.8324 55.2115 20.3114 54.4375C19.2696 52.8035 19.0091 51.1695 18.7487 49.7075C18.4882 48.2456 18.4014 46.7836 18.1409 45.4936C17.8805 44.2036 17.3595 43.0856 16.5782 42.4836C16.2309 42.2256 15.71 41.9676 15.189 41.8816C14.5813 41.7956 13.9736 41.7956 13.3658 41.8816C10.848 42.2256 8.5907 44.0316 6.50701 45.9236C4.42332 47.9016 2.51328 50.0515 0.255947 52.0295C-0.872716 52.9755 -2.00138 53.9215 -3.39051 54.6955C-4.69281 55.3835 -6.25557 55.8995 -7.81834 55.8995C-8.0788 55.8995 -8.25244 55.7275 -8.25244 55.4695C-8.25244 55.2115 -8.0788 55.0395 -7.81834 55.0395C-6.42922 54.9535 -5.12691 54.4375 -3.99825 53.7495C-2.78276 52.9755 -1.74092 52.0295 -0.785897 51.0835C1.21097 49.1055 3.03419 46.7836 5.11788 44.6336C6.15973 43.6016 7.28839 42.5696 8.50388 41.6236C9.71936 40.7636 11.1953 39.9036 12.8449 39.5596C13.6263 39.3876 14.4945 39.3876 15.3627 39.3876C16.2309 39.4736 17.1859 39.8176 17.9673 40.3336C18.7487 40.8496 19.3564 41.6236 19.7905 42.3976C20.2246 43.1716 20.4851 43.9456 20.6587 44.7196C21.0928 46.2676 21.2665 47.7296 21.5269 49.1056C21.7874 50.4815 22.1347 51.7715 22.7424 52.5455C23.0029 52.9755 23.3501 53.1475 23.7842 53.3195C24.2183 53.4915 24.7393 53.4915 25.2602 53.4915C26.3889 53.4055 27.5175 52.8895 28.6462 52.2875C30.9035 50.9115 32.9004 48.8476 34.8972 46.8696C36.9809 44.8056 39.0646 42.6556 41.7561 40.9356C43.1452 40.0756 44.6211 39.3016 46.4443 38.9576C47.3125 38.7856 48.2676 38.7856 49.3094 38.9576C50.3513 39.1296 51.4799 39.6456 52.2613 40.5056C53.0427 41.3656 53.39 42.3116 53.6504 43.1716C53.9109 44.0316 53.9977 44.8916 53.9977 45.6656C54.0845 47.2136 54.0845 48.6756 54.2582 49.9655C54.345 50.5675 54.4318 51.2555 54.6054 51.6855C54.7791 52.2015 54.9527 52.4595 55.1264 52.5455C55.3868 52.8035 56.6023 52.8895 57.6442 52.5455C58.686 52.2015 59.9015 51.5995 60.9433 50.8255C62.072 50.0515 63.1138 49.1916 64.2425 48.2456C66.413 46.4396 68.4967 44.3756 71.0145 42.5696C72.23 41.6236 73.5323 40.7636 75.0082 40.0756C75.7896 39.7316 76.571 39.4736 77.4392 39.2156C78.3074 39.0436 79.1756 38.9576 80.1306 39.0436C81.0856 39.1296 82.2143 39.3876 83.0825 40.2476C83.9507 41.0216 84.298 42.1396 84.3848 42.9996C84.6453 44.7196 84.3848 46.2676 84.1244 47.6436C83.8639 49.1055 83.6903 50.4815 83.7771 51.6855C83.8639 52.2875 84.0375 52.8035 84.3848 53.2335C84.7321 53.5775 85.3398 53.8355 86.0344 53.9215C86.2949 53.9215 86.4685 54.1795 86.3817 54.4375C86.0344 54.6955 85.8608 54.8675 85.6003 54.8675Z" fill="white"/>
</svg>
