<svg width="94" height="56" viewBox="0 0 94 56" fill="none" xmlns="http://www.w3.org/2000/svg">
<path d="M0.572888 53.6211C7.25867 47.4804 15.3552 43.7833 22.9815 39.2716C30.7019 34.9229 38.4222 30.5742 46.1896 26.3069C53.957 22.0396 61.7244 17.7723 69.4918 13.505C73.3755 11.3713 77.3062 9.31913 81.1899 7.18548C85.0736 5.05183 89.0043 2.99964 92.935 0.947443C93.2838 0.746069 93.6864 0.839406 93.7874 1.21555C93.9284 1.45991 93.8079 1.85528 93.5463 2.0063C89.8037 4.38431 86.0611 6.76231 82.2715 9.05886C78.4818 11.3554 74.7392 13.7334 70.9496 16.03C63.4173 20.7045 55.791 25.2162 48.2117 29.8093C40.5854 34.3209 33.0062 38.914 25.3799 43.4257C17.6595 47.7744 10.4094 52.9377 1.74854 55.6574C1.04411 55.8469 0.278952 55.5285 0.0771366 54.7762C0.023255 54.4815 0.18393 53.9543 0.572888 53.6211Z" fill="#5F88E3"/>
</svg>
