<svg width="510" height="580" viewBox="0 0 510 580" fill="none" xmlns="http://www.w3.org/2000/svg">
<rect y="-0.00012207" width="510" height="580" rx="48" fill="white"/>
<mask id="mask0_148_1122" style="mask-type:alpha" maskUnits="userSpaceOnUse" x="0" y="-1" width="510" height="581">
<rect y="-0.00012207" width="510" height="580" rx="48" fill="white"/>
</mask>
<g mask="url(#mask0_148_1122)">
<g opacity="0.08" filter="url(#filter0_f_148_1122)">
<rect x="110" y="526" width="290" height="22" rx="11" fill="#365BBD"/>
</g>
<rect x="145" y="55" width="219" height="471" fill="white"/>
<g filter="url(#filter1_i_148_1122)">
<path fill-rule="evenodd" clip-rule="evenodd" d="M378.26 213.611V492.521C378.26 509.03 376.537 515.017 373.301 521.053C370.066 527.088 365.318 531.825 359.269 535.053C353.219 538.281 347.218 540 330.67 540H179.33C162.782 540 156.781 538.281 150.731 535.053C144.682 531.825 139.934 527.088 136.699 521.053C133.463 515.017 131.74 509.03 131.74 492.521V225.764C130.779 225.764 130 224.987 130 224.028V190.463C130 189.504 130.779 188.727 131.74 188.727V180.046C130.779 180.046 130 179.269 130 178.31V144.745C130 143.787 130.779 143.009 131.74 143.009V127.384C130.779 127.384 130 126.607 130 125.648V109.444C130 108.486 130.779 107.708 131.74 107.708V87.4794C131.74 70.9697 133.463 64.983 136.699 58.9473C139.934 52.9116 144.682 48.1748 150.731 44.9469C156.781 41.719 162.782 40 179.33 40H330.67C347.218 40 353.219 41.719 359.269 44.9469C365.318 48.1748 370.066 52.9116 373.301 58.9473C376.537 64.983 378.26 70.9697 378.26 87.4794V155.162C379.221 155.162 380 155.939 380 156.898V211.875C380 212.834 379.221 213.611 378.26 213.611ZM145.661 90.8102C145.661 78.4942 145.661 72.3362 148.064 67.6322C150.177 63.4943 153.549 60.1302 157.696 58.0218C162.411 55.625 168.584 55.625 180.928 55.625L189.745 55.625C191.882 55.6307 193.649 57.283 193.804 59.3771C193.886 62.2551 194.443 64.3673 195.42 66.1903C196.482 68.1708 198.04 69.725 200.025 70.7842C202.01 71.8434 204.337 72.4074 207.619 72.4074H301.198C304.48 72.4074 306.807 71.8434 308.792 70.7842C310.777 69.725 312.335 68.1708 313.396 66.1903C314.372 64.3702 314.928 62.2619 315.012 59.3912C315.16 57.2904 316.931 55.6307 319.073 55.625L327.912 55.625C340.256 55.625 346.429 55.625 351.144 58.0218C355.291 60.1302 358.663 63.4943 360.776 67.6322C363.179 72.3362 363.179 78.4942 363.179 90.8102V490.347C363.179 502.663 363.179 508.821 360.776 513.525C358.663 517.663 355.291 521.027 351.144 523.136C346.429 525.532 340.256 525.532 327.912 525.532H180.928C168.584 525.532 162.411 525.532 157.696 523.136C153.549 521.027 150.177 517.663 148.064 513.525C145.661 508.821 145.661 502.663 145.661 490.347V90.8102Z" fill="white"/>
</g>
<path d="M228.493 99.084C227.917 99.084 227.421 99.024 227.005 98.904C226.597 98.784 226.289 98.648 226.081 98.496C225.881 98.36 225.781 98.224 225.781 98.088C225.781 97.984 225.817 97.86 225.889 97.716C225.969 97.572 226.061 97.448 226.165 97.344C226.269 97.232 226.353 97.176 226.417 97.176C226.449 97.176 226.489 97.188 226.537 97.212C226.585 97.236 226.645 97.268 226.717 97.308C226.877 97.388 227.085 97.48 227.341 97.584C227.605 97.688 227.917 97.74 228.277 97.74C228.501 97.74 228.709 97.708 228.901 97.644C229.101 97.572 229.261 97.46 229.381 97.308C229.501 97.148 229.561 96.948 229.561 96.708C229.561 96.436 229.469 96.22 229.285 96.06C229.109 95.9 228.881 95.76 228.601 95.64C228.321 95.52 228.029 95.392 227.725 95.256C227.501 95.16 227.281 95.052 227.065 94.932C226.857 94.804 226.669 94.652 226.501 94.476C226.333 94.292 226.197 94.072 226.093 93.816C225.997 93.552 225.949 93.236 225.949 92.868C225.949 92.34 226.077 91.904 226.333 91.56C226.597 91.208 226.941 90.948 227.365 90.78C227.789 90.604 228.245 90.516 228.733 90.516C228.973 90.516 229.209 90.536 229.441 90.576C229.673 90.608 229.885 90.66 230.077 90.732C230.269 90.796 230.429 90.872 230.557 90.96C230.725 91.072 230.809 91.192 230.809 91.32C230.809 91.408 230.777 91.524 230.713 91.668C230.657 91.812 230.585 91.94 230.497 92.052C230.409 92.164 230.325 92.22 230.245 92.22C230.205 92.22 230.153 92.204 230.089 92.172C230.033 92.14 229.953 92.104 229.849 92.064C229.737 92.016 229.597 91.972 229.429 91.932C229.269 91.884 229.069 91.86 228.829 91.86C228.525 91.86 228.277 91.904 228.085 91.992C227.901 92.072 227.769 92.18 227.689 92.316C227.609 92.452 227.569 92.604 227.569 92.772C227.569 93.012 227.633 93.208 227.761 93.36C227.889 93.512 228.057 93.64 228.265 93.744C228.481 93.84 228.717 93.936 228.973 94.032C229.221 94.136 229.473 94.252 229.729 94.38C229.993 94.5 230.233 94.652 230.449 94.836C230.673 95.02 230.849 95.252 230.977 95.532C231.113 95.812 231.181 96.156 231.181 96.564C231.181 97.004 231.109 97.384 230.965 97.704C230.821 98.024 230.621 98.288 230.365 98.496C230.109 98.696 229.821 98.844 229.501 98.94C229.181 99.036 228.845 99.084 228.493 99.084ZM232.933 99.024C232.509 99.024 232.297 98.908 232.297 98.676V94.74C232.297 94.364 232.285 94.068 232.261 93.852C232.237 93.636 232.213 93.472 232.189 93.36C232.165 93.248 232.153 93.164 232.153 93.108C232.153 93.044 232.197 92.992 232.285 92.952C232.373 92.904 232.481 92.868 232.609 92.844C232.737 92.812 232.861 92.792 232.981 92.784C233.101 92.768 233.193 92.76 233.257 92.76C233.377 92.76 233.465 92.804 233.521 92.892C233.577 92.98 233.617 93.084 233.641 93.204C233.665 93.324 233.689 93.436 233.713 93.54C233.897 93.308 234.145 93.1 234.457 92.916C234.769 92.732 235.121 92.64 235.513 92.64C235.761 92.64 235.989 92.672 236.197 92.736C236.405 92.792 236.589 92.888 236.749 93.024C236.917 93.16 237.045 93.344 237.133 93.576C237.333 93.328 237.597 93.112 237.925 92.928C238.253 92.736 238.613 92.64 239.005 92.64C239.269 92.64 239.509 92.676 239.725 92.748C239.949 92.812 240.141 92.92 240.301 93.072C240.461 93.224 240.585 93.424 240.673 93.672C240.761 93.92 240.805 94.224 240.805 94.584V98.676C240.805 98.908 240.593 99.024 240.169 99.024H239.929C239.505 99.024 239.293 98.908 239.293 98.676V94.788C239.293 94.516 239.225 94.3 239.089 94.14C238.953 93.98 238.733 93.9 238.429 93.9C238.237 93.9 238.069 93.94 237.925 94.02C237.781 94.1 237.657 94.2 237.553 94.32C237.457 94.432 237.381 94.532 237.325 94.62C237.269 94.708 237.233 94.76 237.217 94.776V94.008C237.249 94.104 237.269 94.204 237.277 94.308C237.293 94.412 237.301 94.512 237.301 94.608V98.676C237.301 98.908 237.089 99.024 236.665 99.024H236.437C236.005 99.024 235.789 98.908 235.789 98.676V94.788C235.789 94.516 235.721 94.3 235.585 94.14C235.457 93.98 235.241 93.9 234.937 93.9C234.785 93.9 234.641 93.928 234.505 93.984C234.377 94.04 234.265 94.112 234.169 94.2C234.073 94.28 233.993 94.364 233.929 94.452C233.873 94.532 233.833 94.596 233.809 94.644V98.676C233.809 98.908 233.597 99.024 233.173 99.024H232.933ZM244.029 99.084C243.405 99.084 242.937 98.924 242.625 98.604C242.313 98.276 242.157 97.848 242.157 97.32C242.157 96.984 242.225 96.68 242.361 96.408C242.497 96.136 242.705 95.904 242.985 95.712C243.273 95.512 243.649 95.364 244.113 95.268C244.577 95.164 245.137 95.108 245.793 95.1V94.644C245.793 94.404 245.709 94.212 245.541 94.068C245.381 93.924 245.109 93.852 244.725 93.852C244.413 93.852 244.141 93.888 243.909 93.96C243.677 94.032 243.489 94.104 243.345 94.176C243.209 94.248 243.117 94.284 243.069 94.284C242.997 94.284 242.917 94.228 242.829 94.116C242.741 94.004 242.665 93.88 242.601 93.744C242.545 93.608 242.517 93.508 242.517 93.444C242.517 93.316 242.617 93.192 242.817 93.072C243.017 92.944 243.289 92.84 243.633 92.76C243.985 92.68 244.373 92.64 244.797 92.64C245.381 92.64 245.857 92.724 246.225 92.892C246.593 93.052 246.865 93.28 247.041 93.576C247.217 93.864 247.305 94.204 247.305 94.596V97.008C247.305 97.392 247.317 97.696 247.341 97.92C247.365 98.136 247.389 98.3 247.413 98.412C247.437 98.516 247.449 98.6 247.449 98.664C247.449 98.728 247.405 98.784 247.317 98.832C247.229 98.872 247.121 98.908 246.993 98.94C246.865 98.964 246.741 98.984 246.621 99C246.501 99.008 246.409 99.012 246.345 99.012C246.225 99.012 246.137 98.968 246.081 98.88C246.025 98.784 245.985 98.672 245.961 98.544C245.937 98.408 245.913 98.288 245.889 98.184C245.817 98.272 245.701 98.388 245.541 98.532C245.381 98.676 245.177 98.804 244.929 98.916C244.681 99.028 244.381 99.084 244.029 99.084ZM244.437 97.872C244.741 97.872 245.005 97.796 245.229 97.644C245.461 97.484 245.649 97.296 245.793 97.08V96.168C245.497 96.168 245.221 96.184 244.965 96.216C244.717 96.248 244.493 96.3 244.293 96.372C244.101 96.444 243.953 96.548 243.849 96.684C243.745 96.812 243.693 96.976 243.693 97.176C243.693 97.392 243.753 97.564 243.873 97.692C244.001 97.812 244.189 97.872 244.437 97.872ZM249.668 99.024C249.244 99.024 249.032 98.908 249.032 98.676V94.74C249.032 94.364 249.02 94.068 248.996 93.852C248.972 93.636 248.948 93.472 248.924 93.36C248.9 93.248 248.888 93.164 248.888 93.108C248.888 93.044 248.932 92.992 249.02 92.952C249.108 92.904 249.216 92.868 249.344 92.844C249.472 92.812 249.596 92.792 249.716 92.784C249.836 92.768 249.928 92.76 249.992 92.76C250.104 92.76 250.188 92.804 250.244 92.892C250.308 92.98 250.352 93.084 250.376 93.204C250.4 93.324 250.424 93.436 250.448 93.54C250.6 93.292 250.78 93.08 250.988 92.904C251.204 92.728 251.468 92.64 251.78 92.64C252.06 92.64 252.244 92.692 252.332 92.796C252.428 92.9 252.476 93.044 252.476 93.228C252.476 93.3 252.46 93.408 252.428 93.552C252.404 93.688 252.368 93.816 252.32 93.936C252.272 94.048 252.212 94.104 252.14 94.104C252.06 94.104 251.98 94.088 251.9 94.056C251.82 94.016 251.704 93.996 251.552 93.996C251.376 93.996 251.216 94.04 251.072 94.128C250.928 94.216 250.808 94.312 250.712 94.416C250.624 94.512 250.568 94.588 250.544 94.644V98.676C250.544 98.908 250.328 99.024 249.896 99.024H249.668ZM255.169 99.084C254.937 99.084 254.717 99.052 254.509 98.988C254.309 98.924 254.133 98.82 253.981 98.676C253.829 98.532 253.709 98.344 253.621 98.112C253.533 97.872 253.489 97.584 253.489 97.248V93.936H253.165C252.949 93.936 252.841 93.764 252.841 93.42V93.24C252.841 92.896 252.949 92.724 253.165 92.724H253.489L253.645 91.548C253.677 91.316 253.861 91.2 254.197 91.2H254.485C254.829 91.2 255.001 91.316 255.001 91.548V92.724H255.733C255.949 92.724 256.057 92.896 256.057 93.24V93.42C256.057 93.764 255.949 93.936 255.733 93.936H255.001V97.224C255.001 97.464 255.045 97.632 255.133 97.728C255.221 97.824 255.345 97.872 255.505 97.872C255.609 97.872 255.689 97.864 255.745 97.848C255.809 97.832 255.861 97.824 255.901 97.824C255.973 97.824 256.033 97.88 256.081 97.992C256.129 98.104 256.165 98.224 256.189 98.352C256.221 98.472 256.237 98.548 256.237 98.58C256.237 98.732 256.173 98.848 256.045 98.928C255.917 99 255.769 99.044 255.601 99.06C255.441 99.076 255.297 99.084 255.169 99.084ZM259.583 99.084C259.007 99.084 258.511 99.024 258.095 98.904C257.687 98.784 257.379 98.648 257.171 98.496C256.971 98.36 256.871 98.224 256.871 98.088C256.871 97.984 256.907 97.86 256.979 97.716C257.059 97.572 257.151 97.448 257.255 97.344C257.359 97.232 257.443 97.176 257.507 97.176C257.539 97.176 257.579 97.188 257.627 97.212C257.675 97.236 257.735 97.268 257.807 97.308C257.967 97.388 258.175 97.48 258.431 97.584C258.695 97.688 259.007 97.74 259.367 97.74C259.591 97.74 259.799 97.708 259.991 97.644C260.191 97.572 260.351 97.46 260.471 97.308C260.591 97.148 260.651 96.948 260.651 96.708C260.651 96.436 260.559 96.22 260.375 96.06C260.199 95.9 259.971 95.76 259.691 95.64C259.411 95.52 259.119 95.392 258.815 95.256C258.591 95.16 258.371 95.052 258.155 94.932C257.947 94.804 257.759 94.652 257.591 94.476C257.423 94.292 257.287 94.072 257.183 93.816C257.087 93.552 257.039 93.236 257.039 92.868C257.039 92.34 257.167 91.904 257.423 91.56C257.687 91.208 258.031 90.948 258.455 90.78C258.879 90.604 259.335 90.516 259.823 90.516C260.063 90.516 260.299 90.536 260.531 90.576C260.763 90.608 260.975 90.66 261.167 90.732C261.359 90.796 261.519 90.872 261.647 90.96C261.815 91.072 261.899 91.192 261.899 91.32C261.899 91.408 261.867 91.524 261.803 91.668C261.747 91.812 261.675 91.94 261.587 92.052C261.499 92.164 261.415 92.22 261.335 92.22C261.295 92.22 261.243 92.204 261.179 92.172C261.123 92.14 261.043 92.104 260.939 92.064C260.827 92.016 260.687 91.972 260.519 91.932C260.359 91.884 260.159 91.86 259.919 91.86C259.615 91.86 259.367 91.904 259.175 91.992C258.991 92.072 258.859 92.18 258.779 92.316C258.699 92.452 258.659 92.604 258.659 92.772C258.659 93.012 258.723 93.208 258.851 93.36C258.979 93.512 259.147 93.64 259.355 93.744C259.571 93.84 259.807 93.936 260.063 94.032C260.311 94.136 260.563 94.252 260.819 94.38C261.083 94.5 261.323 94.652 261.539 94.836C261.763 95.02 261.939 95.252 262.067 95.532C262.203 95.812 262.271 96.156 262.271 96.564C262.271 97.004 262.199 97.384 262.055 97.704C261.911 98.024 261.711 98.288 261.455 98.496C261.199 98.696 260.911 98.844 260.591 98.94C260.271 99.036 259.935 99.084 259.583 99.084ZM266.087 99.084C265.087 99.084 264.335 98.828 263.831 98.316C263.335 97.796 263.087 96.984 263.087 95.88C263.087 95.312 263.155 94.824 263.291 94.416C263.427 94.008 263.623 93.672 263.879 93.408C264.143 93.144 264.459 92.952 264.827 92.832C265.203 92.704 265.627 92.64 266.099 92.64C266.395 92.64 266.687 92.668 266.975 92.724C267.271 92.78 267.519 92.864 267.719 92.976C267.919 93.088 268.019 93.22 268.019 93.372C268.019 93.436 267.987 93.536 267.923 93.672C267.859 93.808 267.783 93.932 267.695 94.044C267.615 94.148 267.539 94.2 267.467 94.2C267.451 94.2 267.427 94.192 267.395 94.176C267.363 94.16 267.327 94.144 267.287 94.128C267.183 94.072 267.035 94.012 266.843 93.948C266.659 93.884 266.427 93.852 266.147 93.852C265.651 93.852 265.279 94.012 265.031 94.332C264.783 94.644 264.659 95.148 264.659 95.844C264.659 96.532 264.771 97.044 264.995 97.38C265.227 97.708 265.611 97.872 266.147 97.872C266.443 97.872 266.691 97.836 266.891 97.764C267.099 97.692 267.263 97.632 267.383 97.584C267.423 97.568 267.459 97.556 267.491 97.548C267.523 97.532 267.547 97.524 267.563 97.524C267.643 97.524 267.723 97.576 267.803 97.68C267.891 97.784 267.963 97.9 268.019 98.028C268.083 98.156 268.115 98.256 268.115 98.328C268.115 98.464 268.039 98.58 267.887 98.676C267.743 98.772 267.559 98.852 267.335 98.916C267.119 98.972 266.895 99.012 266.663 99.036C266.439 99.068 266.247 99.084 266.087 99.084ZM270.771 99.084C270.147 99.084 269.679 98.924 269.367 98.604C269.055 98.276 268.899 97.848 268.899 97.32C268.899 96.984 268.967 96.68 269.103 96.408C269.239 96.136 269.447 95.904 269.727 95.712C270.015 95.512 270.391 95.364 270.855 95.268C271.319 95.164 271.879 95.108 272.535 95.1V94.644C272.535 94.404 272.451 94.212 272.283 94.068C272.123 93.924 271.851 93.852 271.467 93.852C271.155 93.852 270.883 93.888 270.651 93.96C270.419 94.032 270.231 94.104 270.087 94.176C269.951 94.248 269.859 94.284 269.811 94.284C269.739 94.284 269.659 94.228 269.571 94.116C269.483 94.004 269.407 93.88 269.343 93.744C269.287 93.608 269.259 93.508 269.259 93.444C269.259 93.316 269.359 93.192 269.559 93.072C269.759 92.944 270.031 92.84 270.375 92.76C270.727 92.68 271.115 92.64 271.539 92.64C272.123 92.64 272.599 92.724 272.967 92.892C273.335 93.052 273.607 93.28 273.783 93.576C273.959 93.864 274.047 94.204 274.047 94.596V97.008C274.047 97.392 274.059 97.696 274.083 97.92C274.107 98.136 274.131 98.3 274.155 98.412C274.179 98.516 274.191 98.6 274.191 98.664C274.191 98.728 274.147 98.784 274.059 98.832C273.971 98.872 273.863 98.908 273.735 98.94C273.607 98.964 273.483 98.984 273.363 99C273.243 99.008 273.151 99.012 273.087 99.012C272.967 99.012 272.879 98.968 272.823 98.88C272.767 98.784 272.727 98.672 272.703 98.544C272.679 98.408 272.655 98.288 272.631 98.184C272.559 98.272 272.443 98.388 272.283 98.532C272.123 98.676 271.919 98.804 271.671 98.916C271.423 99.028 271.123 99.084 270.771 99.084ZM271.179 97.872C271.483 97.872 271.747 97.796 271.971 97.644C272.203 97.484 272.391 97.296 272.535 97.08V96.168C272.239 96.168 271.963 96.184 271.707 96.216C271.459 96.248 271.235 96.3 271.035 96.372C270.843 96.444 270.695 96.548 270.591 96.684C270.487 96.812 270.435 96.976 270.435 97.176C270.435 97.392 270.495 97.564 270.615 97.692C270.743 97.812 270.931 97.872 271.179 97.872ZM277.43 99.084C277.19 99.084 276.966 99.052 276.758 98.988C276.558 98.924 276.382 98.82 276.23 98.676C276.078 98.532 275.958 98.344 275.87 98.112C275.79 97.872 275.75 97.584 275.75 97.248V90.3C275.75 90.076 275.962 89.964 276.386 89.964H276.614C277.038 89.964 277.25 90.076 277.25 90.3V97.224C277.25 97.464 277.294 97.632 277.382 97.728C277.478 97.824 277.606 97.872 277.766 97.872C277.862 97.872 277.938 97.864 277.994 97.848C278.058 97.832 278.11 97.824 278.15 97.824C278.222 97.824 278.282 97.88 278.33 97.992C278.378 98.104 278.414 98.224 278.438 98.352C278.47 98.472 278.486 98.548 278.486 98.58C278.486 98.732 278.422 98.848 278.294 98.928C278.166 99 278.018 99.044 277.85 99.06C277.69 99.076 277.55 99.084 277.43 99.084ZM281.698 99.084C280.642 99.084 279.866 98.804 279.37 98.244C278.874 97.684 278.626 96.904 278.626 95.904C278.626 95.136 278.742 94.512 278.974 94.032C279.214 93.552 279.55 93.2 279.982 92.976C280.414 92.752 280.922 92.64 281.506 92.64C282.114 92.64 282.602 92.776 282.97 93.048C283.346 93.312 283.622 93.68 283.798 94.152C283.974 94.616 284.062 95.148 284.062 95.748C284.062 95.804 284.026 95.884 283.954 95.988C283.89 96.092 283.814 96.184 283.726 96.264C283.638 96.344 283.57 96.384 283.522 96.384H280.21C280.25 96.92 280.402 97.304 280.666 97.536C280.93 97.76 281.29 97.872 281.746 97.872C282.034 97.872 282.282 97.836 282.49 97.764C282.706 97.692 282.882 97.624 283.018 97.56C283.162 97.488 283.258 97.452 283.306 97.452C283.378 97.452 283.458 97.508 283.546 97.62C283.634 97.724 283.706 97.84 283.762 97.968C283.826 98.088 283.858 98.184 283.858 98.256C283.858 98.384 283.786 98.5 283.642 98.604C283.506 98.7 283.326 98.788 283.102 98.868C282.878 98.94 282.642 98.992 282.394 99.024C282.146 99.064 281.914 99.084 281.698 99.084ZM280.21 95.304H282.562C282.562 94.856 282.474 94.504 282.298 94.248C282.13 93.984 281.862 93.852 281.494 93.852C281.15 93.852 280.862 93.964 280.63 94.188C280.406 94.412 280.266 94.784 280.21 95.304Z" fill="#141922"/>
</g>
<path d="M446.292 373.296C443.989 360.88 433.362 339.417 430.528 334.805C403.606 329.306 375.799 327.532 375.799 327.532C355.608 364.073 338.25 447.619 338.25 447.619C374.736 473.871 420.964 474.404 420.964 474.404C431.237 415.158 446.292 373.296 446.292 373.296Z" fill="white"/>
<path d="M445.583 373.296L445.052 370.99L444.343 368.507C443.812 366.911 443.281 365.137 442.749 363.54C441.687 360.348 440.447 356.977 439.03 353.785C437.79 350.592 436.373 347.399 434.779 344.206C433.362 341.013 431.768 337.998 429.997 334.982L430.174 335.16C421.141 333.386 412.108 331.967 402.898 330.902C393.865 329.838 384.655 328.951 375.445 328.242L376.153 327.887C371.194 337.111 367.298 346.867 363.578 356.623C360.036 366.556 356.848 376.489 353.837 386.6C350.826 396.711 348.169 406.821 345.689 417.11C343.21 427.22 340.73 437.508 338.605 447.796L338.428 447.087C344.45 451.344 350.649 454.892 357.379 458.085C363.932 461.277 370.84 463.761 377.747 465.889C384.655 468.018 391.917 469.614 399.001 470.856C406.086 472.098 413.525 472.985 420.61 473.162L419.37 474.226C421.141 465.712 422.912 457.198 424.86 448.683C426.809 440.169 428.757 431.655 430.882 423.318C433.008 414.804 435.31 406.467 437.613 398.13C438.853 393.873 440.092 389.793 441.332 385.536L443.281 379.327L444.343 376.135L444.875 374.538C445.229 374.183 445.583 373.474 445.583 373.296ZM447 373.474L444.875 379.86L442.749 386.068C441.509 390.148 440.092 394.405 438.853 398.485C436.373 406.821 434.248 415.336 432.122 423.673C430.174 432.187 428.226 440.701 426.632 449.215C425.746 453.473 425.038 457.73 424.329 461.987C423.621 466.244 422.912 470.501 422.381 474.936C422.204 475.645 421.672 476 421.141 476C413.702 475.645 406.44 474.758 399.179 473.339C391.917 471.92 384.832 470.146 377.747 468.018C370.663 465.712 363.755 463.051 357.202 459.858C350.472 456.665 344.272 452.763 338.25 448.506C338.073 448.329 337.896 448.151 338.073 447.796C340.199 437.508 342.678 427.22 345.158 417.11C347.638 406.821 350.472 396.711 353.305 386.6C356.316 376.489 359.327 366.379 363.047 356.445C366.589 346.512 370.486 336.756 375.622 327.355C375.799 327.177 375.976 327 376.331 327C385.541 327.71 394.751 328.774 403.784 330.015C412.817 331.257 422.027 332.854 431.06 334.627C431.237 334.627 431.237 334.627 431.237 334.805C433.008 337.82 434.602 340.836 436.196 344.029C437.79 347.221 439.207 350.237 440.624 353.43C442.041 356.623 443.281 359.815 444.52 363.186C445.052 364.782 445.583 366.556 446.114 368.152L446.823 370.636C446.646 371.523 446.823 372.41 447 373.474Z" fill="#B1B4DE"/>
<path d="M392.094 344.915L375.622 361.944L398.293 368.507L392.094 344.915Z" fill="#00CD82"/>
<path d="M372.965 374.361L366.412 394.937L388.906 402.564L394.928 381.633L372.965 374.361Z" fill="#F78F4B"/>
<path d="M408.743 386.068L402.189 407.176L425.392 414.981L430.528 393.34L408.743 386.068Z" fill="#3E8AE5"/>
<path d="M428.226 354.671C415.296 350.592 405.909 372.587 421.318 377.554C436.904 382.698 441.155 358.751 428.226 354.671Z" fill="#EA6595"/>
<path d="M388.374 346.334C383.238 352.188 378.102 357.687 372.788 363.186L372.434 361.589C376.153 362.831 379.873 364.073 383.592 365.137C387.312 366.201 391.208 367.265 394.928 368.152L393.688 369.394C391.74 361.589 390.145 354.139 388.374 346.334ZM388.906 344.383C391.208 352.365 393.688 360.525 395.636 368.684C395.813 369.217 395.459 369.749 394.928 369.749C394.751 369.749 394.573 369.749 394.396 369.749C390.677 368.33 386.957 367.265 383.238 366.201C379.519 365.137 375.622 364.073 371.902 363.186C371.371 363.008 371.017 362.476 371.194 362.121C371.194 361.944 371.371 361.767 371.371 361.767C377.039 355.913 383.061 350.059 388.906 344.383Z" fill="#190032"/>
<path d="M369.777 375.425C367.652 382.165 365.704 388.906 363.401 395.646L362.87 394.76C366.589 395.824 370.486 397.066 374.205 398.307C377.925 399.549 381.644 400.791 385.364 402.387L384.478 402.919L390.677 381.811L391.208 382.698C383.947 380.392 376.862 377.908 369.777 375.425ZM369.069 374.006C376.508 376.312 384.124 378.795 391.563 381.279C391.917 381.456 392.094 381.811 392.094 382.166L385.895 403.274C385.718 403.629 385.364 403.806 385.009 403.806C381.113 402.742 377.393 401.5 373.674 400.258C369.954 399.017 366.235 397.598 362.516 396.179C362.161 396.001 361.984 395.646 362.161 395.292C364.287 388.019 366.766 380.924 369.069 374.006Z" fill="#190032"/>
<path d="M405.555 387.31C403.607 394.227 401.658 400.968 399.533 407.708L399.002 406.467L422.204 414.271L420.964 414.981L426.632 393.34L426.986 393.873C419.37 391.921 412.462 389.793 405.555 387.31ZM404.669 385.713C412.285 388.196 419.724 390.857 426.986 393.34C427.163 393.34 427.34 393.695 427.34 393.873L422.735 415.69C422.558 416.223 422.204 416.577 421.672 416.4H421.495L398.293 408.595C397.762 408.418 397.585 407.886 397.762 407.354C399.887 400.081 402.19 392.808 404.669 385.713Z" fill="#190032"/>
<path d="M424.329 355.913C421.672 355.026 418.661 355.558 416.359 357.155C414.056 358.751 412.285 361.235 411.4 363.895C410.514 366.556 410.514 369.571 411.754 372.055C412.994 374.538 415.473 376.312 418.13 377.199C420.787 378.086 423.798 378.086 426.277 376.844C428.757 375.425 430.351 372.942 431.059 370.104C431.768 367.265 431.591 364.25 430.528 361.589C429.288 358.751 427.163 356.8 424.329 355.913ZM424.86 354.494C428.048 355.558 430.528 358.042 431.768 361.057C433.008 364.073 433.185 367.443 432.476 370.458C431.768 373.474 429.82 376.489 426.986 378.263C424.152 380.037 420.432 379.86 417.422 378.973C414.411 378.086 411.4 375.957 409.983 372.942C408.389 369.926 408.566 366.379 409.628 363.363C410.691 360.348 412.639 357.51 415.473 355.736C418.13 353.785 421.849 353.43 424.86 354.494Z" fill="#190032"/>
<path d="M430.528 334.982C425.037 345.093 416.182 357.864 415.827 363.186C415.473 368.507 435.487 370.636 446.291 373.474C444.697 357.687 430.528 334.982 430.528 334.982Z" fill="#EBECFF"/>
<path d="M359.859 409.837C360.744 410.014 361.453 410.724 361.984 411.433C362.515 412.143 362.692 413.03 363.047 413.917C363.578 415.513 363.932 417.11 364.995 418.174C365.526 418.529 366.235 418.883 366.943 418.883C367.652 418.883 368.36 418.529 368.892 418.174C370.131 417.287 371.194 416.045 372.965 415.158C374.736 414.271 377.039 414.626 378.279 416.223C379.519 417.819 379.519 419.593 380.05 421.012C380.581 422.608 381.467 423.495 382.707 423.673C383.946 423.85 385.186 422.786 386.426 421.721C387.135 421.189 387.666 420.657 388.551 420.125C389.26 419.593 390.323 419.415 391.385 419.415C392.448 419.593 393.334 419.948 394.042 420.657C394.751 421.367 395.105 422.254 395.282 423.14C395.813 424.737 395.99 426.511 396.876 427.575C397.762 428.639 399.356 428.994 400.595 428.285C401.835 427.575 403.075 426.333 404.492 425.269C405.2 424.737 406.086 424.382 407.149 424.382C408.211 424.382 409.097 424.737 409.805 425.446C411.222 426.865 411.4 428.639 411.931 430.236C412.285 431.832 412.994 433.251 414.411 433.783C414.588 433.783 414.765 434.138 414.765 434.315C414.765 434.493 414.41 434.67 414.233 434.67C413.348 434.315 412.462 433.783 412.108 433.074C411.577 432.364 411.4 431.477 411.045 430.59C410.514 428.994 410.16 427.398 409.097 426.511C408.566 426.156 407.857 425.801 407.149 425.801C406.44 425.801 405.732 426.156 405.2 426.511C403.961 427.398 402.898 428.639 401.127 429.526C399.533 430.413 397.053 430.058 395.813 428.462C394.573 426.865 394.573 425.092 394.042 423.673C393.511 422.076 392.625 421.012 391.208 420.835C389.968 420.657 388.729 421.721 387.489 422.786C386.78 423.318 386.249 423.85 385.363 424.382C384.655 424.914 383.592 425.269 382.53 425.092C381.467 424.914 380.581 424.56 379.873 423.85C379.164 423.14 378.81 422.254 378.456 421.367C377.925 419.77 377.747 417.996 376.862 416.932C375.976 415.868 374.559 415.513 373.319 416.223C372.08 416.932 370.84 418.174 369.423 419.061C368.714 419.593 367.829 419.948 366.766 419.948C365.881 419.948 364.818 419.593 364.109 418.883C362.692 417.464 362.515 415.69 361.984 414.094C361.63 412.498 360.921 411.079 359.504 410.546C359.327 410.546 359.15 410.192 359.327 410.014C359.504 410.014 359.682 409.837 359.859 409.837Z" fill="#CCCEF0"/>
<path d="M354.368 430.945C355.254 431.123 355.962 431.655 356.494 432.364C357.025 433.074 357.379 433.961 357.556 434.67C358.088 436.267 358.442 437.863 359.505 438.75C360.036 439.105 360.744 439.282 361.276 439.282C361.984 439.282 362.516 438.927 363.047 438.573C364.287 437.686 365.349 436.444 367.121 435.38C368.892 434.315 371.549 434.848 372.788 436.444C374.028 438.218 374.205 439.992 374.737 441.411C375.268 442.83 375.976 443.717 377.216 443.894C378.279 444.071 379.342 443.184 380.582 441.943C381.29 441.411 381.821 440.879 382.707 440.346C383.592 439.814 384.655 439.459 385.718 439.637C386.781 439.814 387.843 440.346 388.552 441.056C389.26 441.943 389.614 442.83 389.969 443.717C390.5 445.49 390.677 447.087 391.563 447.974C391.917 448.506 392.448 448.683 392.98 448.861C393.511 449.038 394.042 448.861 394.574 448.683C395.814 448.151 396.876 446.909 398.47 445.845C399.179 445.313 400.241 444.958 401.304 444.958C402.367 444.958 403.43 445.313 404.138 446.023C404.846 446.732 405.378 447.619 405.555 448.506C405.909 449.393 406.086 450.102 406.263 450.989C406.618 452.586 407.149 454.005 408.566 454.537C408.743 454.714 408.92 454.892 408.92 455.069C408.92 455.246 408.566 455.424 408.389 455.424C407.503 455.246 406.618 454.537 406.086 453.827C405.555 453.118 405.201 452.231 405.024 451.344C404.492 449.748 404.138 448.151 403.075 447.442C402.544 447.087 402.013 446.909 401.481 446.909C400.95 446.909 400.419 447.087 399.71 447.619C398.47 448.506 397.408 449.748 395.636 450.812C394.751 451.344 393.511 451.521 392.448 451.344C391.386 451.167 390.323 450.457 389.614 449.748C388.375 447.974 388.198 446.2 387.666 444.781C387.135 443.362 386.426 442.475 385.364 442.298C384.301 442.12 383.238 443.007 381.998 444.071C381.29 444.604 380.759 445.136 379.873 445.668C378.987 446.2 377.925 446.555 376.862 446.377C375.799 446.2 374.737 445.668 374.028 444.958C373.32 444.071 372.965 443.184 372.611 442.298C372.08 440.524 371.903 438.927 371.194 437.863C370.486 436.976 369.069 436.621 368.006 437.154C366.766 437.686 365.704 439.105 364.11 439.992C363.401 440.524 362.339 440.879 361.276 440.879C360.213 440.879 359.328 440.524 358.442 439.814C357.025 438.395 356.848 436.444 356.494 434.848C356.139 433.251 355.608 431.655 354.014 431.123C353.837 431.123 353.837 430.945 353.837 430.768C354.191 430.945 354.368 430.945 354.368 430.945Z" fill="#CCCEF0"/>
<defs>
<filter id="filter0_f_148_1122" x="90" y="506" width="330" height="62" filterUnits="userSpaceOnUse" color-interpolation-filters="sRGB">
<feFlood flood-opacity="0" result="BackgroundImageFix"/>
<feBlend mode="normal" in="SourceGraphic" in2="BackgroundImageFix" result="shape"/>
<feGaussianBlur stdDeviation="10" result="effect1_foregroundBlur_148_1122"/>
</filter>
<filter id="filter1_i_148_1122" x="130" y="36" width="251" height="504" filterUnits="userSpaceOnUse" color-interpolation-filters="sRGB">
<feFlood flood-opacity="0" result="BackgroundImageFix"/>
<feBlend mode="normal" in="SourceGraphic" in2="BackgroundImageFix" result="shape"/>
<feColorMatrix in="SourceAlpha" type="matrix" values="0 0 0 0 0 0 0 0 0 0 0 0 0 0 0 0 0 0 127 0" result="hardAlpha"/>
<feOffset dx="1" dy="-4"/>
<feGaussianBlur stdDeviation="5"/>
<feComposite in2="hardAlpha" operator="arithmetic" k2="-1" k3="1"/>
<feColorMatrix type="matrix" values="0 0 0 0 0.0784314 0 0 0 0 0.0980392 0 0 0 0 0.133333 0 0 0 0.1 0"/>
<feBlend mode="normal" in2="shape" result="effect1_innerShadow_148_1122"/>
</filter>
</defs>
</svg>
