<svg width="510" height="580" viewBox="0 0 510 580" fill="none" xmlns="http://www.w3.org/2000/svg">
<mask id="mask0_148_1226" style="mask-type:alpha" maskUnits="userSpaceOnUse" x="0" y="-1" width="510" height="581">
<rect y="-0.00012207" width="510" height="580" rx="48" fill="white"/>
</mask>
<g mask="url(#mask0_148_1226)">
<g opacity="0.08" filter="url(#filter0_f_148_1226)">
<rect x="110" y="526" width="290" height="22" rx="11" fill="#365BBD"/>
</g>
<rect x="145" y="54.9999" width="219" height="471" fill="white"/>
<g filter="url(#filter1_i_148_1226)">
<path fill-rule="evenodd" clip-rule="evenodd" d="M378.26 213.611V492.521C378.26 509.03 376.537 515.017 373.301 521.053C370.066 527.088 365.318 531.825 359.269 535.053C353.219 538.281 347.218 540 330.67 540H179.33C162.782 540 156.781 538.281 150.731 535.053C144.682 531.825 139.934 527.088 136.699 521.053C133.463 515.017 131.74 509.03 131.74 492.521V225.764C130.779 225.764 130 224.986 130 224.028V190.463C130 189.504 130.779 188.727 131.74 188.727V180.046C130.779 180.046 130 179.269 130 178.31V144.745C130 143.786 130.779 143.009 131.74 143.009V127.384C130.779 127.384 130 126.607 130 125.648V109.444C130 108.485 130.779 107.708 131.74 107.708V87.4792C131.74 70.9696 133.463 64.9828 136.699 58.9472C139.934 52.9115 144.682 48.1747 150.731 44.9468C156.781 41.7189 162.782 39.9999 179.33 39.9999H330.67C347.218 39.9999 353.219 41.7189 359.269 44.9468C365.318 48.1747 370.066 52.9115 373.301 58.9472C376.537 64.9828 378.26 70.9696 378.26 87.4792V155.162C379.221 155.162 380 155.939 380 156.898V211.875C380 212.834 379.221 213.611 378.26 213.611ZM145.661 90.8101C145.661 78.4941 145.661 72.3361 148.064 67.632C150.177 63.4942 153.549 60.1301 157.696 58.0217C162.411 55.6249 168.584 55.6249 180.928 55.6249L189.745 55.6249C191.882 55.6305 193.649 57.2829 193.804 59.377C193.886 62.2549 194.443 64.3671 195.42 66.1902C196.482 68.1707 198.04 69.7249 200.025 70.7841C202.01 71.8432 204.337 72.4073 207.619 72.4073H301.198C304.48 72.4073 306.807 71.8432 308.792 70.7841C310.777 69.7249 312.335 68.1707 313.396 66.1902C314.372 64.3701 314.928 62.2618 315.012 59.3911C315.16 57.2902 316.931 55.6306 319.073 55.6249L327.912 55.6249C340.256 55.6249 346.429 55.6249 351.144 58.0217C355.291 60.1301 358.663 63.4942 360.776 67.632C363.179 72.3361 363.179 78.4941 363.179 90.8101V490.347C363.179 502.663 363.179 508.821 360.776 513.525C358.663 517.663 355.291 521.027 351.144 523.135C346.429 525.532 340.256 525.532 327.912 525.532H180.928C168.584 525.532 162.411 525.532 157.696 523.135C153.549 521.027 150.177 517.663 148.064 513.525C145.661 508.821 145.661 502.663 145.661 490.347V90.8101Z" fill="white"/>
</g>
<path d="M183.655 416.979C159.092 419.143 135.928 426.652 106.018 438.234C92.1456 386.561 75.3455 334.251 70.3818 318.087C81.0728 310.196 123.073 299.378 149.292 300.651C162.273 341.506 173.474 372.815 183.655 416.979Z" fill="white"/>
<path d="M142.037 314.015C122.564 314.396 97.6185 320.633 86.0366 325.724C89.9821 339.724 97.1094 365.942 105 395.088C125.619 386.433 137.964 384.015 160.619 379.051C154.764 356.524 148.528 334.76 142.037 314.015Z" fill="#00CD82"/>
<path d="M94.9456 336.415C95.7093 336.033 96.4729 336.16 97.1093 336.415C97.7456 336.542 98.382 336.797 98.8911 337.051C100.037 337.56 101.182 338.069 102.073 338.197C102.582 338.197 102.837 338.197 103.091 337.815C103.346 337.433 103.728 337.051 103.855 336.415C104.364 335.397 104.746 334.124 105.255 332.978C105.637 332.342 105.891 331.706 106.782 331.196C107.673 330.687 108.691 330.942 109.328 331.196C110.6 331.706 111.618 332.469 112.637 333.106C113.655 333.742 114.8 334.251 115.055 333.869C115.691 333.487 116.328 332.342 116.837 331.324C117.091 330.815 117.473 330.178 117.728 329.669C118.109 329.16 118.491 328.524 119.255 328.015C119.637 327.76 120.146 327.633 120.655 327.633C121.164 327.633 121.546 327.76 121.8 327.887C122.437 328.142 123.073 328.524 123.582 328.906C124.6 329.669 125.491 330.433 126.51 330.942C126.764 331.069 127.019 331.196 127.146 331.196C127.273 331.196 127.273 331.196 127.4 331.196C127.4 331.196 127.528 331.196 127.655 331.196C128.037 331.069 128.419 330.815 128.8 330.433C129.564 329.669 130.2 328.524 130.837 327.506C131.219 326.996 131.6 326.487 132.237 325.978C132.364 325.851 132.619 325.724 132.746 325.724C133 325.724 133.255 325.596 133.382 325.596C133.764 325.596 134.146 325.596 134.528 325.724C135.928 326.233 136.819 327.124 137.71 328.015C138.091 328.396 138.601 328.906 138.982 329.287C139.364 329.669 139.873 330.051 140.255 330.178H140.382C140.51 330.178 140.764 330.306 140.637 330.56C140.637 330.687 140.51 330.815 140.255 330.815C139.364 330.815 138.855 330.306 138.346 329.924C137.837 329.542 137.455 329.16 136.946 328.778C136.055 328.015 135.037 327.251 134.146 326.996C133.891 326.996 133.637 326.869 133.51 326.996C133.382 326.996 133.382 326.996 133.255 326.996L133 327.124C132.619 327.378 132.364 327.887 131.982 328.396C131.346 329.415 130.71 330.433 129.946 331.578C129.564 332.087 128.928 332.596 128.164 332.978C127.782 333.106 127.146 333.106 126.764 333.106C126.382 332.978 126 332.851 125.746 332.724C124.473 332.087 123.582 331.196 122.691 330.56C121.8 329.924 120.655 329.415 120.273 329.796C119.637 330.178 119.128 331.324 118.491 332.469C118.237 332.978 117.855 333.615 117.6 334.124C117.219 334.633 116.837 335.269 116.073 335.778C115.691 336.033 115.182 336.16 114.673 336.16C114.418 336.16 114.291 336.16 114.037 336.033L113.655 335.778C113.018 335.524 112.382 335.142 111.873 334.887C110.855 334.251 109.837 333.487 108.818 333.106C108.309 332.978 107.928 332.851 107.8 332.978C107.546 333.106 107.164 333.487 106.909 333.997C106.4 334.887 105.891 336.16 105.382 337.306C105.128 337.942 104.746 338.451 104.237 339.087C103.982 339.342 103.6 339.597 103.091 339.724C102.709 339.851 102.2 339.851 101.946 339.724C100.546 339.469 99.5275 338.706 98.382 338.197C97.3638 337.687 96.2184 337.051 95.3274 337.306C95.0729 337.433 94.8183 337.306 94.8183 337.051C94.6911 336.797 94.8183 336.542 94.9456 336.415Z" fill="white"/>
<path d="M99.782 351.051C100.418 350.669 101.182 350.797 101.946 350.924C102.582 351.051 103.218 351.306 103.855 351.433C105 351.815 106.146 352.451 107.037 352.451C107.546 352.451 107.546 352.451 107.8 352.197C108.055 351.942 108.309 351.433 108.564 350.924C109.073 349.906 109.455 348.76 110.091 347.488C110.473 346.851 110.855 346.215 111.746 345.706C112 345.578 112.255 345.451 112.509 345.451C112.764 345.451 113.019 345.324 113.273 345.451C113.528 345.451 113.782 345.451 113.909 345.578C114.164 345.578 114.291 345.706 114.419 345.706C115.819 346.215 116.837 346.978 117.728 347.615C118.237 347.869 118.746 348.251 119.128 348.378L119.382 348.506C119.509 348.506 119.509 348.506 119.637 348.506C119.764 348.506 119.764 348.506 119.891 348.378C120.146 348.251 120.528 347.869 120.782 347.36C121.037 346.851 121.419 346.342 121.673 345.833C121.928 345.324 122.309 344.687 122.691 344.178C123.073 343.669 123.455 343.033 124.219 342.524C124.6 342.269 125.11 342.142 125.619 342.142C126.128 342.142 126.51 342.269 126.891 342.397C127.655 342.651 128.164 343.033 128.673 343.415C129.691 344.178 130.582 344.942 131.6 345.578C131.855 345.706 132.11 345.833 132.237 345.833C132.364 345.833 132.364 345.833 132.491 345.833C132.491 345.833 132.619 345.833 132.746 345.833C133.128 345.706 133.51 345.451 133.891 345.069C134.655 344.306 135.291 343.16 135.928 342.142C136.31 341.633 136.691 341.124 137.328 340.615C137.455 340.487 137.71 340.36 137.837 340.36C138.091 340.36 138.346 340.233 138.473 340.233C138.855 340.233 139.237 340.233 139.619 340.36C141.019 340.869 141.91 341.76 142.801 342.651C143.182 343.033 143.691 343.542 144.073 343.924C144.455 344.306 144.964 344.687 145.346 344.687H145.473C145.728 344.687 145.855 344.942 145.855 345.197C145.855 345.451 145.601 345.578 145.346 345.578C144.328 345.578 143.946 345.069 143.437 344.687C142.928 344.306 142.546 343.924 142.037 343.415C141.146 342.651 140.255 341.887 139.237 341.633C138.982 341.633 138.728 341.506 138.601 341.633C138.473 341.633 138.473 341.633 138.346 341.633L138.091 341.76C137.71 342.015 137.455 342.524 137.073 343.033C136.437 344.051 135.801 345.069 135.037 346.215C134.655 346.724 134.019 347.233 133.255 347.615C132.873 347.742 132.237 347.742 131.982 347.742C131.6 347.615 131.219 347.488 130.964 347.36C129.691 346.724 128.8 345.833 127.782 345.197C127.273 344.815 126.764 344.56 126.382 344.433C125.873 344.306 125.619 344.306 125.491 344.433C124.982 344.815 124.346 345.96 123.837 347.106C123.582 347.615 123.328 348.251 122.946 348.76C122.564 349.269 122.182 349.906 121.419 350.415C121.037 350.669 120.528 350.797 120.019 350.797C119.764 350.797 119.509 350.797 119.382 350.669L118.746 350.542C117.982 350.288 117.473 349.906 116.837 349.651C115.691 349.015 114.8 348.251 113.782 347.997C113.273 347.869 113.019 347.869 112.891 347.869C112.764 347.869 112.382 348.251 112.128 348.76C111.619 349.651 111.237 350.797 110.6 352.069C110.346 352.706 109.964 353.342 109.328 353.851C109.073 354.106 108.564 354.488 108.055 354.615C107.546 354.742 107.037 354.742 106.655 354.615C105.891 354.488 105.255 354.233 104.746 353.851C104.237 353.597 103.6 353.215 103.091 352.96C102.073 352.324 101.055 351.688 100.037 351.815C99.9093 351.815 99.6548 351.688 99.6548 351.56C99.5275 351.178 99.6548 351.051 99.782 351.051Z" fill="white"/>
<path d="M152.856 366.07C151.965 362.888 151.201 359.579 150.31 356.397C132.492 360.342 121.801 362.506 105.51 369.251C106.401 372.433 107.292 375.615 108.183 378.924C124.728 371.924 134.655 370.015 152.856 366.07Z" fill="white"/>
<path d="M143.183 311.215C142.037 311.342 141.019 311.342 139.874 311.469L136.31 311.724C133.892 311.978 131.601 312.233 129.183 312.487C124.474 313.124 119.765 313.887 115.055 314.905C110.346 315.924 105.764 317.069 101.183 318.342C96.6007 319.615 92.0189 321.142 87.6916 323.051L87.9461 322.415C91.2552 333.869 94.3098 345.451 97.6189 357.033C100.801 368.615 103.983 380.197 107.037 391.779L106.146 391.397C115.055 387.579 124.219 384.397 133.637 381.851C143.056 379.306 152.474 377.397 161.892 375.233L161.383 376.124C158.583 365.179 155.656 354.36 152.728 343.542C151.201 338.069 149.674 332.724 148.147 327.251L145.728 319.105L144.456 315.033C143.947 313.76 143.565 312.487 143.183 311.215ZM143.692 310.578C144.201 311.978 144.71 313.378 145.092 314.778L146.365 318.851L148.91 326.869C150.565 332.215 152.092 337.687 153.747 343.033C156.928 353.851 159.856 364.669 162.783 375.615C162.91 375.997 162.656 376.379 162.274 376.506C152.856 378.542 143.31 380.451 134.019 382.997C124.728 385.415 115.565 388.597 106.655 392.415C106.401 392.542 106.019 392.415 105.892 392.033C105.892 392.033 105.892 392.033 105.892 391.906C102.583 380.324 99.528 368.87 96.3462 357.288C93.2916 345.706 90.1098 334.124 87.0552 322.542C86.9279 322.287 87.1825 322.033 87.3097 321.906C91.7643 319.996 96.3462 318.596 100.928 317.196C105.51 315.924 110.219 314.778 114.928 313.76C119.637 312.742 124.346 311.978 129.183 311.342C131.601 311.087 134.019 310.833 136.31 310.578L139.874 310.324C141.147 310.578 142.419 310.451 143.692 310.578Z" fill="#190032"/>
<path d="M163.165 387.324C142.673 391.015 128.164 395.215 107.928 404.633C109.71 411.124 110.728 414.943 113.401 424.997C133.764 415.197 150.31 409.343 168.255 408.833C166.728 401.961 164.819 394.07 163.165 387.324Z" fill="#3E8AE5"/>
<path d="M164.055 385.415C163.037 385.67 162.019 385.924 160.873 386.051L157.309 386.688C154.891 387.197 152.6 387.579 150.182 388.088C145.473 389.106 140.764 390.379 136.182 391.906C131.6 393.433 127.018 395.088 122.564 396.87C118.109 398.652 113.655 400.688 109.327 402.724L109.709 401.961L115.436 422.324L114.164 421.815C118.491 419.779 122.946 417.87 127.4 416.088C131.855 414.306 136.437 412.652 141.018 411.124C145.6 409.724 150.309 408.452 155.019 407.561C159.728 406.67 164.564 406.161 169.4 405.779L168.764 406.542C167.237 399.542 165.582 392.542 164.055 385.415ZM164.691 384.397C166.6 391.651 168.382 399.033 170.164 406.288C170.291 406.67 170.037 406.924 169.655 407.052H169.528C159.982 406.924 150.437 408.961 141.4 412.015C136.818 413.543 132.364 415.324 128.037 417.233C123.582 419.143 119.382 421.306 115.055 423.343C114.673 423.597 114.164 423.343 113.909 422.961C113.909 422.961 113.909 422.834 113.782 422.834L108.564 402.342C108.436 402.088 108.691 401.706 108.945 401.579C117.855 397.633 126.764 393.942 136.055 391.142C140.637 389.742 145.346 388.47 150.055 387.324C152.473 386.815 154.764 386.179 157.182 385.67L160.746 384.906C162.019 384.651 163.419 384.524 164.691 384.397Z" fill="#190032"/>
<path d="M184.037 417.234C182.383 417.488 180.474 417.743 178.692 417.997C177.037 418.252 175.383 418.379 173.728 418.761C170.419 419.27 167.11 419.906 163.801 420.543C157.183 421.943 150.819 423.724 144.328 425.634C131.473 429.579 119 434.415 106.528 439.379C105.891 439.634 105.128 439.379 104.873 438.743V438.616C102.455 428.434 99.7821 418.379 96.982 408.324C94.182 398.27 91.382 388.215 88.3274 378.16C85.4001 368.106 82.3456 358.179 79.291 348.124C76.2364 338.069 73.0546 328.142 70 318.215C70 317.96 70 317.833 70.1273 317.705C72.9273 315.669 76.1091 314.269 79.291 312.996C82.4728 311.724 85.6547 310.578 88.9638 309.56C95.4547 307.524 102.073 305.869 108.818 304.469C115.437 303.069 122.182 301.924 129.055 301.16C135.801 300.396 142.673 300.014 149.546 300.269C149.673 300.269 149.801 300.396 149.928 300.524C156.037 319.742 162.528 338.96 168.51 358.306C171.437 367.979 174.364 377.651 177.037 387.451C178.31 392.288 179.583 397.252 180.855 402.088L182.637 409.47C183.019 412.015 183.528 414.688 184.037 417.234ZM183.274 416.597C182.637 414.179 182.001 411.888 181.492 409.597L179.71 402.215C178.437 397.379 177.164 392.415 175.892 387.579C173.219 377.779 170.419 368.106 167.492 358.433C161.637 339.087 155.146 319.996 149.037 300.651L149.419 300.905C142.673 300.524 135.801 301.033 129.055 301.796C122.182 302.687 115.564 303.833 108.946 305.233C102.328 306.633 95.7093 308.287 89.2183 310.324C86.0365 311.342 82.7274 312.487 79.6728 313.76C76.6182 315.033 73.4364 316.433 70.7636 318.342L70.8909 317.833L80.1819 347.742C83.2365 357.669 86.4183 367.724 89.3456 377.651L107.291 437.725L105.637 436.834C118.237 432.125 130.964 427.415 143.946 423.724C150.437 421.815 157.055 420.288 163.673 419.015C166.983 418.379 170.292 417.87 173.601 417.361C175.255 417.106 176.91 416.979 178.564 416.724C180.092 416.724 181.619 416.724 183.274 416.597Z" fill="#B1B4DE"/>
</g>
<defs>
<filter id="filter0_f_148_1226" x="90" y="506" width="330" height="62" filterUnits="userSpaceOnUse" color-interpolation-filters="sRGB">
<feFlood flood-opacity="0" result="BackgroundImageFix"/>
<feBlend mode="normal" in="SourceGraphic" in2="BackgroundImageFix" result="shape"/>
<feGaussianBlur stdDeviation="10" result="effect1_foregroundBlur_148_1226"/>
</filter>
<filter id="filter1_i_148_1226" x="130" y="35.9999" width="251" height="504" filterUnits="userSpaceOnUse" color-interpolation-filters="sRGB">
<feFlood flood-opacity="0" result="BackgroundImageFix"/>
<feBlend mode="normal" in="SourceGraphic" in2="BackgroundImageFix" result="shape"/>
<feColorMatrix in="SourceAlpha" type="matrix" values="0 0 0 0 0 0 0 0 0 0 0 0 0 0 0 0 0 0 127 0" result="hardAlpha"/>
<feOffset dx="1" dy="-4"/>
<feGaussianBlur stdDeviation="5"/>
<feComposite in2="hardAlpha" operator="arithmetic" k2="-1" k3="1"/>
<feColorMatrix type="matrix" values="0 0 0 0 0.0784314 0 0 0 0 0.0980392 0 0 0 0 0.133333 0 0 0 0.1 0"/>
<feBlend mode="normal" in2="shape" result="effect1_innerShadow_148_1226"/>
</filter>
</defs>
</svg>
