<svg width="46" height="87" viewBox="0 0 46 87" fill="none" xmlns="http://www.w3.org/2000/svg">
<path d="M0.988084 0.609659L31.3287 26.4474C32.385 27.3717 32.4667 28.9133 31.6371 30.0153C31.2743 30.4232 30.8864 30.606 30.4985 30.7887L30.3692 30.8497L3.72702 39.295L4.65797 35.8542L45.5263 86.0417C45.6808 86.2059 45.6713 86.5264 45.4726 86.7781C45.3086 86.9344 44.9901 86.9264 44.741 86.7278L1.48186 38.6938C0.709421 37.8727 0.782233 36.4953 1.60229 35.7139C1.7663 35.5576 2.05962 35.3404 2.28352 35.3139L2.41283 35.253L28.825 25.968L27.9002 30.275L0.262631 1.42551C0.108141 1.26129 0.0230584 0.906356 0.316378 0.689146C0.480384 0.53286 0.798894 0.540799 0.988084 0.609659Z" fill="#F7C363"/>
</svg>
