<svg width="358" height="157" viewBox="0 0 358 157" fill="none" xmlns="http://www.w3.org/2000/svg">
<path d="M1.0798 124.513C0.807196 124.469 0.55048 124.654 0.506409 124.926C0.462337 125.199 0.647599 125.456 0.920201 125.5L1.0798 124.513ZM356.003 86.288L355.508 86.2163L356.003 86.288ZM259.901 9.66815C259.797 9.92379 259.919 10.2157 260.175 10.3201L264.341 12.0216C264.596 12.1261 264.888 12.0035 264.993 11.7478C265.097 11.4922 264.975 11.2003 264.719 11.0959L261.016 9.5834L262.528 5.88038C262.633 5.62474 262.51 5.33286 262.255 5.22844C261.999 5.12402 261.707 5.24662 261.603 5.50226L259.901 9.66815ZM5.84763 126.326C6.11973 126.373 6.37847 126.191 6.42553 125.919C6.47259 125.647 6.29016 125.388 6.01806 125.341L5.84763 126.326ZM16.1493 127.169C15.8779 127.118 15.6168 127.297 15.5662 127.569C15.5156 127.84 15.6947 128.101 15.9662 128.152L16.1493 127.169ZM26.046 130.065C26.3171 130.117 26.5793 129.939 26.6314 129.668C26.6836 129.397 26.5061 129.135 26.2349 129.083L26.046 130.065ZM36.2884 131.031C36.0174 130.978 35.7549 131.155 35.7021 131.426C35.6494 131.697 35.8264 131.959 36.0974 132.012L36.2884 131.031ZM46.1429 133.966C46.414 134.019 46.6765 133.842 46.7291 133.571C46.7817 133.3 46.6047 133.037 46.3336 132.985L46.1429 133.966ZM56.3891 134.928C56.1179 134.876 55.8559 135.054 55.8038 135.325C55.7517 135.596 55.9293 135.858 56.2005 135.91L56.3891 134.928ZM66.2806 137.83C66.552 137.881 66.8134 137.702 66.8646 137.431C66.9158 137.159 66.7373 136.898 66.4659 136.847L66.2806 137.83ZM76.5676 138.729C76.296 138.679 76.0354 138.859 75.9854 139.13C75.9355 139.402 76.1151 139.663 76.3867 139.713L76.5676 138.729ZM86.4819 141.542C86.7538 141.591 87.0134 141.409 87.0619 141.138C87.1104 140.866 86.9293 140.606 86.6575 140.558L86.4819 141.542ZM96.7215 142.321C96.4494 142.274 96.1908 142.457 96.1441 142.729C96.0973 143.001 96.28 143.26 96.5521 143.306L96.7215 142.321ZM106.664 145.008C106.937 145.053 107.194 144.869 107.239 144.596C107.284 144.324 107.099 144.066 106.827 144.021L106.664 145.008ZM116.962 145.649C116.689 145.606 116.433 145.793 116.39 146.065C116.348 146.338 116.534 146.594 116.807 146.637L116.962 145.649ZM126.937 148.176C127.21 148.217 127.464 148.028 127.505 147.755C127.545 147.481 127.356 147.227 127.083 147.187L126.937 148.176ZM137.218 148.632C136.945 148.594 136.692 148.785 136.655 149.059C136.617 149.333 136.808 149.585 137.082 149.622L137.218 148.632ZM147.254 150.967C147.528 151.002 147.779 150.808 147.813 150.534C147.848 150.26 147.654 150.01 147.38 149.975L147.254 150.967ZM157.55 151.204C157.275 151.172 157.027 151.369 156.996 151.644C156.964 151.918 157.161 152.166 157.436 152.197L157.55 151.204ZM167.631 153.303C167.906 153.331 168.151 153.131 168.179 152.856C168.207 152.581 168.007 152.336 167.732 152.308L167.631 153.303ZM177.932 153.275C177.657 153.251 177.414 153.454 177.39 153.729C177.366 154.005 177.569 154.247 177.844 154.271L177.932 153.275ZM188.057 155.087C188.333 155.107 188.572 154.9 188.592 154.624C188.612 154.349 188.405 154.109 188.129 154.09L188.057 155.087ZM198.358 154.738C198.082 154.723 197.846 154.934 197.831 155.21C197.816 155.486 198.028 155.722 198.303 155.737L198.358 154.738ZM208.56 156.2C208.836 156.21 209.068 155.994 209.078 155.718C209.088 155.442 208.872 155.211 208.596 155.201L208.56 156.2ZM218.82 155.456C218.544 155.452 218.317 155.673 218.313 155.949C218.309 156.225 218.53 156.452 218.806 156.456L218.82 155.456ZM229.052 156.48C229.328 156.477 229.55 156.251 229.547 155.975C229.544 155.699 229.318 155.477 229.042 155.48L229.052 156.48ZM239.3 155.243C239.024 155.253 238.808 155.485 238.818 155.761C238.829 156.037 239.061 156.252 239.337 156.242L239.3 155.243ZM249.593 155.707C249.868 155.688 250.077 155.45 250.058 155.174C250.039 154.899 249.801 154.691 249.525 154.709L249.593 155.707ZM259.702 153.841C259.427 153.869 259.228 154.115 259.256 154.39C259.285 154.664 259.53 154.864 259.805 154.835L259.702 153.841ZM269.957 153.579C270.23 153.539 270.42 153.286 270.38 153.013C270.34 152.739 270.087 152.55 269.813 152.589L269.957 153.579ZM279.925 150.88C279.654 150.933 279.477 151.196 279.53 151.467C279.583 151.738 279.845 151.915 280.116 151.862L279.925 150.88ZM290.162 149.619C290.43 149.551 290.592 149.279 290.524 149.011C290.456 148.743 290.183 148.581 289.916 148.649L290.162 149.619ZM299.732 145.809C299.469 145.895 299.326 146.178 299.412 146.44C299.498 146.703 299.78 146.846 300.043 146.76L299.732 145.809ZM309.682 143.178C309.937 143.071 310.056 142.778 309.95 142.523C309.843 142.269 309.55 142.149 309.295 142.256L309.682 143.178ZM318.491 137.871C318.248 138.002 318.158 138.305 318.289 138.548C318.42 138.791 318.724 138.882 318.967 138.751L318.491 137.871ZM327.729 133.354C327.955 133.196 328.009 132.884 327.851 132.658C327.692 132.432 327.38 132.377 327.154 132.536L327.729 133.354ZM335.061 126.159C334.859 126.347 334.847 126.663 335.035 126.865C335.223 127.068 335.539 127.079 335.742 126.891L335.061 126.159ZM342.736 119.336C342.907 119.119 342.87 118.805 342.654 118.633C342.437 118.462 342.123 118.499 341.952 118.715L342.736 119.336ZM347.583 110.288C347.448 110.53 347.535 110.834 347.776 110.969C348.017 111.103 348.322 111.017 348.456 110.775L347.583 110.288ZM352.742 101.418C352.837 101.159 352.704 100.872 352.445 100.776C352.186 100.681 351.898 100.814 351.803 101.073L352.742 101.418ZM354.598 91.3244C354.541 91.5945 354.713 91.86 354.984 91.9174C355.254 91.9748 355.519 91.8024 355.577 91.5323L354.598 91.3244ZM357.115 81.0354C357.138 80.7603 356.935 80.518 356.659 80.4943C356.384 80.4706 356.142 80.6743 356.118 80.9495L357.115 81.0354ZM356.363 70.382C356.375 70.6579 356.608 70.872 356.884 70.8602C357.16 70.8483 357.374 70.6151 357.362 70.3392L356.363 70.382ZM356.141 59.7145C356.089 59.4433 355.827 59.2654 355.556 59.3172C355.285 59.3691 355.107 59.6309 355.159 59.9022L356.141 59.7145ZM352.371 49.7413C352.465 50.0009 352.752 50.1348 353.011 50.0404C353.271 49.9461 353.405 49.6592 353.311 49.3997L352.371 49.7413ZM348.829 39.6821C348.692 39.4419 348.387 39.3577 348.147 39.4941C347.907 39.6304 347.823 39.9356 347.959 40.1757L348.829 39.6821ZM342.003 31.4778C342.177 31.6919 342.492 31.7239 342.706 31.5494C342.92 31.3749 342.952 31.0599 342.778 30.8459L342.003 31.4778ZM335.362 23.1293C335.155 22.9461 334.839 22.9652 334.656 23.1719C334.473 23.3785 334.492 23.6945 334.698 23.8777L335.362 23.1293ZM326.289 17.5118C326.521 17.6613 326.831 17.5944 326.98 17.3623C327.13 17.1302 327.063 16.8207 326.831 16.6712L326.289 17.5118ZM317.44 11.5449C317.189 11.4303 316.892 11.541 316.778 11.7922C316.663 12.0434 316.774 12.34 317.025 12.4547L317.44 11.5449ZM307.14 8.74891C307.404 8.82782 307.683 8.67726 307.762 8.41263C307.84 8.148 307.69 7.86951 307.425 7.7906L307.14 8.74891ZM296.99 5.44162C296.717 5.39956 296.462 5.58671 296.42 5.85963C296.378 6.13255 296.565 6.38789 296.838 6.42995L296.99 5.44162ZM286.317 5.55299C286.593 5.55638 286.82 5.3353 286.823 5.05918C286.827 4.78305 286.606 4.55646 286.329 4.55306L286.317 5.55299ZM275.651 5.21436C275.377 5.2524 275.186 5.50497 275.224 5.77847C275.262 6.05198 275.515 6.24287 275.788 6.20483L275.651 5.21436ZM265.502 8.50709C265.766 8.42401 265.912 8.14317 265.829 7.87982C265.746 7.61647 265.465 7.47034 265.201 7.55342L265.502 8.50709ZM0.920201 125.5C2.49411 125.754 4.13764 126.03 5.84763 126.326L6.01806 125.341C4.30505 125.044 2.65787 124.768 1.0798 124.513L0.920201 125.5ZM15.9662 128.152C19.1673 128.748 22.532 129.389 26.046 130.065L26.2349 129.083C22.7197 128.406 19.353 127.766 16.1493 127.169L15.9662 128.152ZM36.0974 132.012C39.3481 132.645 42.6999 133.298 46.1429 133.966L46.3336 132.985C42.8908 132.316 39.5396 131.663 36.2884 131.031L36.0974 132.012ZM56.2005 135.91C59.4939 136.543 62.8563 137.184 66.2806 137.83L66.4659 136.847C63.0429 136.201 59.6816 135.56 56.3891 134.928L56.2005 135.91ZM76.3867 139.713C79.7051 140.323 83.0721 140.934 86.4819 141.542L86.6575 140.558C83.2496 139.95 79.8844 139.339 76.5676 138.729L76.3867 139.713ZM96.5521 143.306C99.8904 143.88 103.263 144.448 106.664 145.008L106.827 144.021C103.428 143.462 100.058 142.894 96.7215 142.321L96.5521 143.306ZM116.807 146.637C120.162 147.162 123.541 147.676 126.937 148.176L127.083 147.187C123.69 146.687 120.314 146.173 116.962 145.649L116.807 146.637ZM137.082 149.622C140.461 150.087 143.853 150.536 147.254 150.967L147.38 149.975C143.983 149.545 140.594 149.096 137.218 148.632L137.082 149.622ZM157.436 152.197C160.831 152.587 164.231 152.957 167.631 153.303L167.732 152.308C164.337 151.962 160.941 151.593 157.55 151.204L157.436 152.197ZM177.844 154.271C181.255 154.57 184.661 154.843 188.057 155.087L188.129 154.09C184.738 153.846 181.337 153.573 177.932 153.275L177.844 154.271ZM198.303 155.737C201.738 155.924 205.158 156.08 208.56 156.2L208.596 155.201C205.2 155.081 201.786 154.925 198.358 154.738L198.303 155.737ZM218.806 156.456C222.247 156.504 225.664 156.513 229.052 156.48L229.042 155.48C225.663 155.513 222.254 155.504 218.82 155.456L218.806 156.456ZM239.337 156.242C242.794 156.114 246.215 155.937 249.593 155.707L249.525 154.709C246.158 154.938 242.748 155.115 239.3 155.243L239.337 156.242ZM259.805 154.835C263.244 154.479 266.63 154.062 269.957 153.579L269.813 152.589C266.501 153.07 263.129 153.486 259.702 153.841L259.805 154.835ZM280.116 151.862C283.544 151.195 286.895 150.449 290.162 149.619L289.916 148.649C286.668 149.475 283.335 150.217 279.925 150.88L280.116 151.862ZM300.043 146.76C303.366 145.671 306.583 144.479 309.682 143.178L309.295 142.256C306.223 143.546 303.031 144.729 299.732 145.809L300.043 146.76ZM318.967 138.751C322.041 137.09 324.966 135.294 327.729 133.354L327.154 132.536C324.426 134.451 321.534 136.227 318.491 137.871L318.967 138.751ZM335.742 126.891C338.272 124.541 340.608 122.025 342.736 119.336L341.952 118.715C339.857 121.363 337.555 123.842 335.061 126.159L335.742 126.891ZM348.456 110.775C350.099 107.829 351.532 104.712 352.742 101.418L351.803 101.073C350.611 104.319 349.2 107.388 347.583 110.288L348.456 110.775ZM355.577 91.5323C355.935 89.8477 356.242 88.1237 356.498 86.3597L355.508 86.2163C355.255 87.9592 354.952 89.6616 354.598 91.3244L355.577 91.5323ZM356.498 86.3597C356.759 84.5569 356.964 82.7821 357.115 81.0354L356.118 80.9495C355.969 82.6766 355.767 84.4323 355.508 86.2163L356.498 86.3597ZM357.362 70.3392C357.204 66.6501 356.789 63.1078 356.141 59.7145L355.159 59.9022C355.798 63.2466 356.207 66.7404 356.363 70.382L357.362 70.3392ZM353.311 49.3997C352.064 45.9705 350.559 42.7304 348.829 39.6821L347.959 40.1757C349.662 43.1759 351.143 46.3652 352.371 49.7413L353.311 49.3997ZM342.778 30.8459C340.503 28.0566 338.018 25.4834 335.362 23.1293L334.698 23.8777C337.316 26.1972 339.763 28.7316 342.003 31.4778L342.778 30.8459ZM326.831 16.6712C323.823 14.733 320.679 13.0233 317.44 11.5449L317.025 12.4547C320.221 13.9136 323.323 15.6004 326.289 17.5118L326.831 16.6712ZM307.425 7.7906C303.989 6.76598 300.496 5.98194 296.99 5.44162L296.838 6.42995C300.299 6.96333 303.747 7.73735 307.14 8.74891L307.425 7.7906ZM286.329 4.55306C282.724 4.5087 279.148 4.72786 275.651 5.21436L275.788 6.20483C279.235 5.72547 282.76 5.50922 286.317 5.55299L286.329 4.55306ZM265.201 7.55342C263.488 8.0939 261.809 8.70797 260.17 9.39623L260.558 10.3182C262.167 9.64216 263.818 9.03859 265.502 8.50709L265.201 7.55342ZM1.1596 124.019C0.614392 123.931 0.100961 124.301 0.0128178 124.847C-0.0753254 125.392 0.295197 125.905 0.840403 125.993L1.1596 124.019ZM356.003 86.288L355.013 86.1446L356.003 86.288ZM259.438 9.47909C259.229 9.99037 259.475 10.5741 259.986 10.783L268.318 14.1861C268.829 14.3949 269.413 14.1497 269.622 13.6384C269.83 13.1272 269.585 12.5434 269.074 12.3346L261.668 9.30958L264.693 1.90354C264.902 1.39226 264.657 0.808494 264.145 0.599663C263.634 0.390831 263.05 0.636014 262.841 1.14729L259.438 9.47909ZM5.76242 126.819C6.30662 126.913 6.82409 126.548 6.91822 126.004C7.01234 125.46 6.64748 124.942 6.10327 124.848L5.76242 126.819ZM16.2409 126.677C15.6979 126.576 15.1758 126.934 15.0747 127.477C14.9735 128.02 15.3317 128.542 15.8746 128.644L16.2409 126.677ZM25.9515 130.556C26.4938 130.66 27.0181 130.305 27.1224 129.763C27.2268 129.22 26.8717 128.696 26.3294 128.592L25.9515 130.556ZM36.3839 130.54C35.8418 130.434 35.3168 130.788 35.2113 131.33C35.1059 131.872 35.4598 132.397 36.002 132.503L36.3839 130.54ZM46.0476 134.457C46.5898 134.563 47.1146 134.208 47.2199 133.666C47.3252 133.124 46.9711 132.599 46.4289 132.494L46.0476 134.457ZM56.4834 134.437C55.941 134.333 55.4169 134.688 55.3128 135.23C55.2086 135.773 55.5638 136.297 56.1062 136.401L56.4834 134.437ZM66.188 138.321C66.7307 138.423 67.2536 138.066 67.3559 137.523C67.4583 136.981 67.1013 136.458 66.5586 136.355L66.188 138.321ZM76.6581 138.237C76.1149 138.137 75.5936 138.497 75.4937 139.04C75.3938 139.583 75.7531 140.104 76.2963 140.204L76.6581 138.237ZM86.3941 142.034C86.9378 142.131 87.4572 141.769 87.5542 141.225C87.6511 140.682 87.289 140.162 86.7453 140.065L86.3941 142.034ZM96.8062 141.828C96.2619 141.734 95.7448 142.1 95.6513 142.644C95.5577 143.188 95.9231 143.705 96.4674 143.799L96.8062 141.828ZM106.583 145.502C107.128 145.591 107.643 145.222 107.732 144.677C107.822 144.132 107.453 143.618 106.908 143.528L106.583 145.502ZM117.039 145.155C116.493 145.069 115.982 145.443 115.896 145.988C115.811 146.534 116.184 147.045 116.73 147.131L117.039 145.155ZM126.864 148.671C127.411 148.752 127.919 148.374 127.999 147.828C128.08 147.281 127.702 146.773 127.156 146.692L126.864 148.671ZM137.286 148.136C136.739 148.061 136.235 148.444 136.159 148.991C136.084 149.538 136.467 150.043 137.014 150.118L137.286 148.136ZM147.192 151.463C147.74 151.533 148.24 151.145 148.309 150.597C148.379 150.049 147.991 149.548 147.443 149.479L147.192 151.463ZM157.607 150.707C157.058 150.644 156.562 151.038 156.499 151.587C156.436 152.135 156.83 152.631 157.378 152.694L157.607 150.707ZM167.58 153.8C168.13 153.856 168.621 153.456 168.676 152.907C168.732 152.357 168.332 151.866 167.783 151.811L167.58 153.8ZM177.975 152.777C177.425 152.729 176.94 153.136 176.892 153.686C176.844 154.236 177.251 154.721 177.801 154.769L177.975 152.777ZM188.022 155.586C188.572 155.625 189.051 155.211 189.091 154.66C189.13 154.109 188.716 153.63 188.165 153.591L188.022 155.586ZM198.385 154.239C197.834 154.209 197.362 154.632 197.332 155.183C197.302 155.734 197.725 156.206 198.276 156.236L198.385 154.239ZM208.543 156.7C209.095 156.72 209.558 156.288 209.577 155.736C209.597 155.184 209.165 154.721 208.613 154.701L208.543 156.7ZM218.827 154.956C218.275 154.948 217.821 155.39 217.813 155.942C217.805 156.494 218.247 156.948 218.799 156.956L218.827 154.956ZM229.057 156.98C229.609 156.975 230.053 156.522 230.047 155.97C230.042 155.418 229.59 154.975 229.037 154.98L229.057 156.98ZM239.281 154.743C238.729 154.763 238.298 155.227 238.319 155.779C238.339 156.331 238.803 156.762 239.355 156.742L239.281 154.743ZM249.627 156.206C250.178 156.168 250.594 155.691 250.557 155.14C250.519 154.589 250.042 154.173 249.491 154.21L249.627 156.206ZM259.651 153.343C259.101 153.4 258.702 153.892 258.759 154.441C258.816 154.991 259.307 155.39 259.857 155.333L259.651 153.343ZM270.029 154.074C270.575 153.995 270.954 153.487 270.875 152.941C270.796 152.394 270.288 152.015 269.742 152.095L270.029 154.074ZM279.83 150.39C279.288 150.495 278.934 151.02 279.039 151.562C279.144 152.104 279.669 152.458 280.212 152.353L279.83 150.39ZM290.285 150.103C290.821 149.967 291.144 149.423 291.008 148.888C290.872 148.352 290.328 148.029 289.793 148.165L290.285 150.103ZM299.576 145.334C299.051 145.506 298.765 146.071 298.937 146.596C299.109 147.121 299.673 147.407 300.198 147.235L299.576 145.334ZM309.876 143.639C310.385 143.425 310.624 142.839 310.411 142.33C310.197 141.82 309.611 141.581 309.101 141.795L309.876 143.639ZM318.254 137.431C317.768 137.693 317.587 138.3 317.849 138.786C318.112 139.272 318.718 139.453 319.204 139.191L318.254 137.431ZM328.016 133.764C328.468 133.446 328.577 132.823 328.26 132.371C327.943 131.919 327.319 131.809 326.867 132.127L328.016 133.764ZM334.721 125.792C334.316 126.168 334.293 126.801 334.669 127.206C335.045 127.61 335.677 127.634 336.082 127.258L334.721 125.792ZM343.128 119.646C343.471 119.213 343.397 118.584 342.964 118.241C342.531 117.898 341.902 117.972 341.559 118.405L343.128 119.646ZM347.146 110.045C346.877 110.527 347.05 111.136 347.533 111.405C348.015 111.674 348.624 111.501 348.893 111.019L347.146 110.045ZM353.211 101.591C353.402 101.072 353.136 100.497 352.617 100.307C352.099 100.117 351.524 100.383 351.334 100.901L353.211 101.591ZM354.109 91.2204C353.995 91.7606 354.339 92.2916 354.88 92.4065C355.42 92.5213 355.951 92.1764 356.066 91.6362L354.109 91.2204ZM357.613 81.0784C357.66 80.5282 357.253 80.0436 356.702 79.9961C356.152 79.9487 355.668 80.3562 355.62 80.9065L357.613 81.0784ZM355.863 70.4034C355.887 70.9552 356.353 71.3833 356.905 71.3597C357.457 71.3361 357.885 70.8696 357.862 70.3178L355.863 70.4034ZM356.632 59.6207C356.528 59.0782 356.005 58.7225 355.462 58.8261C354.92 58.9298 354.564 59.4535 354.667 59.996L356.632 59.6207ZM351.901 49.9122C352.09 50.4312 352.663 50.699 353.182 50.5103C353.701 50.3217 353.969 49.7479 353.78 49.2289L351.901 49.9122ZM349.263 39.4353C348.991 38.9549 348.38 38.7866 347.9 39.0592C347.42 39.3318 347.251 39.9422 347.524 40.4225L349.263 39.4353ZM341.615 31.7938C341.964 32.2218 342.594 32.2859 343.022 31.9369C343.45 31.5879 343.514 30.958 343.165 30.53L341.615 31.7938ZM335.693 22.7551C335.28 22.3888 334.648 22.4269 334.282 22.8403C333.915 23.2536 333.953 23.8856 334.367 24.2519L335.693 22.7551ZM326.018 17.9321C326.483 18.2312 327.102 18.0974 327.401 17.6331C327.7 17.1689 327.566 16.55 327.102 16.2509L326.018 17.9321ZM317.648 11.0901C317.145 10.8608 316.552 11.0822 316.323 11.5846C316.094 12.087 316.315 12.6802 316.817 12.9095L317.648 11.0901ZM306.997 9.22806C307.526 9.38587 308.083 9.08475 308.241 8.5555C308.399 8.02624 308.097 7.46926 307.568 7.31145L306.997 9.22806ZM297.066 4.94745C296.521 4.86334 296.01 5.23764 295.926 5.78348C295.842 6.32932 296.216 6.84 296.762 6.92412L297.066 4.94745ZM286.311 6.05295C286.863 6.05974 287.316 5.61757 287.323 5.06533C287.33 4.51308 286.888 4.05989 286.336 4.0531L286.311 6.05295ZM275.582 4.71913C275.035 4.79521 274.653 5.30034 274.729 5.84736C274.805 6.39437 275.31 6.77614 275.857 6.70006L275.582 4.71913ZM265.653 8.98392C266.179 8.81776 266.472 8.25608 266.306 7.72939C266.139 7.20269 265.578 6.91042 265.051 7.07659L265.653 8.98392ZM0.840403 125.993C2.41224 126.248 4.05394 126.523 5.76242 126.819L6.10327 124.848C4.38875 124.552 2.73974 124.275 1.1596 124.019L0.840403 125.993ZM15.8746 128.644C19.0744 129.24 22.4381 129.88 25.9515 130.556L26.3294 128.592C22.8136 127.915 19.4459 127.274 16.2409 126.677L15.8746 128.644ZM36.002 132.503C39.2524 133.135 42.6045 133.789 46.0476 134.457L46.4289 132.494C42.9862 131.825 39.6353 131.172 36.3839 130.54L36.002 132.503ZM56.1062 136.401C59.4 137.034 62.763 137.675 66.188 138.321L66.5586 136.355C63.1362 135.71 59.7755 135.069 56.4834 134.437L56.1062 136.401ZM76.2963 140.204C79.6154 140.815 82.9833 141.426 86.3941 142.034L86.7453 140.065C83.3384 139.458 79.9741 138.847 76.6581 138.237L76.2963 140.204ZM96.4674 143.799C99.8068 144.373 103.18 144.942 106.583 145.502L106.908 143.528C103.51 142.969 100.141 142.401 96.8062 141.828L96.4674 143.799ZM116.73 147.131C120.087 147.656 123.466 148.17 126.864 148.671L127.156 146.692C123.764 146.192 120.39 145.679 117.039 145.155L116.73 147.131ZM137.014 150.118C140.395 150.583 143.789 151.032 147.192 151.463L147.443 149.479C144.047 149.049 140.66 148.6 137.286 148.136L137.014 150.118ZM157.378 152.694C160.776 153.084 164.178 153.454 167.58 153.8L167.783 151.811C164.39 151.465 160.996 151.096 157.607 150.707L157.378 152.694ZM177.801 154.769C181.214 155.068 184.622 155.341 188.022 155.586L188.165 153.591C184.776 153.347 181.378 153.075 177.975 152.777L177.801 154.769ZM198.276 156.236C201.714 156.424 205.137 156.579 208.543 156.7L208.613 154.701C205.221 154.581 201.81 154.426 198.385 154.239L198.276 156.236ZM218.799 156.956C222.244 157.004 225.665 157.013 229.057 156.98L229.037 154.98C225.662 155.013 222.257 155.004 218.827 154.956L218.799 156.956ZM239.355 156.742C242.818 156.613 246.244 156.436 249.627 156.206L249.491 154.21C246.13 154.439 242.724 154.615 239.281 154.743L239.355 156.742ZM259.857 155.333C263.302 154.976 266.695 154.558 270.029 154.074L269.742 152.095C266.437 152.574 263.071 152.989 259.651 153.343L259.857 155.333ZM280.212 152.353C283.648 151.684 287.008 150.936 290.285 150.103L289.793 148.165C286.555 148.988 283.231 149.728 279.83 150.39L280.212 152.353ZM300.198 147.235C303.534 146.143 306.763 144.946 309.876 143.639L309.101 141.795C306.042 143.079 302.864 144.257 299.576 145.334L300.198 147.235ZM319.204 139.191C322.295 137.521 325.236 135.715 328.016 133.764L326.867 132.127C324.155 134.03 321.28 135.796 318.254 137.431L319.204 139.191ZM336.082 127.258C338.63 124.891 340.984 122.356 343.128 119.646L341.559 118.405C339.481 121.032 337.197 123.492 334.721 125.792L336.082 127.258ZM348.893 111.019C350.549 108.049 351.993 104.909 353.211 101.591L351.334 100.901C350.151 104.122 348.751 107.167 347.146 110.045L348.893 111.019ZM356.066 91.6362C356.426 89.9407 356.735 88.206 356.993 86.4314L355.013 86.1446C354.762 87.8769 354.46 89.5686 354.109 91.2204L356.066 91.6362ZM356.993 86.4314C357.255 84.6193 357.461 82.8349 357.613 81.0784L355.62 80.9065C355.472 82.6238 355.27 84.3699 355.013 86.1446L356.993 86.4314ZM357.862 70.3178C357.703 66.6049 357.285 63.0384 356.632 59.6207L354.667 59.996C355.302 63.316 355.708 66.7856 355.863 70.4034L357.862 70.3178ZM353.78 49.2289C352.524 45.7732 351.007 42.5077 349.263 39.4353L347.524 40.4225C349.213 43.3986 350.683 46.5625 351.901 49.9122L353.78 49.2289ZM343.165 30.53C340.873 27.719 338.369 25.1265 335.693 22.7551L334.367 24.2519C336.965 26.5541 339.394 29.0691 341.615 31.7938L343.165 30.53ZM327.102 16.2509C324.073 14.2993 320.908 12.5782 317.648 11.0901L316.817 12.9095C319.993 14.3588 323.073 16.0341 326.018 17.9321L327.102 16.2509ZM307.568 7.31145C304.11 6.28029 300.595 5.49124 297.066 4.94745L296.762 6.92412C300.2 7.45403 303.626 8.22304 306.997 9.22806L307.568 7.31145ZM286.336 4.0531C282.706 4.00844 279.105 4.22906 275.582 4.71913L275.857 6.70006C279.278 6.22428 282.778 6.00948 286.311 6.05295L286.336 4.0531ZM265.051 7.07659C263.324 7.62155 261.63 8.24088 259.977 8.93523L260.751 10.7792C262.346 10.1093 263.982 9.51094 265.653 8.98392L265.051 7.07659Z" fill="url(#paint0_diamond_148_1338)"/>
<defs>
<radialGradient id="paint0_diamond_148_1338" cx="0" cy="0" r="1" gradientUnits="userSpaceOnUse" gradientTransform="translate(56 138) rotate(-19.5768) scale(325.305 665.225)">
<stop stop-color="#ABF09A" stop-opacity="0"/>
<stop offset="0.368667" stop-color="#9FF998" stop-opacity="0.35"/>
<stop offset="0.816938" stop-color="#A7B1FF"/>
<stop offset="1" stop-color="#F9E6B5"/>
</radialGradient>
</defs>
</svg>
